%TF.GenerationSoftware,KiCad,Pcbnew,10.0.3*%
%TF.CreationDate,2026-06-30T17:04:24+09:00*%
%TF.ProjectId,measurement_part,6d656173-7572-4656-9d65-6e745f706172,rev?*%
%TF.SameCoordinates,Original*%
%TF.FileFunction,Legend,Top*%
%TF.FilePolarity,Positive*%
%FSLAX46Y46*%
G04 Gerber Fmt 4.6, Leading zero omitted, Abs format (unit mm)*
G04 Created by KiCad (PCBNEW 10.0.3) date 2026-06-30 17:04:24*
%MOMM*%
%LPD*%
G01*
G04 APERTURE LIST*
G04 Aperture macros list*
%AMRoundRect*
0 Rectangle with rounded corners*
0 $1 Rounding radius*
0 $2 $3 $4 $5 $6 $7 $8 $9 X,Y pos of 4 corners*
0 Add a 4 corners polygon primitive as box body*
4,1,4,$2,$3,$4,$5,$6,$7,$8,$9,$2,$3,0*
0 Add four circle primitives for the rounded corners*
1,1,$1+$1,$2,$3*
1,1,$1+$1,$4,$5*
1,1,$1+$1,$6,$7*
1,1,$1+$1,$8,$9*
0 Add four rect primitives between the rounded corners*
20,1,$1+$1,$2,$3,$4,$5,0*
20,1,$1+$1,$4,$5,$6,$7,0*
20,1,$1+$1,$6,$7,$8,$9,0*
20,1,$1+$1,$8,$9,$2,$3,0*%
G04 Aperture macros list end*
%ADD10C,0.200000*%
%ADD11C,0.150000*%
%ADD12C,0.120000*%
%ADD13C,0.127000*%
%ADD14C,0.400000*%
%ADD15C,0.000000*%
%ADD16RoundRect,0.250000X-0.400000X-0.625000X0.400000X-0.625000X0.400000X0.625000X-0.400000X0.625000X0*%
%ADD17R,1.500000X1.500000*%
%ADD18C,1.500000*%
%ADD19RoundRect,0.250000X-0.600000X-0.675000X0.600000X-0.675000X0.600000X0.675000X-0.600000X0.675000X0*%
%ADD20O,1.700000X1.850000*%
%ADD21RoundRect,0.102000X-0.754000X-0.754000X0.754000X-0.754000X0.754000X0.754000X-0.754000X0.754000X0*%
%ADD22C,1.712000*%
%ADD23C,4.300000*%
%ADD24RoundRect,0.250001X1.099999X1.399999X-1.099999X1.399999X-1.099999X-1.399999X1.099999X-1.399999X0*%
%ADD25O,2.700000X3.300000*%
%ADD26RoundRect,0.250000X0.600000X0.675000X-0.600000X0.675000X-0.600000X-0.675000X0.600000X-0.675000X0*%
%ADD27R,1.600000X1.600000*%
%ADD28O,1.600000X1.600000*%
%ADD29RoundRect,0.250001X-1.399999X1.099999X-1.399999X-1.099999X1.399999X-1.099999X1.399999X1.099999X0*%
%ADD30O,3.300000X2.700000*%
%ADD31C,1.524000*%
%ADD32C,1.600000*%
G04 APERTURE END LIST*
D10*
X66619673Y-46986266D02*
X67381578Y-46986266D01*
X67000625Y-47367219D02*
X67000625Y-46605314D01*
X68333958Y-46367219D02*
X67857768Y-46367219D01*
X67857768Y-46367219D02*
X67810149Y-46843409D01*
X67810149Y-46843409D02*
X67857768Y-46795790D01*
X67857768Y-46795790D02*
X67953006Y-46748171D01*
X67953006Y-46748171D02*
X68191101Y-46748171D01*
X68191101Y-46748171D02*
X68286339Y-46795790D01*
X68286339Y-46795790D02*
X68333958Y-46843409D01*
X68333958Y-46843409D02*
X68381577Y-46938647D01*
X68381577Y-46938647D02*
X68381577Y-47176742D01*
X68381577Y-47176742D02*
X68333958Y-47271980D01*
X68333958Y-47271980D02*
X68286339Y-47319600D01*
X68286339Y-47319600D02*
X68191101Y-47367219D01*
X68191101Y-47367219D02*
X67953006Y-47367219D01*
X67953006Y-47367219D02*
X67857768Y-47319600D01*
X67857768Y-47319600D02*
X67810149Y-47271980D01*
X68667292Y-46367219D02*
X69000625Y-47367219D01*
X69000625Y-47367219D02*
X69333958Y-46367219D01*
D11*
X75133942Y-60374819D02*
X74800609Y-59898628D01*
X74562514Y-60374819D02*
X74562514Y-59374819D01*
X74562514Y-59374819D02*
X74943466Y-59374819D01*
X74943466Y-59374819D02*
X75038704Y-59422438D01*
X75038704Y-59422438D02*
X75086323Y-59470057D01*
X75086323Y-59470057D02*
X75133942Y-59565295D01*
X75133942Y-59565295D02*
X75133942Y-59708152D01*
X75133942Y-59708152D02*
X75086323Y-59803390D01*
X75086323Y-59803390D02*
X75038704Y-59851009D01*
X75038704Y-59851009D02*
X74943466Y-59898628D01*
X74943466Y-59898628D02*
X74562514Y-59898628D01*
X76086323Y-60374819D02*
X75514895Y-60374819D01*
X75800609Y-60374819D02*
X75800609Y-59374819D01*
X75800609Y-59374819D02*
X75705371Y-59517676D01*
X75705371Y-59517676D02*
X75610133Y-59612914D01*
X75610133Y-59612914D02*
X75514895Y-59660533D01*
X76991085Y-59374819D02*
X76514895Y-59374819D01*
X76514895Y-59374819D02*
X76467276Y-59851009D01*
X76467276Y-59851009D02*
X76514895Y-59803390D01*
X76514895Y-59803390D02*
X76610133Y-59755771D01*
X76610133Y-59755771D02*
X76848228Y-59755771D01*
X76848228Y-59755771D02*
X76943466Y-59803390D01*
X76943466Y-59803390D02*
X76991085Y-59851009D01*
X76991085Y-59851009D02*
X77038704Y-59946247D01*
X77038704Y-59946247D02*
X77038704Y-60184342D01*
X77038704Y-60184342D02*
X76991085Y-60279580D01*
X76991085Y-60279580D02*
X76943466Y-60327200D01*
X76943466Y-60327200D02*
X76848228Y-60374819D01*
X76848228Y-60374819D02*
X76610133Y-60374819D01*
X76610133Y-60374819D02*
X76514895Y-60327200D01*
X76514895Y-60327200D02*
X76467276Y-60279580D01*
X69550057Y-92071428D02*
X69502438Y-92166666D01*
X69502438Y-92166666D02*
X69407200Y-92261904D01*
X69407200Y-92261904D02*
X69264342Y-92404761D01*
X69264342Y-92404761D02*
X69216723Y-92499999D01*
X69216723Y-92499999D02*
X69216723Y-92595237D01*
X69454819Y-92547618D02*
X69407200Y-92642856D01*
X69407200Y-92642856D02*
X69311961Y-92738094D01*
X69311961Y-92738094D02*
X69121485Y-92785713D01*
X69121485Y-92785713D02*
X68788152Y-92785713D01*
X68788152Y-92785713D02*
X68597676Y-92738094D01*
X68597676Y-92738094D02*
X68502438Y-92642856D01*
X68502438Y-92642856D02*
X68454819Y-92547618D01*
X68454819Y-92547618D02*
X68454819Y-92357142D01*
X68454819Y-92357142D02*
X68502438Y-92261904D01*
X68502438Y-92261904D02*
X68597676Y-92166666D01*
X68597676Y-92166666D02*
X68788152Y-92119047D01*
X68788152Y-92119047D02*
X69121485Y-92119047D01*
X69121485Y-92119047D02*
X69311961Y-92166666D01*
X69311961Y-92166666D02*
X69407200Y-92261904D01*
X69407200Y-92261904D02*
X69454819Y-92357142D01*
X69454819Y-92357142D02*
X69454819Y-92547618D01*
X69454819Y-91166666D02*
X69454819Y-91738094D01*
X69454819Y-91452380D02*
X68454819Y-91452380D01*
X68454819Y-91452380D02*
X68597676Y-91547618D01*
X68597676Y-91547618D02*
X68692914Y-91642856D01*
X68692914Y-91642856D02*
X68740533Y-91738094D01*
X68454819Y-90547618D02*
X68454819Y-90452380D01*
X68454819Y-90452380D02*
X68502438Y-90357142D01*
X68502438Y-90357142D02*
X68550057Y-90309523D01*
X68550057Y-90309523D02*
X68645295Y-90261904D01*
X68645295Y-90261904D02*
X68835771Y-90214285D01*
X68835771Y-90214285D02*
X69073866Y-90214285D01*
X69073866Y-90214285D02*
X69264342Y-90261904D01*
X69264342Y-90261904D02*
X69359580Y-90309523D01*
X69359580Y-90309523D02*
X69407200Y-90357142D01*
X69407200Y-90357142D02*
X69454819Y-90452380D01*
X69454819Y-90452380D02*
X69454819Y-90547618D01*
X69454819Y-90547618D02*
X69407200Y-90642856D01*
X69407200Y-90642856D02*
X69359580Y-90690475D01*
X69359580Y-90690475D02*
X69264342Y-90738094D01*
X69264342Y-90738094D02*
X69073866Y-90785713D01*
X69073866Y-90785713D02*
X68835771Y-90785713D01*
X68835771Y-90785713D02*
X68645295Y-90738094D01*
X68645295Y-90738094D02*
X68550057Y-90690475D01*
X68550057Y-90690475D02*
X68502438Y-90642856D01*
X68502438Y-90642856D02*
X68454819Y-90547618D01*
X28666666Y-110954819D02*
X28666666Y-111669104D01*
X28666666Y-111669104D02*
X28619047Y-111811961D01*
X28619047Y-111811961D02*
X28523809Y-111907200D01*
X28523809Y-111907200D02*
X28380952Y-111954819D01*
X28380952Y-111954819D02*
X28285714Y-111954819D01*
X29666666Y-111954819D02*
X29095238Y-111954819D01*
X29380952Y-111954819D02*
X29380952Y-110954819D01*
X29380952Y-110954819D02*
X29285714Y-111097676D01*
X29285714Y-111097676D02*
X29190476Y-111192914D01*
X29190476Y-111192914D02*
X29095238Y-111240533D01*
X65237270Y-8954468D02*
X65809072Y-8954468D01*
X65523171Y-9955122D02*
X65523171Y-8954468D01*
X66476175Y-9430970D02*
X66619125Y-9478620D01*
X66619125Y-9478620D02*
X66666776Y-9526270D01*
X66666776Y-9526270D02*
X66714426Y-9621570D01*
X66714426Y-9621570D02*
X66714426Y-9764521D01*
X66714426Y-9764521D02*
X66666776Y-9859821D01*
X66666776Y-9859821D02*
X66619125Y-9907472D01*
X66619125Y-9907472D02*
X66523825Y-9955122D01*
X66523825Y-9955122D02*
X66142623Y-9955122D01*
X66142623Y-9955122D02*
X66142623Y-8954468D01*
X66142623Y-8954468D02*
X66476175Y-8954468D01*
X66476175Y-8954468D02*
X66571475Y-9002118D01*
X66571475Y-9002118D02*
X66619125Y-9049768D01*
X66619125Y-9049768D02*
X66666776Y-9145068D01*
X66666776Y-9145068D02*
X66666776Y-9240369D01*
X66666776Y-9240369D02*
X66619125Y-9335669D01*
X66619125Y-9335669D02*
X66571475Y-9383319D01*
X66571475Y-9383319D02*
X66476175Y-9430970D01*
X66476175Y-9430970D02*
X66142623Y-9430970D01*
X67667430Y-9955122D02*
X67095627Y-9955122D01*
X67381528Y-9955122D02*
X67381528Y-8954468D01*
X67381528Y-8954468D02*
X67286228Y-9097418D01*
X67286228Y-9097418D02*
X67190928Y-9192719D01*
X67190928Y-9192719D02*
X67095627Y-9240369D01*
X75133942Y-52874819D02*
X74800609Y-52398628D01*
X74562514Y-52874819D02*
X74562514Y-51874819D01*
X74562514Y-51874819D02*
X74943466Y-51874819D01*
X74943466Y-51874819D02*
X75038704Y-51922438D01*
X75038704Y-51922438D02*
X75086323Y-51970057D01*
X75086323Y-51970057D02*
X75133942Y-52065295D01*
X75133942Y-52065295D02*
X75133942Y-52208152D01*
X75133942Y-52208152D02*
X75086323Y-52303390D01*
X75086323Y-52303390D02*
X75038704Y-52351009D01*
X75038704Y-52351009D02*
X74943466Y-52398628D01*
X74943466Y-52398628D02*
X74562514Y-52398628D01*
X76086323Y-52874819D02*
X75514895Y-52874819D01*
X75800609Y-52874819D02*
X75800609Y-51874819D01*
X75800609Y-51874819D02*
X75705371Y-52017676D01*
X75705371Y-52017676D02*
X75610133Y-52112914D01*
X75610133Y-52112914D02*
X75514895Y-52160533D01*
X76943466Y-52208152D02*
X76943466Y-52874819D01*
X76705371Y-51827200D02*
X76467276Y-52541485D01*
X76467276Y-52541485D02*
X77086323Y-52541485D01*
X3738095Y-107204819D02*
X3738095Y-106204819D01*
X3738095Y-106681009D02*
X4309523Y-106681009D01*
X4309523Y-107204819D02*
X4309523Y-106204819D01*
X4738095Y-106300057D02*
X4785714Y-106252438D01*
X4785714Y-106252438D02*
X4880952Y-106204819D01*
X4880952Y-106204819D02*
X5119047Y-106204819D01*
X5119047Y-106204819D02*
X5214285Y-106252438D01*
X5214285Y-106252438D02*
X5261904Y-106300057D01*
X5261904Y-106300057D02*
X5309523Y-106395295D01*
X5309523Y-106395295D02*
X5309523Y-106490533D01*
X5309523Y-106490533D02*
X5261904Y-106633390D01*
X5261904Y-106633390D02*
X4690476Y-107204819D01*
X4690476Y-107204819D02*
X5309523Y-107204819D01*
X75133942Y-56624819D02*
X74800609Y-56148628D01*
X74562514Y-56624819D02*
X74562514Y-55624819D01*
X74562514Y-55624819D02*
X74943466Y-55624819D01*
X74943466Y-55624819D02*
X75038704Y-55672438D01*
X75038704Y-55672438D02*
X75086323Y-55720057D01*
X75086323Y-55720057D02*
X75133942Y-55815295D01*
X75133942Y-55815295D02*
X75133942Y-55958152D01*
X75133942Y-55958152D02*
X75086323Y-56053390D01*
X75086323Y-56053390D02*
X75038704Y-56101009D01*
X75038704Y-56101009D02*
X74943466Y-56148628D01*
X74943466Y-56148628D02*
X74562514Y-56148628D01*
X76086323Y-56624819D02*
X75514895Y-56624819D01*
X75800609Y-56624819D02*
X75800609Y-55624819D01*
X75800609Y-55624819D02*
X75705371Y-55767676D01*
X75705371Y-55767676D02*
X75610133Y-55862914D01*
X75610133Y-55862914D02*
X75514895Y-55910533D01*
X76419657Y-55624819D02*
X77086323Y-55624819D01*
X77086323Y-55624819D02*
X76657752Y-56624819D01*
X78916666Y-107454819D02*
X78916666Y-108169104D01*
X78916666Y-108169104D02*
X78869047Y-108311961D01*
X78869047Y-108311961D02*
X78773809Y-108407200D01*
X78773809Y-108407200D02*
X78630952Y-108454819D01*
X78630952Y-108454819D02*
X78535714Y-108454819D01*
X79535714Y-107883390D02*
X79440476Y-107835771D01*
X79440476Y-107835771D02*
X79392857Y-107788152D01*
X79392857Y-107788152D02*
X79345238Y-107692914D01*
X79345238Y-107692914D02*
X79345238Y-107645295D01*
X79345238Y-107645295D02*
X79392857Y-107550057D01*
X79392857Y-107550057D02*
X79440476Y-107502438D01*
X79440476Y-107502438D02*
X79535714Y-107454819D01*
X79535714Y-107454819D02*
X79726190Y-107454819D01*
X79726190Y-107454819D02*
X79821428Y-107502438D01*
X79821428Y-107502438D02*
X79869047Y-107550057D01*
X79869047Y-107550057D02*
X79916666Y-107645295D01*
X79916666Y-107645295D02*
X79916666Y-107692914D01*
X79916666Y-107692914D02*
X79869047Y-107788152D01*
X79869047Y-107788152D02*
X79821428Y-107835771D01*
X79821428Y-107835771D02*
X79726190Y-107883390D01*
X79726190Y-107883390D02*
X79535714Y-107883390D01*
X79535714Y-107883390D02*
X79440476Y-107931009D01*
X79440476Y-107931009D02*
X79392857Y-107978628D01*
X79392857Y-107978628D02*
X79345238Y-108073866D01*
X79345238Y-108073866D02*
X79345238Y-108264342D01*
X79345238Y-108264342D02*
X79392857Y-108359580D01*
X79392857Y-108359580D02*
X79440476Y-108407200D01*
X79440476Y-108407200D02*
X79535714Y-108454819D01*
X79535714Y-108454819D02*
X79726190Y-108454819D01*
X79726190Y-108454819D02*
X79821428Y-108407200D01*
X79821428Y-108407200D02*
X79869047Y-108359580D01*
X79869047Y-108359580D02*
X79916666Y-108264342D01*
X79916666Y-108264342D02*
X79916666Y-108073866D01*
X79916666Y-108073866D02*
X79869047Y-107978628D01*
X79869047Y-107978628D02*
X79821428Y-107931009D01*
X79821428Y-107931009D02*
X79726190Y-107883390D01*
X68850057Y-68095238D02*
X68802438Y-68190476D01*
X68802438Y-68190476D02*
X68707200Y-68285714D01*
X68707200Y-68285714D02*
X68564342Y-68428571D01*
X68564342Y-68428571D02*
X68516723Y-68523809D01*
X68516723Y-68523809D02*
X68516723Y-68619047D01*
X68754819Y-68571428D02*
X68707200Y-68666666D01*
X68707200Y-68666666D02*
X68611961Y-68761904D01*
X68611961Y-68761904D02*
X68421485Y-68809523D01*
X68421485Y-68809523D02*
X68088152Y-68809523D01*
X68088152Y-68809523D02*
X67897676Y-68761904D01*
X67897676Y-68761904D02*
X67802438Y-68666666D01*
X67802438Y-68666666D02*
X67754819Y-68571428D01*
X67754819Y-68571428D02*
X67754819Y-68380952D01*
X67754819Y-68380952D02*
X67802438Y-68285714D01*
X67802438Y-68285714D02*
X67897676Y-68190476D01*
X67897676Y-68190476D02*
X68088152Y-68142857D01*
X68088152Y-68142857D02*
X68421485Y-68142857D01*
X68421485Y-68142857D02*
X68611961Y-68190476D01*
X68611961Y-68190476D02*
X68707200Y-68285714D01*
X68707200Y-68285714D02*
X68754819Y-68380952D01*
X68754819Y-68380952D02*
X68754819Y-68571428D01*
X67754819Y-67285714D02*
X67754819Y-67476190D01*
X67754819Y-67476190D02*
X67802438Y-67571428D01*
X67802438Y-67571428D02*
X67850057Y-67619047D01*
X67850057Y-67619047D02*
X67992914Y-67714285D01*
X67992914Y-67714285D02*
X68183390Y-67761904D01*
X68183390Y-67761904D02*
X68564342Y-67761904D01*
X68564342Y-67761904D02*
X68659580Y-67714285D01*
X68659580Y-67714285D02*
X68707200Y-67666666D01*
X68707200Y-67666666D02*
X68754819Y-67571428D01*
X68754819Y-67571428D02*
X68754819Y-67380952D01*
X68754819Y-67380952D02*
X68707200Y-67285714D01*
X68707200Y-67285714D02*
X68659580Y-67238095D01*
X68659580Y-67238095D02*
X68564342Y-67190476D01*
X68564342Y-67190476D02*
X68326247Y-67190476D01*
X68326247Y-67190476D02*
X68231009Y-67238095D01*
X68231009Y-67238095D02*
X68183390Y-67285714D01*
X68183390Y-67285714D02*
X68135771Y-67380952D01*
X68135771Y-67380952D02*
X68135771Y-67571428D01*
X68135771Y-67571428D02*
X68183390Y-67666666D01*
X68183390Y-67666666D02*
X68231009Y-67714285D01*
X68231009Y-67714285D02*
X68326247Y-67761904D01*
X22916666Y-8954819D02*
X22916666Y-9669104D01*
X22916666Y-9669104D02*
X22869047Y-9811961D01*
X22869047Y-9811961D02*
X22773809Y-9907200D01*
X22773809Y-9907200D02*
X22630952Y-9954819D01*
X22630952Y-9954819D02*
X22535714Y-9954819D01*
X23821428Y-9288152D02*
X23821428Y-9954819D01*
X23583333Y-8907200D02*
X23345238Y-9621485D01*
X23345238Y-9621485D02*
X23964285Y-9621485D01*
X75283942Y-83124819D02*
X74950609Y-82648628D01*
X74712514Y-83124819D02*
X74712514Y-82124819D01*
X74712514Y-82124819D02*
X75093466Y-82124819D01*
X75093466Y-82124819D02*
X75188704Y-82172438D01*
X75188704Y-82172438D02*
X75236323Y-82220057D01*
X75236323Y-82220057D02*
X75283942Y-82315295D01*
X75283942Y-82315295D02*
X75283942Y-82458152D01*
X75283942Y-82458152D02*
X75236323Y-82553390D01*
X75236323Y-82553390D02*
X75188704Y-82601009D01*
X75188704Y-82601009D02*
X75093466Y-82648628D01*
X75093466Y-82648628D02*
X74712514Y-82648628D01*
X75664895Y-82220057D02*
X75712514Y-82172438D01*
X75712514Y-82172438D02*
X75807752Y-82124819D01*
X75807752Y-82124819D02*
X76045847Y-82124819D01*
X76045847Y-82124819D02*
X76141085Y-82172438D01*
X76141085Y-82172438D02*
X76188704Y-82220057D01*
X76188704Y-82220057D02*
X76236323Y-82315295D01*
X76236323Y-82315295D02*
X76236323Y-82410533D01*
X76236323Y-82410533D02*
X76188704Y-82553390D01*
X76188704Y-82553390D02*
X75617276Y-83124819D01*
X75617276Y-83124819D02*
X76236323Y-83124819D01*
X76617276Y-82220057D02*
X76664895Y-82172438D01*
X76664895Y-82172438D02*
X76760133Y-82124819D01*
X76760133Y-82124819D02*
X76998228Y-82124819D01*
X76998228Y-82124819D02*
X77093466Y-82172438D01*
X77093466Y-82172438D02*
X77141085Y-82220057D01*
X77141085Y-82220057D02*
X77188704Y-82315295D01*
X77188704Y-82315295D02*
X77188704Y-82410533D01*
X77188704Y-82410533D02*
X77141085Y-82553390D01*
X77141085Y-82553390D02*
X76569657Y-83124819D01*
X76569657Y-83124819D02*
X77188704Y-83124819D01*
X82690476Y-65654819D02*
X82690476Y-66369104D01*
X82690476Y-66369104D02*
X82642857Y-66511961D01*
X82642857Y-66511961D02*
X82547619Y-66607200D01*
X82547619Y-66607200D02*
X82404762Y-66654819D01*
X82404762Y-66654819D02*
X82309524Y-66654819D01*
X83690476Y-66654819D02*
X83119048Y-66654819D01*
X83404762Y-66654819D02*
X83404762Y-65654819D01*
X83404762Y-65654819D02*
X83309524Y-65797676D01*
X83309524Y-65797676D02*
X83214286Y-65892914D01*
X83214286Y-65892914D02*
X83119048Y-65940533D01*
X84309524Y-65654819D02*
X84404762Y-65654819D01*
X84404762Y-65654819D02*
X84500000Y-65702438D01*
X84500000Y-65702438D02*
X84547619Y-65750057D01*
X84547619Y-65750057D02*
X84595238Y-65845295D01*
X84595238Y-65845295D02*
X84642857Y-66035771D01*
X84642857Y-66035771D02*
X84642857Y-66273866D01*
X84642857Y-66273866D02*
X84595238Y-66464342D01*
X84595238Y-66464342D02*
X84547619Y-66559580D01*
X84547619Y-66559580D02*
X84500000Y-66607200D01*
X84500000Y-66607200D02*
X84404762Y-66654819D01*
X84404762Y-66654819D02*
X84309524Y-66654819D01*
X84309524Y-66654819D02*
X84214286Y-66607200D01*
X84214286Y-66607200D02*
X84166667Y-66559580D01*
X84166667Y-66559580D02*
X84119048Y-66464342D01*
X84119048Y-66464342D02*
X84071429Y-66273866D01*
X84071429Y-66273866D02*
X84071429Y-66035771D01*
X84071429Y-66035771D02*
X84119048Y-65845295D01*
X84119048Y-65845295D02*
X84166667Y-65750057D01*
X84166667Y-65750057D02*
X84214286Y-65702438D01*
X84214286Y-65702438D02*
X84309524Y-65654819D01*
X77165714Y-50809104D02*
X77641904Y-50809104D01*
X77070476Y-51094819D02*
X77403809Y-50094819D01*
X77403809Y-50094819D02*
X77737142Y-51094819D01*
X78594285Y-51094819D02*
X78022857Y-51094819D01*
X78308571Y-51094819D02*
X78308571Y-50094819D01*
X78308571Y-50094819D02*
X78213333Y-50237676D01*
X78213333Y-50237676D02*
X78118095Y-50332914D01*
X78118095Y-50332914D02*
X78022857Y-50380533D01*
X79141904Y-10545180D02*
X79141904Y-9735657D01*
X79141904Y-9735657D02*
X79094285Y-9640419D01*
X79094285Y-9640419D02*
X79046666Y-9592800D01*
X79046666Y-9592800D02*
X78951428Y-9545180D01*
X78951428Y-9545180D02*
X78760952Y-9545180D01*
X78760952Y-9545180D02*
X78665714Y-9592800D01*
X78665714Y-9592800D02*
X78618095Y-9640419D01*
X78618095Y-9640419D02*
X78570476Y-9735657D01*
X78570476Y-9735657D02*
X78570476Y-10545180D01*
X78141904Y-9592800D02*
X77999047Y-9545180D01*
X77999047Y-9545180D02*
X77760952Y-9545180D01*
X77760952Y-9545180D02*
X77665714Y-9592800D01*
X77665714Y-9592800D02*
X77618095Y-9640419D01*
X77618095Y-9640419D02*
X77570476Y-9735657D01*
X77570476Y-9735657D02*
X77570476Y-9830895D01*
X77570476Y-9830895D02*
X77618095Y-9926133D01*
X77618095Y-9926133D02*
X77665714Y-9973752D01*
X77665714Y-9973752D02*
X77760952Y-10021371D01*
X77760952Y-10021371D02*
X77951428Y-10068990D01*
X77951428Y-10068990D02*
X78046666Y-10116609D01*
X78046666Y-10116609D02*
X78094285Y-10164228D01*
X78094285Y-10164228D02*
X78141904Y-10259466D01*
X78141904Y-10259466D02*
X78141904Y-10354704D01*
X78141904Y-10354704D02*
X78094285Y-10449942D01*
X78094285Y-10449942D02*
X78046666Y-10497561D01*
X78046666Y-10497561D02*
X77951428Y-10545180D01*
X77951428Y-10545180D02*
X77713333Y-10545180D01*
X77713333Y-10545180D02*
X77570476Y-10497561D01*
X76808571Y-10068990D02*
X76665714Y-10021371D01*
X76665714Y-10021371D02*
X76618095Y-9973752D01*
X76618095Y-9973752D02*
X76570476Y-9878514D01*
X76570476Y-9878514D02*
X76570476Y-9735657D01*
X76570476Y-9735657D02*
X76618095Y-9640419D01*
X76618095Y-9640419D02*
X76665714Y-9592800D01*
X76665714Y-9592800D02*
X76760952Y-9545180D01*
X76760952Y-9545180D02*
X77141904Y-9545180D01*
X77141904Y-9545180D02*
X77141904Y-10545180D01*
X77141904Y-10545180D02*
X76808571Y-10545180D01*
X76808571Y-10545180D02*
X76713333Y-10497561D01*
X76713333Y-10497561D02*
X76665714Y-10449942D01*
X76665714Y-10449942D02*
X76618095Y-10354704D01*
X76618095Y-10354704D02*
X76618095Y-10259466D01*
X76618095Y-10259466D02*
X76665714Y-10164228D01*
X76665714Y-10164228D02*
X76713333Y-10116609D01*
X76713333Y-10116609D02*
X76808571Y-10068990D01*
X76808571Y-10068990D02*
X77141904Y-10068990D01*
X75133942Y-71374819D02*
X74800609Y-70898628D01*
X74562514Y-71374819D02*
X74562514Y-70374819D01*
X74562514Y-70374819D02*
X74943466Y-70374819D01*
X74943466Y-70374819D02*
X75038704Y-70422438D01*
X75038704Y-70422438D02*
X75086323Y-70470057D01*
X75086323Y-70470057D02*
X75133942Y-70565295D01*
X75133942Y-70565295D02*
X75133942Y-70708152D01*
X75133942Y-70708152D02*
X75086323Y-70803390D01*
X75086323Y-70803390D02*
X75038704Y-70851009D01*
X75038704Y-70851009D02*
X74943466Y-70898628D01*
X74943466Y-70898628D02*
X74562514Y-70898628D01*
X76086323Y-71374819D02*
X75514895Y-71374819D01*
X75800609Y-71374819D02*
X75800609Y-70374819D01*
X75800609Y-70374819D02*
X75705371Y-70517676D01*
X75705371Y-70517676D02*
X75610133Y-70612914D01*
X75610133Y-70612914D02*
X75514895Y-70660533D01*
X76562514Y-71374819D02*
X76752990Y-71374819D01*
X76752990Y-71374819D02*
X76848228Y-71327200D01*
X76848228Y-71327200D02*
X76895847Y-71279580D01*
X76895847Y-71279580D02*
X76991085Y-71136723D01*
X76991085Y-71136723D02*
X77038704Y-70946247D01*
X77038704Y-70946247D02*
X77038704Y-70565295D01*
X77038704Y-70565295D02*
X76991085Y-70470057D01*
X76991085Y-70470057D02*
X76943466Y-70422438D01*
X76943466Y-70422438D02*
X76848228Y-70374819D01*
X76848228Y-70374819D02*
X76657752Y-70374819D01*
X76657752Y-70374819D02*
X76562514Y-70422438D01*
X76562514Y-70422438D02*
X76514895Y-70470057D01*
X76514895Y-70470057D02*
X76467276Y-70565295D01*
X76467276Y-70565295D02*
X76467276Y-70803390D01*
X76467276Y-70803390D02*
X76514895Y-70898628D01*
X76514895Y-70898628D02*
X76562514Y-70946247D01*
X76562514Y-70946247D02*
X76657752Y-70993866D01*
X76657752Y-70993866D02*
X76848228Y-70993866D01*
X76848228Y-70993866D02*
X76943466Y-70946247D01*
X76943466Y-70946247D02*
X76991085Y-70898628D01*
X76991085Y-70898628D02*
X77038704Y-70803390D01*
X49916666Y-111204819D02*
X49916666Y-111919104D01*
X49916666Y-111919104D02*
X49869047Y-112061961D01*
X49869047Y-112061961D02*
X49773809Y-112157200D01*
X49773809Y-112157200D02*
X49630952Y-112204819D01*
X49630952Y-112204819D02*
X49535714Y-112204819D01*
X50345238Y-111300057D02*
X50392857Y-111252438D01*
X50392857Y-111252438D02*
X50488095Y-111204819D01*
X50488095Y-111204819D02*
X50726190Y-111204819D01*
X50726190Y-111204819D02*
X50821428Y-111252438D01*
X50821428Y-111252438D02*
X50869047Y-111300057D01*
X50869047Y-111300057D02*
X50916666Y-111395295D01*
X50916666Y-111395295D02*
X50916666Y-111490533D01*
X50916666Y-111490533D02*
X50869047Y-111633390D01*
X50869047Y-111633390D02*
X50297619Y-112204819D01*
X50297619Y-112204819D02*
X50916666Y-112204819D01*
X68850057Y-75595238D02*
X68802438Y-75690476D01*
X68802438Y-75690476D02*
X68707200Y-75785714D01*
X68707200Y-75785714D02*
X68564342Y-75928571D01*
X68564342Y-75928571D02*
X68516723Y-76023809D01*
X68516723Y-76023809D02*
X68516723Y-76119047D01*
X68754819Y-76071428D02*
X68707200Y-76166666D01*
X68707200Y-76166666D02*
X68611961Y-76261904D01*
X68611961Y-76261904D02*
X68421485Y-76309523D01*
X68421485Y-76309523D02*
X68088152Y-76309523D01*
X68088152Y-76309523D02*
X67897676Y-76261904D01*
X67897676Y-76261904D02*
X67802438Y-76166666D01*
X67802438Y-76166666D02*
X67754819Y-76071428D01*
X67754819Y-76071428D02*
X67754819Y-75880952D01*
X67754819Y-75880952D02*
X67802438Y-75785714D01*
X67802438Y-75785714D02*
X67897676Y-75690476D01*
X67897676Y-75690476D02*
X68088152Y-75642857D01*
X68088152Y-75642857D02*
X68421485Y-75642857D01*
X68421485Y-75642857D02*
X68611961Y-75690476D01*
X68611961Y-75690476D02*
X68707200Y-75785714D01*
X68707200Y-75785714D02*
X68754819Y-75880952D01*
X68754819Y-75880952D02*
X68754819Y-76071428D01*
X68754819Y-75166666D02*
X68754819Y-74976190D01*
X68754819Y-74976190D02*
X68707200Y-74880952D01*
X68707200Y-74880952D02*
X68659580Y-74833333D01*
X68659580Y-74833333D02*
X68516723Y-74738095D01*
X68516723Y-74738095D02*
X68326247Y-74690476D01*
X68326247Y-74690476D02*
X67945295Y-74690476D01*
X67945295Y-74690476D02*
X67850057Y-74738095D01*
X67850057Y-74738095D02*
X67802438Y-74785714D01*
X67802438Y-74785714D02*
X67754819Y-74880952D01*
X67754819Y-74880952D02*
X67754819Y-75071428D01*
X67754819Y-75071428D02*
X67802438Y-75166666D01*
X67802438Y-75166666D02*
X67850057Y-75214285D01*
X67850057Y-75214285D02*
X67945295Y-75261904D01*
X67945295Y-75261904D02*
X68183390Y-75261904D01*
X68183390Y-75261904D02*
X68278628Y-75214285D01*
X68278628Y-75214285D02*
X68326247Y-75166666D01*
X68326247Y-75166666D02*
X68373866Y-75071428D01*
X68373866Y-75071428D02*
X68373866Y-74880952D01*
X68373866Y-74880952D02*
X68326247Y-74785714D01*
X68326247Y-74785714D02*
X68278628Y-74738095D01*
X68278628Y-74738095D02*
X68183390Y-74690476D01*
X75133942Y-79374819D02*
X74800609Y-78898628D01*
X74562514Y-79374819D02*
X74562514Y-78374819D01*
X74562514Y-78374819D02*
X74943466Y-78374819D01*
X74943466Y-78374819D02*
X75038704Y-78422438D01*
X75038704Y-78422438D02*
X75086323Y-78470057D01*
X75086323Y-78470057D02*
X75133942Y-78565295D01*
X75133942Y-78565295D02*
X75133942Y-78708152D01*
X75133942Y-78708152D02*
X75086323Y-78803390D01*
X75086323Y-78803390D02*
X75038704Y-78851009D01*
X75038704Y-78851009D02*
X74943466Y-78898628D01*
X74943466Y-78898628D02*
X74562514Y-78898628D01*
X75514895Y-78470057D02*
X75562514Y-78422438D01*
X75562514Y-78422438D02*
X75657752Y-78374819D01*
X75657752Y-78374819D02*
X75895847Y-78374819D01*
X75895847Y-78374819D02*
X75991085Y-78422438D01*
X75991085Y-78422438D02*
X76038704Y-78470057D01*
X76038704Y-78470057D02*
X76086323Y-78565295D01*
X76086323Y-78565295D02*
X76086323Y-78660533D01*
X76086323Y-78660533D02*
X76038704Y-78803390D01*
X76038704Y-78803390D02*
X75467276Y-79374819D01*
X75467276Y-79374819D02*
X76086323Y-79374819D01*
X77038704Y-79374819D02*
X76467276Y-79374819D01*
X76752990Y-79374819D02*
X76752990Y-78374819D01*
X76752990Y-78374819D02*
X76657752Y-78517676D01*
X76657752Y-78517676D02*
X76562514Y-78612914D01*
X76562514Y-78612914D02*
X76467276Y-78660533D01*
X75133942Y-75374819D02*
X74800609Y-74898628D01*
X74562514Y-75374819D02*
X74562514Y-74374819D01*
X74562514Y-74374819D02*
X74943466Y-74374819D01*
X74943466Y-74374819D02*
X75038704Y-74422438D01*
X75038704Y-74422438D02*
X75086323Y-74470057D01*
X75086323Y-74470057D02*
X75133942Y-74565295D01*
X75133942Y-74565295D02*
X75133942Y-74708152D01*
X75133942Y-74708152D02*
X75086323Y-74803390D01*
X75086323Y-74803390D02*
X75038704Y-74851009D01*
X75038704Y-74851009D02*
X74943466Y-74898628D01*
X74943466Y-74898628D02*
X74562514Y-74898628D01*
X75514895Y-74470057D02*
X75562514Y-74422438D01*
X75562514Y-74422438D02*
X75657752Y-74374819D01*
X75657752Y-74374819D02*
X75895847Y-74374819D01*
X75895847Y-74374819D02*
X75991085Y-74422438D01*
X75991085Y-74422438D02*
X76038704Y-74470057D01*
X76038704Y-74470057D02*
X76086323Y-74565295D01*
X76086323Y-74565295D02*
X76086323Y-74660533D01*
X76086323Y-74660533D02*
X76038704Y-74803390D01*
X76038704Y-74803390D02*
X75467276Y-75374819D01*
X75467276Y-75374819D02*
X76086323Y-75374819D01*
X76705371Y-74374819D02*
X76800609Y-74374819D01*
X76800609Y-74374819D02*
X76895847Y-74422438D01*
X76895847Y-74422438D02*
X76943466Y-74470057D01*
X76943466Y-74470057D02*
X76991085Y-74565295D01*
X76991085Y-74565295D02*
X77038704Y-74755771D01*
X77038704Y-74755771D02*
X77038704Y-74993866D01*
X77038704Y-74993866D02*
X76991085Y-75184342D01*
X76991085Y-75184342D02*
X76943466Y-75279580D01*
X76943466Y-75279580D02*
X76895847Y-75327200D01*
X76895847Y-75327200D02*
X76800609Y-75374819D01*
X76800609Y-75374819D02*
X76705371Y-75374819D01*
X76705371Y-75374819D02*
X76610133Y-75327200D01*
X76610133Y-75327200D02*
X76562514Y-75279580D01*
X76562514Y-75279580D02*
X76514895Y-75184342D01*
X76514895Y-75184342D02*
X76467276Y-74993866D01*
X76467276Y-74993866D02*
X76467276Y-74755771D01*
X76467276Y-74755771D02*
X76514895Y-74565295D01*
X76514895Y-74565295D02*
X76562514Y-74470057D01*
X76562514Y-74470057D02*
X76610133Y-74422438D01*
X76610133Y-74422438D02*
X76705371Y-74374819D01*
X62654819Y-6833333D02*
X63369104Y-6833333D01*
X63369104Y-6833333D02*
X63511961Y-6880952D01*
X63511961Y-6880952D02*
X63607200Y-6976190D01*
X63607200Y-6976190D02*
X63654819Y-7119047D01*
X63654819Y-7119047D02*
X63654819Y-7214285D01*
X62654819Y-5928571D02*
X62654819Y-6119047D01*
X62654819Y-6119047D02*
X62702438Y-6214285D01*
X62702438Y-6214285D02*
X62750057Y-6261904D01*
X62750057Y-6261904D02*
X62892914Y-6357142D01*
X62892914Y-6357142D02*
X63083390Y-6404761D01*
X63083390Y-6404761D02*
X63464342Y-6404761D01*
X63464342Y-6404761D02*
X63559580Y-6357142D01*
X63559580Y-6357142D02*
X63607200Y-6309523D01*
X63607200Y-6309523D02*
X63654819Y-6214285D01*
X63654819Y-6214285D02*
X63654819Y-6023809D01*
X63654819Y-6023809D02*
X63607200Y-5928571D01*
X63607200Y-5928571D02*
X63559580Y-5880952D01*
X63559580Y-5880952D02*
X63464342Y-5833333D01*
X63464342Y-5833333D02*
X63226247Y-5833333D01*
X63226247Y-5833333D02*
X63131009Y-5880952D01*
X63131009Y-5880952D02*
X63083390Y-5928571D01*
X63083390Y-5928571D02*
X63035771Y-6023809D01*
X63035771Y-6023809D02*
X63035771Y-6214285D01*
X63035771Y-6214285D02*
X63083390Y-6309523D01*
X63083390Y-6309523D02*
X63131009Y-6357142D01*
X63131009Y-6357142D02*
X63226247Y-6404761D01*
X83738095Y-107204819D02*
X83738095Y-106204819D01*
X83738095Y-106681009D02*
X84309523Y-106681009D01*
X84309523Y-107204819D02*
X84309523Y-106204819D01*
X84690476Y-106204819D02*
X85309523Y-106204819D01*
X85309523Y-106204819D02*
X84976190Y-106585771D01*
X84976190Y-106585771D02*
X85119047Y-106585771D01*
X85119047Y-106585771D02*
X85214285Y-106633390D01*
X85214285Y-106633390D02*
X85261904Y-106681009D01*
X85261904Y-106681009D02*
X85309523Y-106776247D01*
X85309523Y-106776247D02*
X85309523Y-107014342D01*
X85309523Y-107014342D02*
X85261904Y-107109580D01*
X85261904Y-107109580D02*
X85214285Y-107157200D01*
X85214285Y-107157200D02*
X85119047Y-107204819D01*
X85119047Y-107204819D02*
X84833333Y-107204819D01*
X84833333Y-107204819D02*
X84738095Y-107157200D01*
X84738095Y-107157200D02*
X84690476Y-107109580D01*
X68850057Y-60595238D02*
X68802438Y-60690476D01*
X68802438Y-60690476D02*
X68707200Y-60785714D01*
X68707200Y-60785714D02*
X68564342Y-60928571D01*
X68564342Y-60928571D02*
X68516723Y-61023809D01*
X68516723Y-61023809D02*
X68516723Y-61119047D01*
X68754819Y-61071428D02*
X68707200Y-61166666D01*
X68707200Y-61166666D02*
X68611961Y-61261904D01*
X68611961Y-61261904D02*
X68421485Y-61309523D01*
X68421485Y-61309523D02*
X68088152Y-61309523D01*
X68088152Y-61309523D02*
X67897676Y-61261904D01*
X67897676Y-61261904D02*
X67802438Y-61166666D01*
X67802438Y-61166666D02*
X67754819Y-61071428D01*
X67754819Y-61071428D02*
X67754819Y-60880952D01*
X67754819Y-60880952D02*
X67802438Y-60785714D01*
X67802438Y-60785714D02*
X67897676Y-60690476D01*
X67897676Y-60690476D02*
X68088152Y-60642857D01*
X68088152Y-60642857D02*
X68421485Y-60642857D01*
X68421485Y-60642857D02*
X68611961Y-60690476D01*
X68611961Y-60690476D02*
X68707200Y-60785714D01*
X68707200Y-60785714D02*
X68754819Y-60880952D01*
X68754819Y-60880952D02*
X68754819Y-61071428D01*
X67754819Y-60309523D02*
X67754819Y-59642857D01*
X67754819Y-59642857D02*
X68754819Y-60071428D01*
X70416666Y-111454819D02*
X70416666Y-112169104D01*
X70416666Y-112169104D02*
X70369047Y-112311961D01*
X70369047Y-112311961D02*
X70273809Y-112407200D01*
X70273809Y-112407200D02*
X70130952Y-112454819D01*
X70130952Y-112454819D02*
X70035714Y-112454819D01*
X70797619Y-111454819D02*
X71416666Y-111454819D01*
X71416666Y-111454819D02*
X71083333Y-111835771D01*
X71083333Y-111835771D02*
X71226190Y-111835771D01*
X71226190Y-111835771D02*
X71321428Y-111883390D01*
X71321428Y-111883390D02*
X71369047Y-111931009D01*
X71369047Y-111931009D02*
X71416666Y-112026247D01*
X71416666Y-112026247D02*
X71416666Y-112264342D01*
X71416666Y-112264342D02*
X71369047Y-112359580D01*
X71369047Y-112359580D02*
X71321428Y-112407200D01*
X71321428Y-112407200D02*
X71226190Y-112454819D01*
X71226190Y-112454819D02*
X70940476Y-112454819D01*
X70940476Y-112454819D02*
X70845238Y-112407200D01*
X70845238Y-112407200D02*
X70797619Y-112359580D01*
X75283942Y-87124819D02*
X74950609Y-86648628D01*
X74712514Y-87124819D02*
X74712514Y-86124819D01*
X74712514Y-86124819D02*
X75093466Y-86124819D01*
X75093466Y-86124819D02*
X75188704Y-86172438D01*
X75188704Y-86172438D02*
X75236323Y-86220057D01*
X75236323Y-86220057D02*
X75283942Y-86315295D01*
X75283942Y-86315295D02*
X75283942Y-86458152D01*
X75283942Y-86458152D02*
X75236323Y-86553390D01*
X75236323Y-86553390D02*
X75188704Y-86601009D01*
X75188704Y-86601009D02*
X75093466Y-86648628D01*
X75093466Y-86648628D02*
X74712514Y-86648628D01*
X75664895Y-86220057D02*
X75712514Y-86172438D01*
X75712514Y-86172438D02*
X75807752Y-86124819D01*
X75807752Y-86124819D02*
X76045847Y-86124819D01*
X76045847Y-86124819D02*
X76141085Y-86172438D01*
X76141085Y-86172438D02*
X76188704Y-86220057D01*
X76188704Y-86220057D02*
X76236323Y-86315295D01*
X76236323Y-86315295D02*
X76236323Y-86410533D01*
X76236323Y-86410533D02*
X76188704Y-86553390D01*
X76188704Y-86553390D02*
X75617276Y-87124819D01*
X75617276Y-87124819D02*
X76236323Y-87124819D01*
X76569657Y-86124819D02*
X77188704Y-86124819D01*
X77188704Y-86124819D02*
X76855371Y-86505771D01*
X76855371Y-86505771D02*
X76998228Y-86505771D01*
X76998228Y-86505771D02*
X77093466Y-86553390D01*
X77093466Y-86553390D02*
X77141085Y-86601009D01*
X77141085Y-86601009D02*
X77188704Y-86696247D01*
X77188704Y-86696247D02*
X77188704Y-86934342D01*
X77188704Y-86934342D02*
X77141085Y-87029580D01*
X77141085Y-87029580D02*
X77093466Y-87077200D01*
X77093466Y-87077200D02*
X76998228Y-87124819D01*
X76998228Y-87124819D02*
X76712514Y-87124819D01*
X76712514Y-87124819D02*
X76617276Y-87077200D01*
X76617276Y-87077200D02*
X76569657Y-87029580D01*
X83166666Y-97654819D02*
X83166666Y-98369104D01*
X83166666Y-98369104D02*
X83119047Y-98511961D01*
X83119047Y-98511961D02*
X83023809Y-98607200D01*
X83023809Y-98607200D02*
X82880952Y-98654819D01*
X82880952Y-98654819D02*
X82785714Y-98654819D01*
X83547619Y-97654819D02*
X84214285Y-97654819D01*
X84214285Y-97654819D02*
X83785714Y-98654819D01*
X75133942Y-67624819D02*
X74800609Y-67148628D01*
X74562514Y-67624819D02*
X74562514Y-66624819D01*
X74562514Y-66624819D02*
X74943466Y-66624819D01*
X74943466Y-66624819D02*
X75038704Y-66672438D01*
X75038704Y-66672438D02*
X75086323Y-66720057D01*
X75086323Y-66720057D02*
X75133942Y-66815295D01*
X75133942Y-66815295D02*
X75133942Y-66958152D01*
X75133942Y-66958152D02*
X75086323Y-67053390D01*
X75086323Y-67053390D02*
X75038704Y-67101009D01*
X75038704Y-67101009D02*
X74943466Y-67148628D01*
X74943466Y-67148628D02*
X74562514Y-67148628D01*
X76086323Y-67624819D02*
X75514895Y-67624819D01*
X75800609Y-67624819D02*
X75800609Y-66624819D01*
X75800609Y-66624819D02*
X75705371Y-66767676D01*
X75705371Y-66767676D02*
X75610133Y-66862914D01*
X75610133Y-66862914D02*
X75514895Y-66910533D01*
X76943466Y-66624819D02*
X76752990Y-66624819D01*
X76752990Y-66624819D02*
X76657752Y-66672438D01*
X76657752Y-66672438D02*
X76610133Y-66720057D01*
X76610133Y-66720057D02*
X76514895Y-66862914D01*
X76514895Y-66862914D02*
X76467276Y-67053390D01*
X76467276Y-67053390D02*
X76467276Y-67434342D01*
X76467276Y-67434342D02*
X76514895Y-67529580D01*
X76514895Y-67529580D02*
X76562514Y-67577200D01*
X76562514Y-67577200D02*
X76657752Y-67624819D01*
X76657752Y-67624819D02*
X76848228Y-67624819D01*
X76848228Y-67624819D02*
X76943466Y-67577200D01*
X76943466Y-67577200D02*
X76991085Y-67529580D01*
X76991085Y-67529580D02*
X77038704Y-67434342D01*
X77038704Y-67434342D02*
X77038704Y-67196247D01*
X77038704Y-67196247D02*
X76991085Y-67101009D01*
X76991085Y-67101009D02*
X76943466Y-67053390D01*
X76943466Y-67053390D02*
X76848228Y-67005771D01*
X76848228Y-67005771D02*
X76657752Y-67005771D01*
X76657752Y-67005771D02*
X76562514Y-67053390D01*
X76562514Y-67053390D02*
X76514895Y-67101009D01*
X76514895Y-67101009D02*
X76467276Y-67196247D01*
X3738095Y-1704819D02*
X3738095Y-704819D01*
X3738095Y-1181009D02*
X4309523Y-1181009D01*
X4309523Y-1704819D02*
X4309523Y-704819D01*
X5309523Y-1704819D02*
X4738095Y-1704819D01*
X5023809Y-1704819D02*
X5023809Y-704819D01*
X5023809Y-704819D02*
X4928571Y-847676D01*
X4928571Y-847676D02*
X4833333Y-942914D01*
X4833333Y-942914D02*
X4738095Y-990533D01*
X75133942Y-64124819D02*
X74800609Y-63648628D01*
X74562514Y-64124819D02*
X74562514Y-63124819D01*
X74562514Y-63124819D02*
X74943466Y-63124819D01*
X74943466Y-63124819D02*
X75038704Y-63172438D01*
X75038704Y-63172438D02*
X75086323Y-63220057D01*
X75086323Y-63220057D02*
X75133942Y-63315295D01*
X75133942Y-63315295D02*
X75133942Y-63458152D01*
X75133942Y-63458152D02*
X75086323Y-63553390D01*
X75086323Y-63553390D02*
X75038704Y-63601009D01*
X75038704Y-63601009D02*
X74943466Y-63648628D01*
X74943466Y-63648628D02*
X74562514Y-63648628D01*
X76086323Y-64124819D02*
X75514895Y-64124819D01*
X75800609Y-64124819D02*
X75800609Y-63124819D01*
X75800609Y-63124819D02*
X75705371Y-63267676D01*
X75705371Y-63267676D02*
X75610133Y-63362914D01*
X75610133Y-63362914D02*
X75514895Y-63410533D01*
X76657752Y-63553390D02*
X76562514Y-63505771D01*
X76562514Y-63505771D02*
X76514895Y-63458152D01*
X76514895Y-63458152D02*
X76467276Y-63362914D01*
X76467276Y-63362914D02*
X76467276Y-63315295D01*
X76467276Y-63315295D02*
X76514895Y-63220057D01*
X76514895Y-63220057D02*
X76562514Y-63172438D01*
X76562514Y-63172438D02*
X76657752Y-63124819D01*
X76657752Y-63124819D02*
X76848228Y-63124819D01*
X76848228Y-63124819D02*
X76943466Y-63172438D01*
X76943466Y-63172438D02*
X76991085Y-63220057D01*
X76991085Y-63220057D02*
X77038704Y-63315295D01*
X77038704Y-63315295D02*
X77038704Y-63362914D01*
X77038704Y-63362914D02*
X76991085Y-63458152D01*
X76991085Y-63458152D02*
X76943466Y-63505771D01*
X76943466Y-63505771D02*
X76848228Y-63553390D01*
X76848228Y-63553390D02*
X76657752Y-63553390D01*
X76657752Y-63553390D02*
X76562514Y-63601009D01*
X76562514Y-63601009D02*
X76514895Y-63648628D01*
X76514895Y-63648628D02*
X76467276Y-63743866D01*
X76467276Y-63743866D02*
X76467276Y-63934342D01*
X76467276Y-63934342D02*
X76514895Y-64029580D01*
X76514895Y-64029580D02*
X76562514Y-64077200D01*
X76562514Y-64077200D02*
X76657752Y-64124819D01*
X76657752Y-64124819D02*
X76848228Y-64124819D01*
X76848228Y-64124819D02*
X76943466Y-64077200D01*
X76943466Y-64077200D02*
X76991085Y-64029580D01*
X76991085Y-64029580D02*
X77038704Y-63934342D01*
X77038704Y-63934342D02*
X77038704Y-63743866D01*
X77038704Y-63743866D02*
X76991085Y-63648628D01*
X76991085Y-63648628D02*
X76943466Y-63601009D01*
X76943466Y-63601009D02*
X76848228Y-63553390D01*
X69050057Y-51595238D02*
X69002438Y-51690476D01*
X69002438Y-51690476D02*
X68907200Y-51785714D01*
X68907200Y-51785714D02*
X68764342Y-51928571D01*
X68764342Y-51928571D02*
X68716723Y-52023809D01*
X68716723Y-52023809D02*
X68716723Y-52119047D01*
X68954819Y-52071428D02*
X68907200Y-52166666D01*
X68907200Y-52166666D02*
X68811961Y-52261904D01*
X68811961Y-52261904D02*
X68621485Y-52309523D01*
X68621485Y-52309523D02*
X68288152Y-52309523D01*
X68288152Y-52309523D02*
X68097676Y-52261904D01*
X68097676Y-52261904D02*
X68002438Y-52166666D01*
X68002438Y-52166666D02*
X67954819Y-52071428D01*
X67954819Y-52071428D02*
X67954819Y-51880952D01*
X67954819Y-51880952D02*
X68002438Y-51785714D01*
X68002438Y-51785714D02*
X68097676Y-51690476D01*
X68097676Y-51690476D02*
X68288152Y-51642857D01*
X68288152Y-51642857D02*
X68621485Y-51642857D01*
X68621485Y-51642857D02*
X68811961Y-51690476D01*
X68811961Y-51690476D02*
X68907200Y-51785714D01*
X68907200Y-51785714D02*
X68954819Y-51880952D01*
X68954819Y-51880952D02*
X68954819Y-52071428D01*
X68383390Y-51071428D02*
X68335771Y-51166666D01*
X68335771Y-51166666D02*
X68288152Y-51214285D01*
X68288152Y-51214285D02*
X68192914Y-51261904D01*
X68192914Y-51261904D02*
X68145295Y-51261904D01*
X68145295Y-51261904D02*
X68050057Y-51214285D01*
X68050057Y-51214285D02*
X68002438Y-51166666D01*
X68002438Y-51166666D02*
X67954819Y-51071428D01*
X67954819Y-51071428D02*
X67954819Y-50880952D01*
X67954819Y-50880952D02*
X68002438Y-50785714D01*
X68002438Y-50785714D02*
X68050057Y-50738095D01*
X68050057Y-50738095D02*
X68145295Y-50690476D01*
X68145295Y-50690476D02*
X68192914Y-50690476D01*
X68192914Y-50690476D02*
X68288152Y-50738095D01*
X68288152Y-50738095D02*
X68335771Y-50785714D01*
X68335771Y-50785714D02*
X68383390Y-50880952D01*
X68383390Y-50880952D02*
X68383390Y-51071428D01*
X68383390Y-51071428D02*
X68431009Y-51166666D01*
X68431009Y-51166666D02*
X68478628Y-51214285D01*
X68478628Y-51214285D02*
X68573866Y-51261904D01*
X68573866Y-51261904D02*
X68764342Y-51261904D01*
X68764342Y-51261904D02*
X68859580Y-51214285D01*
X68859580Y-51214285D02*
X68907200Y-51166666D01*
X68907200Y-51166666D02*
X68954819Y-51071428D01*
X68954819Y-51071428D02*
X68954819Y-50880952D01*
X68954819Y-50880952D02*
X68907200Y-50785714D01*
X68907200Y-50785714D02*
X68859580Y-50738095D01*
X68859580Y-50738095D02*
X68764342Y-50690476D01*
X68764342Y-50690476D02*
X68573866Y-50690476D01*
X68573866Y-50690476D02*
X68478628Y-50738095D01*
X68478628Y-50738095D02*
X68431009Y-50785714D01*
X68431009Y-50785714D02*
X68383390Y-50880952D01*
X83166666Y-82154819D02*
X83166666Y-82869104D01*
X83166666Y-82869104D02*
X83119047Y-83011961D01*
X83119047Y-83011961D02*
X83023809Y-83107200D01*
X83023809Y-83107200D02*
X82880952Y-83154819D01*
X82880952Y-83154819D02*
X82785714Y-83154819D01*
X83690476Y-83154819D02*
X83880952Y-83154819D01*
X83880952Y-83154819D02*
X83976190Y-83107200D01*
X83976190Y-83107200D02*
X84023809Y-83059580D01*
X84023809Y-83059580D02*
X84119047Y-82916723D01*
X84119047Y-82916723D02*
X84166666Y-82726247D01*
X84166666Y-82726247D02*
X84166666Y-82345295D01*
X84166666Y-82345295D02*
X84119047Y-82250057D01*
X84119047Y-82250057D02*
X84071428Y-82202438D01*
X84071428Y-82202438D02*
X83976190Y-82154819D01*
X83976190Y-82154819D02*
X83785714Y-82154819D01*
X83785714Y-82154819D02*
X83690476Y-82202438D01*
X83690476Y-82202438D02*
X83642857Y-82250057D01*
X83642857Y-82250057D02*
X83595238Y-82345295D01*
X83595238Y-82345295D02*
X83595238Y-82583390D01*
X83595238Y-82583390D02*
X83642857Y-82678628D01*
X83642857Y-82678628D02*
X83690476Y-82726247D01*
X83690476Y-82726247D02*
X83785714Y-82773866D01*
X83785714Y-82773866D02*
X83976190Y-82773866D01*
X83976190Y-82773866D02*
X84071428Y-82726247D01*
X84071428Y-82726247D02*
X84119047Y-82678628D01*
X84119047Y-82678628D02*
X84166666Y-82583390D01*
X21904819Y-7333333D02*
X22619104Y-7333333D01*
X22619104Y-7333333D02*
X22761961Y-7380952D01*
X22761961Y-7380952D02*
X22857200Y-7476190D01*
X22857200Y-7476190D02*
X22904819Y-7619047D01*
X22904819Y-7619047D02*
X22904819Y-7714285D01*
X21904819Y-6380952D02*
X21904819Y-6857142D01*
X21904819Y-6857142D02*
X22381009Y-6904761D01*
X22381009Y-6904761D02*
X22333390Y-6857142D01*
X22333390Y-6857142D02*
X22285771Y-6761904D01*
X22285771Y-6761904D02*
X22285771Y-6523809D01*
X22285771Y-6523809D02*
X22333390Y-6428571D01*
X22333390Y-6428571D02*
X22381009Y-6380952D01*
X22381009Y-6380952D02*
X22476247Y-6333333D01*
X22476247Y-6333333D02*
X22714342Y-6333333D01*
X22714342Y-6333333D02*
X22809580Y-6380952D01*
X22809580Y-6380952D02*
X22857200Y-6428571D01*
X22857200Y-6428571D02*
X22904819Y-6523809D01*
X22904819Y-6523809D02*
X22904819Y-6761904D01*
X22904819Y-6761904D02*
X22857200Y-6857142D01*
X22857200Y-6857142D02*
X22809580Y-6904761D01*
%TO.C,R15*%
D12*
X75049736Y-60840000D02*
X76503864Y-60840000D01*
X75049736Y-62660000D02*
X76503864Y-62660000D01*
%TO.C,Q10*%
X72850000Y-88340000D02*
X72850000Y-84740000D01*
X68400000Y-86540000D02*
G75*
G02*
X69901193Y-84183600I2600000J0D01*
G01*
X69901193Y-88896400D02*
G75*
G02*
X68400000Y-86540000I1098807J2356400D01*
G01*
X72122795Y-84215816D02*
G75*
G02*
X72850000Y-84740000I-1122795J-2324184D01*
G01*
X72850000Y-88340000D02*
G75*
G02*
X72122795Y-88864184I-1850000J1800000D01*
G01*
%TO.C,J1*%
X9640000Y-112300000D02*
X9640000Y-114710000D01*
X9640000Y-114710000D02*
X12050000Y-114710000D01*
X9940000Y-109290000D02*
X9940000Y-114410000D01*
X9940000Y-114410000D02*
X26560000Y-114410000D01*
X26560000Y-114410000D02*
X27560000Y-113410000D01*
X27560000Y-109290000D02*
X9940000Y-109290000D01*
X27560000Y-113410000D02*
X27560000Y-109290000D01*
%TO.C,TB1*%
D13*
X1250000Y-10700000D02*
X67250000Y-10700000D01*
X1250000Y-107700000D02*
X1250000Y-10700000D01*
X1250000Y-107700000D02*
X67250000Y-107700000D01*
X67250000Y-107700000D02*
X67250000Y-10700000D01*
D14*
X40000Y-44320000D02*
G75*
G02*
X-360000Y-44320000I-200000J0D01*
G01*
X-360000Y-44320000D02*
G75*
G02*
X40000Y-44320000I200000J0D01*
G01*
%TO.C,R14*%
D12*
X75049736Y-53340000D02*
X76503864Y-53340000D01*
X75049736Y-55160000D02*
X76503864Y-55160000D01*
%TO.C,R17*%
X75049736Y-57090000D02*
X76503864Y-57090000D01*
X75049736Y-58910000D02*
X76503864Y-58910000D01*
%TO.C,J8*%
X72190000Y-104290000D02*
X73190000Y-104290000D01*
X72190000Y-114110000D02*
X72190000Y-104290000D01*
X73190000Y-102890000D02*
X75000000Y-102890000D01*
X73190000Y-104290000D02*
X73190000Y-102890000D01*
X75000000Y-114110000D02*
X72190000Y-114110000D01*
X75000000Y-114110000D02*
X77810000Y-114110000D01*
X75200000Y-114350000D02*
X78050000Y-114350000D01*
X76810000Y-102890000D02*
X75000000Y-102890000D01*
X76810000Y-104290000D02*
X76810000Y-102890000D01*
X77810000Y-104290000D02*
X76810000Y-104290000D01*
X77810000Y-114110000D02*
X77810000Y-104290000D01*
X78050000Y-114350000D02*
X78050000Y-111500000D01*
%TO.C,Q6*%
X72850000Y-72760000D02*
X72850000Y-69160000D01*
X68400000Y-70960000D02*
G75*
G02*
X69901193Y-68603600I2600000J0D01*
G01*
X69901193Y-73316400D02*
G75*
G02*
X68400000Y-70960000I1098807J2356400D01*
G01*
X72122795Y-68635816D02*
G75*
G02*
X72850000Y-69160000I-1122795J-2324184D01*
G01*
X72850000Y-72760000D02*
G75*
G02*
X72122795Y-73284184I-1850000J1800000D01*
G01*
%TO.C,J4*%
X23940000Y-5090000D02*
X23940000Y-9210000D01*
X23940000Y-9210000D02*
X46560000Y-9210000D01*
X24940000Y-4090000D02*
X23940000Y-5090000D01*
X46560000Y-4090000D02*
X24940000Y-4090000D01*
X46560000Y-9210000D02*
X46560000Y-4090000D01*
X46860000Y-3790000D02*
X44450000Y-3790000D01*
X46860000Y-6200000D02*
X46860000Y-3790000D01*
%TO.C,R22*%
X75199736Y-83590000D02*
X76653864Y-83590000D01*
X75199736Y-85410000D02*
X76653864Y-85410000D01*
%TO.C,J10*%
X80690000Y-55290000D02*
X81690000Y-55290000D01*
X80690000Y-65110000D02*
X80690000Y-55290000D01*
X81690000Y-53890000D02*
X83500000Y-53890000D01*
X81690000Y-55290000D02*
X81690000Y-53890000D01*
X83500000Y-65110000D02*
X80690000Y-65110000D01*
X83500000Y-65110000D02*
X86310000Y-65110000D01*
X83700000Y-65350000D02*
X86550000Y-65350000D01*
X85310000Y-53890000D02*
X83500000Y-53890000D01*
X85310000Y-55290000D02*
X85310000Y-53890000D01*
X86310000Y-55290000D02*
X85310000Y-55290000D01*
X86310000Y-65110000D02*
X86310000Y-55290000D01*
X86550000Y-65350000D02*
X86550000Y-62500000D01*
%TO.C,A1*%
X68860000Y-6060000D02*
X68860000Y-49500000D01*
X68860000Y-6060000D02*
X73940000Y-6060000D01*
X68860000Y-49500000D02*
X86900000Y-49500000D01*
X71530000Y-8730000D02*
X68860000Y-8730000D01*
X71530000Y-46830000D02*
X68860000Y-46830000D01*
X71530000Y-46830000D02*
X71530000Y-8730000D01*
X73940000Y-3520000D02*
X81820000Y-3520000D01*
X73940000Y-13940000D02*
X73940000Y-3520000D01*
X81820000Y-3520000D02*
X81820000Y-13940000D01*
X81820000Y-13940000D02*
X73940000Y-13940000D01*
X84230000Y-8730000D02*
X86900000Y-8730000D01*
X84230000Y-44290000D02*
X84230000Y-8730000D01*
X84230000Y-44290000D02*
X84230000Y-46830000D01*
X84230000Y-44290000D02*
X86900000Y-44290000D01*
X84230000Y-46830000D02*
X86900000Y-46830000D01*
X86900000Y-6060000D02*
X81820000Y-6060000D01*
X86900000Y-44290000D02*
X86900000Y-6060000D01*
X86900000Y-49500000D02*
X86900000Y-46830000D01*
%TO.C,R19*%
X75049736Y-71840000D02*
X76503864Y-71840000D01*
X75049736Y-73660000D02*
X76503864Y-73660000D01*
%TO.C,J2*%
X30640000Y-112300000D02*
X30640000Y-114710000D01*
X30640000Y-114710000D02*
X33050000Y-114710000D01*
X30940000Y-109290000D02*
X30940000Y-114410000D01*
X30940000Y-114410000D02*
X47560000Y-114410000D01*
X47560000Y-114410000D02*
X48560000Y-113410000D01*
X48560000Y-109290000D02*
X30940000Y-109290000D01*
X48560000Y-113410000D02*
X48560000Y-109290000D01*
D15*
%TO.C,G\u002A\u002A\u002A*%
G36*
X75487637Y-98847206D02*
G01*
X75541670Y-98848740D01*
X75578790Y-98851615D01*
X75602155Y-98856087D01*
X75614919Y-98862417D01*
X75615926Y-98863351D01*
X75627095Y-98885679D01*
X75632486Y-98918968D01*
X75632205Y-98954954D01*
X75626358Y-98985377D01*
X75615049Y-99001974D01*
X75614145Y-99002370D01*
X75596429Y-99004737D01*
X75560457Y-99006507D01*
X75511149Y-99007689D01*
X75453420Y-99008289D01*
X75392188Y-99008317D01*
X75332371Y-99007780D01*
X75278885Y-99006684D01*
X75236648Y-99005040D01*
X75210576Y-99002852D01*
X75205512Y-99001728D01*
X75195800Y-98986815D01*
X75190821Y-98957252D01*
X75190364Y-98921094D01*
X75194219Y-98886398D01*
X75202176Y-98861219D01*
X75209367Y-98853805D01*
X75226849Y-98851398D01*
X75263150Y-98849344D01*
X75313849Y-98847796D01*
X75374526Y-98846906D01*
X75413536Y-98846752D01*
X75487637Y-98847206D01*
G37*
G36*
X71301346Y-98544647D02*
G01*
X71306373Y-98544647D01*
X71404150Y-98544843D01*
X71481157Y-98545511D01*
X71539859Y-98546774D01*
X71582722Y-98548754D01*
X71612212Y-98551571D01*
X71630795Y-98555349D01*
X71640935Y-98560210D01*
X71642092Y-98561247D01*
X71653214Y-98585947D01*
X71658387Y-98630228D01*
X71658691Y-98647018D01*
X71658691Y-98716190D01*
X71562831Y-98722942D01*
X71514133Y-98725834D01*
X71471224Y-98727429D01*
X71441901Y-98727461D01*
X71437923Y-98727221D01*
X71408874Y-98724748D01*
X71408874Y-99009423D01*
X71408874Y-99294098D01*
X71313218Y-99297470D01*
X71217562Y-99300841D01*
X71214453Y-99012795D01*
X71211344Y-98724748D01*
X71118551Y-98728224D01*
X71058357Y-98729944D01*
X71017589Y-98728414D01*
X70992465Y-98721600D01*
X70979204Y-98707465D01*
X70974025Y-98683975D01*
X70973147Y-98649951D01*
X70972705Y-98619329D01*
X70973033Y-98595264D01*
X70976615Y-98576971D01*
X70985933Y-98563667D01*
X71003470Y-98554566D01*
X71031710Y-98548883D01*
X71073134Y-98545834D01*
X71130226Y-98544635D01*
X71205469Y-98544501D01*
X71301346Y-98544647D01*
G37*
G36*
X76289909Y-98585965D02*
G01*
X76293027Y-98621406D01*
X76291508Y-98660859D01*
X76286203Y-98695469D01*
X76277963Y-98716383D01*
X76277319Y-98717084D01*
X76263962Y-98719509D01*
X76231355Y-98721853D01*
X76183487Y-98723934D01*
X76124347Y-98725567D01*
X76076387Y-98726369D01*
X76011322Y-98727219D01*
X75954406Y-98728046D01*
X75909692Y-98728785D01*
X75881233Y-98729372D01*
X75873073Y-98729663D01*
X75868774Y-98740707D01*
X75866739Y-98768626D01*
X75867263Y-98803179D01*
X75870722Y-98875800D01*
X76065347Y-98878986D01*
X76259972Y-98882172D01*
X76259972Y-98956494D01*
X76259516Y-98996770D01*
X76256349Y-99019765D01*
X76247776Y-99031436D01*
X76231101Y-99037739D01*
X76222209Y-99039936D01*
X76195665Y-99043670D01*
X76152146Y-99046915D01*
X76097916Y-99049300D01*
X76045013Y-99050406D01*
X75988723Y-99051102D01*
X75939673Y-99051988D01*
X75903270Y-99052947D01*
X75885247Y-99053829D01*
X75876097Y-99057222D01*
X75870159Y-99067888D01*
X75866762Y-99089917D01*
X75865238Y-99127398D01*
X75864913Y-99177904D01*
X75864913Y-99299908D01*
X75772643Y-99299908D01*
X75728735Y-99298848D01*
X75694609Y-99296037D01*
X75676236Y-99292023D01*
X75674797Y-99290885D01*
X75673466Y-99277332D01*
X75672508Y-99243617D01*
X75671942Y-99192812D01*
X75671785Y-99127992D01*
X75672057Y-99052229D01*
X75672775Y-98968598D01*
X75672856Y-98961332D01*
X75674018Y-98862181D01*
X75675417Y-98783524D01*
X75677678Y-98722620D01*
X75681428Y-98676728D01*
X75687290Y-98643105D01*
X75695891Y-98619011D01*
X75707854Y-98601705D01*
X75723805Y-98588444D01*
X75744369Y-98576488D01*
X75762780Y-98566943D01*
X75779718Y-98559306D01*
X75799223Y-98553621D01*
X75824833Y-98549606D01*
X75860087Y-98546983D01*
X75908525Y-98545470D01*
X75973684Y-98544786D01*
X76044024Y-98544647D01*
X76282158Y-98544647D01*
X76289909Y-98585965D01*
G37*
G36*
X76840450Y-98624331D02*
G01*
X76852294Y-98666665D01*
X76860800Y-98701957D01*
X76864177Y-98722760D01*
X76864181Y-98723096D01*
X76869074Y-98739604D01*
X76873967Y-98742177D01*
X76880751Y-98752692D01*
X76890973Y-98780952D01*
X76902977Y-98822027D01*
X76910072Y-98849657D01*
X76922293Y-98896691D01*
X76933462Y-98934589D01*
X76941955Y-98958069D01*
X76944928Y-98962946D01*
X76951408Y-98976123D01*
X76961502Y-99006441D01*
X76973465Y-99048430D01*
X76978927Y-99069417D01*
X76992343Y-99119204D01*
X77005866Y-99164012D01*
X77017172Y-99196294D01*
X77020081Y-99203041D01*
X77034343Y-99238581D01*
X77043153Y-99267955D01*
X77050534Y-99299908D01*
X76951956Y-99299908D01*
X76900330Y-99299141D01*
X76866905Y-99294755D01*
X76846648Y-99283624D01*
X76834528Y-99262619D01*
X76825510Y-99228615D01*
X76823685Y-99220206D01*
X76814178Y-99185570D01*
X76800429Y-99162108D01*
X76778214Y-99147690D01*
X76743309Y-99140186D01*
X76691491Y-99137467D01*
X76659089Y-99137237D01*
X76598048Y-99138203D01*
X76556055Y-99142442D01*
X76528954Y-99151964D01*
X76512587Y-99168778D01*
X76502799Y-99194897D01*
X76498538Y-99214883D01*
X76489753Y-99255029D01*
X76478324Y-99280027D01*
X76459114Y-99293454D01*
X76426985Y-99298888D01*
X76376799Y-99299908D01*
X76376443Y-99299908D01*
X76332518Y-99298705D01*
X76298266Y-99295513D01*
X76279733Y-99290961D01*
X76278287Y-99289723D01*
X76278072Y-99273889D01*
X76283704Y-99244312D01*
X76292961Y-99209038D01*
X76303618Y-99176116D01*
X76313452Y-99153594D01*
X76317205Y-99148856D01*
X76323579Y-99135742D01*
X76333833Y-99105407D01*
X76346242Y-99063182D01*
X76352927Y-99038472D01*
X76365714Y-98992200D01*
X76376203Y-98958104D01*
X76585315Y-98958104D01*
X76586633Y-98972780D01*
X76593958Y-98981180D01*
X76612348Y-98985051D01*
X76646861Y-98986138D01*
X76666651Y-98986184D01*
X76710842Y-98985159D01*
X76736134Y-98981474D01*
X76746801Y-98974212D01*
X76747987Y-98968755D01*
X76742770Y-98953278D01*
X76738354Y-98951326D01*
X76732162Y-98940706D01*
X76723308Y-98912126D01*
X76713190Y-98870509D01*
X76706939Y-98840546D01*
X76693785Y-98781794D01*
X76681520Y-98746129D01*
X76669454Y-98733452D01*
X76656899Y-98743665D01*
X76643164Y-98776670D01*
X76628327Y-98829323D01*
X76616406Y-98872611D01*
X76605280Y-98906185D01*
X76596868Y-98924459D01*
X76595092Y-98926151D01*
X76587565Y-98939342D01*
X76585315Y-98958104D01*
X76376203Y-98958104D01*
X76377139Y-98955062D01*
X76385507Y-98932386D01*
X76388075Y-98928087D01*
X76394321Y-98914935D01*
X76404481Y-98884755D01*
X76416766Y-98843047D01*
X76422102Y-98823513D01*
X76434780Y-98778612D01*
X76446141Y-98742943D01*
X76454377Y-98722008D01*
X76456461Y-98718938D01*
X76464091Y-98705136D01*
X76474236Y-98676873D01*
X76478995Y-98660841D01*
X76490845Y-98621077D01*
X76502790Y-98585191D01*
X76505982Y-98576601D01*
X76518418Y-98544647D01*
X76667569Y-98544647D01*
X76816719Y-98544647D01*
X76840450Y-98624331D01*
G37*
G36*
X74969082Y-98581239D02*
G01*
X74978107Y-98613470D01*
X74981839Y-98639336D01*
X74985861Y-98657272D01*
X74990778Y-98660841D01*
X74997561Y-98671267D01*
X75008254Y-98699197D01*
X75021040Y-98739615D01*
X75027535Y-98762511D01*
X75040578Y-98808051D01*
X75052092Y-98844438D01*
X75060321Y-98866279D01*
X75062560Y-98869990D01*
X75068304Y-98883080D01*
X75077909Y-98913582D01*
X75089813Y-98956312D01*
X75097542Y-98986184D01*
X75110090Y-99033830D01*
X75121305Y-99072412D01*
X75129621Y-99096746D01*
X75132603Y-99102378D01*
X75139767Y-99116586D01*
X75149770Y-99146560D01*
X75160917Y-99185712D01*
X75171513Y-99227457D01*
X75179864Y-99265208D01*
X75184275Y-99292377D01*
X75183945Y-99301903D01*
X75170395Y-99306193D01*
X75140658Y-99308914D01*
X75101738Y-99310004D01*
X75060638Y-99309402D01*
X75024362Y-99307045D01*
X75002180Y-99303520D01*
X74984815Y-99289195D01*
X74975121Y-99267104D01*
X74967329Y-99235164D01*
X74956786Y-99196459D01*
X74954780Y-99189524D01*
X74941171Y-99143046D01*
X74807827Y-99143046D01*
X74674484Y-99143046D01*
X74662736Y-99177904D01*
X74652742Y-99204004D01*
X74644980Y-99218470D01*
X74644876Y-99218572D01*
X74637215Y-99232694D01*
X74627241Y-99258663D01*
X74627047Y-99259240D01*
X74620692Y-99275899D01*
X74611941Y-99286339D01*
X74595760Y-99292246D01*
X74567118Y-99295306D01*
X74520983Y-99297203D01*
X74512883Y-99297471D01*
X74410436Y-99300843D01*
X74418732Y-99262612D01*
X74426575Y-99234922D01*
X74434481Y-99219061D01*
X74435052Y-99218572D01*
X74441575Y-99205450D01*
X74452167Y-99175336D01*
X74464967Y-99133710D01*
X74470585Y-99113998D01*
X74483683Y-99069162D01*
X74495241Y-99033521D01*
X74503434Y-99012549D01*
X74505443Y-99009423D01*
X74511663Y-98996305D01*
X74522020Y-98966201D01*
X74522234Y-98965499D01*
X74742015Y-98965499D01*
X74743562Y-98974438D01*
X74759100Y-98982000D01*
X74788428Y-98985752D01*
X74823277Y-98985859D01*
X74855376Y-98982485D01*
X74876454Y-98975795D01*
X74880148Y-98971722D01*
X74880479Y-98951772D01*
X74875456Y-98920851D01*
X74867313Y-98888573D01*
X74858285Y-98864549D01*
X74853798Y-98858371D01*
X74846832Y-98844643D01*
X74837538Y-98815614D01*
X74831321Y-98791586D01*
X74820464Y-98757444D01*
X74809332Y-98739727D01*
X74800372Y-98740195D01*
X74796031Y-98760611D01*
X74795928Y-98766102D01*
X74791427Y-98784615D01*
X74785475Y-98788655D01*
X74778046Y-98799053D01*
X74768711Y-98825858D01*
X74758955Y-98862488D01*
X74750264Y-98902360D01*
X74744122Y-98938891D01*
X74742015Y-98965499D01*
X74522234Y-98965499D01*
X74534689Y-98924587D01*
X74540301Y-98904849D01*
X74553400Y-98860013D01*
X74564958Y-98824372D01*
X74573151Y-98803400D01*
X74575160Y-98800274D01*
X74581396Y-98787161D01*
X74591800Y-98757069D01*
X74604539Y-98715469D01*
X74610196Y-98695700D01*
X74624377Y-98649317D01*
X74638350Y-98610690D01*
X74649790Y-98586018D01*
X74652999Y-98581580D01*
X74665934Y-98563218D01*
X74668115Y-98555437D01*
X74679043Y-98551232D01*
X74709069Y-98547826D01*
X74754059Y-98545529D01*
X74809879Y-98544649D01*
X74812221Y-98544647D01*
X74956326Y-98544647D01*
X74969082Y-98581239D01*
G37*
G36*
X72790889Y-98545466D02*
G01*
X72836346Y-98547716D01*
X72866999Y-98551088D01*
X72878712Y-98555269D01*
X72878728Y-98555437D01*
X72885944Y-98572259D01*
X72893418Y-98581580D01*
X72902707Y-98599182D01*
X72915229Y-98633401D01*
X72928894Y-98678235D01*
X72935177Y-98701498D01*
X72947781Y-98747789D01*
X72959062Y-98784937D01*
X72967340Y-98807604D01*
X72969883Y-98811882D01*
X72975835Y-98824973D01*
X72985650Y-98855471D01*
X72997736Y-98898192D01*
X73005558Y-98928087D01*
X73018244Y-98975724D01*
X73029622Y-99014302D01*
X73038102Y-99038639D01*
X73041177Y-99044281D01*
X73047332Y-99057406D01*
X73057438Y-99087664D01*
X73069759Y-99129656D01*
X73075882Y-99152144D01*
X73089837Y-99199265D01*
X73102700Y-99232885D01*
X73112894Y-99249139D01*
X73115775Y-99249945D01*
X73119966Y-99238888D01*
X73123504Y-99208230D01*
X73126422Y-99157222D01*
X73128753Y-99085112D01*
X73130532Y-98991149D01*
X73131620Y-98895170D01*
X73134695Y-98544647D01*
X73256529Y-98544647D01*
X73312808Y-98545254D01*
X73349425Y-98547393D01*
X73369934Y-98551545D01*
X73377887Y-98558191D01*
X73378362Y-98561108D01*
X73384692Y-98578459D01*
X73388993Y-98581442D01*
X73396348Y-98593695D01*
X73407240Y-98623337D01*
X73419862Y-98665141D01*
X73426493Y-98689890D01*
X73438975Y-98736188D01*
X73450094Y-98773338D01*
X73458196Y-98796001D01*
X73460651Y-98800274D01*
X73466588Y-98813390D01*
X73476448Y-98843730D01*
X73488563Y-98885961D01*
X73495150Y-98910658D01*
X73507966Y-98956683D01*
X73519740Y-98993274D01*
X73528715Y-99015216D01*
X73531697Y-99019106D01*
X73539574Y-99032409D01*
X73541033Y-99044564D01*
X73545354Y-99067825D01*
X73555677Y-99071097D01*
X73568045Y-99055389D01*
X73575199Y-99035864D01*
X73583137Y-99003820D01*
X73587278Y-98980366D01*
X73587446Y-98977470D01*
X73593814Y-98963957D01*
X73597455Y-98962946D01*
X73604220Y-98952411D01*
X73614385Y-98924055D01*
X73626337Y-98882747D01*
X73633989Y-98852561D01*
X73646240Y-98805638D01*
X73657710Y-98768627D01*
X73666786Y-98746399D01*
X73670522Y-98742177D01*
X73679125Y-98732638D01*
X73680466Y-98723096D01*
X73683654Y-98702867D01*
X73692027Y-98667916D01*
X73703793Y-98625689D01*
X73704197Y-98624331D01*
X73727928Y-98544647D01*
X73848196Y-98544647D01*
X73904083Y-98545241D01*
X73940830Y-98547413D01*
X73962518Y-98551753D01*
X73973224Y-98558850D01*
X73975518Y-98563027D01*
X73977269Y-98578868D01*
X73978861Y-98614957D01*
X73980239Y-98668301D01*
X73981348Y-98735908D01*
X73982130Y-98814788D01*
X73982530Y-98901948D01*
X73982570Y-98940657D01*
X73982570Y-99299908D01*
X73889615Y-99299908D01*
X73796660Y-99299908D01*
X73796660Y-99079140D01*
X73795945Y-98990521D01*
X73793771Y-98924909D01*
X73790094Y-98882119D01*
X73784868Y-98861960D01*
X73778050Y-98864247D01*
X73769595Y-98888790D01*
X73760875Y-98928087D01*
X73752351Y-98964641D01*
X73743918Y-98989884D01*
X73738247Y-98997804D01*
X73731954Y-99008341D01*
X73722226Y-99036703D01*
X73710615Y-99078020D01*
X73703106Y-99108188D01*
X73691015Y-99155125D01*
X73679694Y-99192142D01*
X73670735Y-99214363D01*
X73667052Y-99218572D01*
X73659439Y-99228452D01*
X73657227Y-99245297D01*
X73651488Y-99272612D01*
X73643284Y-99285965D01*
X73625090Y-99292843D01*
X73591612Y-99297469D01*
X73550716Y-99299622D01*
X73510267Y-99299080D01*
X73478133Y-99295620D01*
X73464278Y-99291016D01*
X73453956Y-99274974D01*
X73444128Y-99245588D01*
X73441941Y-99236001D01*
X73435659Y-99205483D01*
X73431576Y-99186098D01*
X73431040Y-99183714D01*
X73416342Y-99125008D01*
X73405421Y-99086124D01*
X73397337Y-99064130D01*
X73391151Y-99056092D01*
X73390115Y-99055901D01*
X73382441Y-99045700D01*
X73374853Y-99020386D01*
X73373276Y-99012328D01*
X73363695Y-98968215D01*
X73351327Y-98925044D01*
X73338196Y-98888596D01*
X73326327Y-98864651D01*
X73319331Y-98858371D01*
X73315823Y-98869474D01*
X73312851Y-98900719D01*
X73310564Y-98949017D01*
X73309114Y-99011273D01*
X73308645Y-99079140D01*
X73308645Y-99299908D01*
X73119508Y-99299908D01*
X73048678Y-99299713D01*
X72997397Y-99298854D01*
X72961977Y-99296918D01*
X72938729Y-99293494D01*
X72923966Y-99288169D01*
X72913999Y-99280531D01*
X72910359Y-99276537D01*
X72895214Y-99254307D01*
X72890347Y-99240122D01*
X72887209Y-99221299D01*
X72879417Y-99190830D01*
X72876889Y-99182157D01*
X72863430Y-99137237D01*
X72732055Y-99137237D01*
X72671736Y-99137579D01*
X72630444Y-99140117D01*
X72603970Y-99147112D01*
X72588103Y-99160827D01*
X72578631Y-99183527D01*
X72571344Y-99217474D01*
X72570062Y-99224304D01*
X72560946Y-99257575D01*
X72549267Y-99281903D01*
X72546622Y-99285092D01*
X72537017Y-99289394D01*
X72516417Y-99292815D01*
X72482847Y-99295426D01*
X72434329Y-99297299D01*
X72368889Y-99298506D01*
X72284550Y-99299117D01*
X72179338Y-99299203D01*
X72156250Y-99299165D01*
X72049612Y-99298803D01*
X71963723Y-99298107D01*
X71896097Y-99296963D01*
X71844245Y-99295257D01*
X71805680Y-99292876D01*
X71777914Y-99289704D01*
X71758460Y-99285629D01*
X71744829Y-99280536D01*
X71744339Y-99280294D01*
X71711257Y-99253055D01*
X71694957Y-99218688D01*
X71690651Y-99192019D01*
X71687209Y-99146595D01*
X71684642Y-99086882D01*
X71682959Y-99017348D01*
X71682171Y-98942460D01*
X71682289Y-98866684D01*
X71683322Y-98794490D01*
X71685281Y-98730342D01*
X71688176Y-98678710D01*
X71692018Y-98644060D01*
X71693612Y-98636685D01*
X71705383Y-98608425D01*
X71726161Y-98587957D01*
X71760358Y-98569463D01*
X71779588Y-98561072D01*
X71798563Y-98554803D01*
X71820810Y-98550403D01*
X71849852Y-98547619D01*
X71889215Y-98546198D01*
X71942423Y-98545886D01*
X72013002Y-98546431D01*
X72071180Y-98547141D01*
X72326806Y-98550457D01*
X72330195Y-98633426D01*
X72333583Y-98716395D01*
X72229311Y-98724648D01*
X72181558Y-98727514D01*
X72142260Y-98728184D01*
X72117424Y-98726627D01*
X72112611Y-98725220D01*
X72096200Y-98722682D01*
X72062473Y-98722240D01*
X72017258Y-98723877D01*
X71990698Y-98725576D01*
X71939447Y-98729750D01*
X71906783Y-98734082D01*
X71888087Y-98739958D01*
X71878740Y-98748765D01*
X71874472Y-98760468D01*
X71874131Y-98791450D01*
X71881271Y-98817037D01*
X71894809Y-98846752D01*
X72108458Y-98846752D01*
X72322106Y-98846752D01*
X72318646Y-98919373D01*
X72315187Y-98991994D01*
X72097323Y-98995155D01*
X71879460Y-98998317D01*
X71879460Y-99067526D01*
X71879460Y-99136735D01*
X72103133Y-99139891D01*
X72326806Y-99143046D01*
X72330413Y-99186619D01*
X72337868Y-99217773D01*
X72350696Y-99230117D01*
X72364567Y-99222502D01*
X72374228Y-99198238D01*
X72388789Y-99136912D01*
X72400379Y-99096065D01*
X72409762Y-99073242D01*
X72415152Y-99066836D01*
X72422522Y-99053295D01*
X72433252Y-99022728D01*
X72445398Y-98980947D01*
X72657959Y-98980947D01*
X72668239Y-98985068D01*
X72694088Y-98986630D01*
X72728018Y-98985980D01*
X72762541Y-98983463D01*
X72790169Y-98979428D01*
X72803415Y-98974220D01*
X72803423Y-98974208D01*
X72804582Y-98958053D01*
X72800687Y-98927548D01*
X72793260Y-98889269D01*
X72783827Y-98849790D01*
X72773911Y-98815688D01*
X72765037Y-98793536D01*
X72760409Y-98788655D01*
X72752613Y-98778935D01*
X72750914Y-98766102D01*
X72747793Y-98742331D01*
X72739855Y-98738971D01*
X72729242Y-98754261D01*
X72718094Y-98786438D01*
X72715960Y-98794866D01*
X72706241Y-98829430D01*
X72697021Y-98852495D01*
X72691925Y-98858371D01*
X72685872Y-98868445D01*
X72677282Y-98893449D01*
X72668324Y-98925555D01*
X72661166Y-98956936D01*
X72657978Y-98979765D01*
X72657959Y-98980947D01*
X72445398Y-98980947D01*
X72445456Y-98980747D01*
X72450267Y-98962261D01*
X72462310Y-98917444D01*
X72473276Y-98881918D01*
X72481392Y-98861239D01*
X72483439Y-98858371D01*
X72489964Y-98845229D01*
X72500290Y-98814947D01*
X72512645Y-98772946D01*
X72518598Y-98750892D01*
X72531096Y-98706142D01*
X72542221Y-98671438D01*
X72550288Y-98651811D01*
X72552608Y-98649222D01*
X72559890Y-98639150D01*
X72570072Y-98613581D01*
X72575369Y-98596935D01*
X72590808Y-98544647D01*
X72734768Y-98544647D01*
X72790889Y-98545466D01*
G37*
G36*
X74701906Y-92758108D02*
G01*
X74746486Y-92758860D01*
X74779825Y-92760113D01*
X74803639Y-92761900D01*
X74819639Y-92764254D01*
X74829541Y-92767211D01*
X74835058Y-92770802D01*
X74837904Y-92775062D01*
X74838580Y-92776700D01*
X74853190Y-92802659D01*
X74867963Y-92821381D01*
X74883785Y-92842950D01*
X74888883Y-92856953D01*
X74896037Y-92874816D01*
X74909217Y-92892590D01*
X74926853Y-92916302D01*
X74948198Y-92950450D01*
X74957733Y-92967402D01*
X74975364Y-92998424D01*
X74989289Y-93020016D01*
X74993935Y-93025434D01*
X75003427Y-93038434D01*
X75018727Y-93065135D01*
X75028316Y-93083531D01*
X75045101Y-93114785D01*
X75058625Y-93136410D01*
X75063174Y-93141628D01*
X75073084Y-93154696D01*
X75088512Y-93181198D01*
X75096708Y-93196820D01*
X75113007Y-93225795D01*
X75126134Y-93243622D01*
X75130222Y-93246321D01*
X75139050Y-93256136D01*
X75153385Y-93281505D01*
X75167064Y-93310227D01*
X75183401Y-93344017D01*
X75197092Y-93367143D01*
X75204012Y-93374016D01*
X75213486Y-93383563D01*
X75228571Y-93408069D01*
X75239555Y-93429208D01*
X75256337Y-93461024D01*
X75270169Y-93482826D01*
X75275539Y-93488377D01*
X75285768Y-93500318D01*
X75301278Y-93525967D01*
X75309053Y-93540664D01*
X75325271Y-93570664D01*
X75338067Y-93590865D01*
X75341562Y-93594785D01*
X75351299Y-93607633D01*
X75367312Y-93634031D01*
X75377765Y-93652817D01*
X75398517Y-93688300D01*
X75418758Y-93718278D01*
X75426280Y-93727629D01*
X75441733Y-93749386D01*
X75446614Y-93763266D01*
X75453876Y-93780975D01*
X75467486Y-93798838D01*
X75484764Y-93822516D01*
X75505164Y-93857317D01*
X75515000Y-93876555D01*
X75531476Y-93907520D01*
X75545067Y-93927546D01*
X75550461Y-93931747D01*
X75560119Y-93941353D01*
X75574181Y-93965579D01*
X75580471Y-93978743D01*
X75600692Y-94016742D01*
X75623902Y-94051284D01*
X75628699Y-94057174D01*
X75646876Y-94082098D01*
X75655613Y-94101525D01*
X75655749Y-94103133D01*
X75663283Y-94122041D01*
X75676097Y-94138337D01*
X75693080Y-94160806D01*
X75713396Y-94194684D01*
X75723390Y-94213863D01*
X75739928Y-94244660D01*
X75753301Y-94264558D01*
X75758410Y-94268710D01*
X75767308Y-94278339D01*
X75782049Y-94303271D01*
X75795358Y-94329669D01*
X75814921Y-94367106D01*
X75834329Y-94398176D01*
X75844579Y-94411005D01*
X75860401Y-94432555D01*
X75864913Y-94446619D01*
X75872145Y-94466285D01*
X75885247Y-94484447D01*
X75903058Y-94508281D01*
X75924482Y-94542303D01*
X75933422Y-94558052D01*
X75954451Y-94592979D01*
X75975335Y-94622134D01*
X75982804Y-94630608D01*
X75999269Y-94653294D01*
X76004345Y-94669579D01*
X76012034Y-94690665D01*
X76025575Y-94708238D01*
X76043130Y-94731190D01*
X76063617Y-94765378D01*
X76073089Y-94783764D01*
X76089448Y-94814432D01*
X76102855Y-94834119D01*
X76107970Y-94838060D01*
X76117210Y-94847695D01*
X76131964Y-94872529D01*
X76143778Y-94896157D01*
X76159998Y-94928082D01*
X76173146Y-94949184D01*
X76178636Y-94954254D01*
X76187346Y-94963877D01*
X76201741Y-94988682D01*
X76213495Y-95012351D01*
X76229782Y-95044284D01*
X76243097Y-95065386D01*
X76248738Y-95070448D01*
X76257710Y-95080054D01*
X76272386Y-95104821D01*
X76284353Y-95128545D01*
X76300793Y-95160441D01*
X76314153Y-95181544D01*
X76319776Y-95186642D01*
X76328822Y-95196187D01*
X76343506Y-95220648D01*
X76353900Y-95240938D01*
X76373455Y-95276974D01*
X76393286Y-95306874D01*
X76401414Y-95316464D01*
X76417667Y-95338180D01*
X76422644Y-95352932D01*
X76430008Y-95372154D01*
X76444813Y-95391966D01*
X76463592Y-95416918D01*
X76484907Y-95451878D01*
X76492851Y-95466778D01*
X76509446Y-95497616D01*
X76522622Y-95518793D01*
X76526741Y-95523604D01*
X76536477Y-95536453D01*
X76552490Y-95562851D01*
X76562943Y-95581637D01*
X76583696Y-95617120D01*
X76603937Y-95647098D01*
X76611459Y-95656449D01*
X76626979Y-95679110D01*
X76631793Y-95694277D01*
X76639401Y-95713646D01*
X76652581Y-95730303D01*
X76670357Y-95753030D01*
X76691365Y-95786561D01*
X76700330Y-95802924D01*
X76717539Y-95833958D01*
X76731424Y-95855420D01*
X76736077Y-95860567D01*
X76746162Y-95873641D01*
X76761700Y-95900153D01*
X76769901Y-95915759D01*
X76786200Y-95944734D01*
X76799327Y-95962560D01*
X76803415Y-95965259D01*
X76812243Y-95975074D01*
X76826579Y-96000444D01*
X76840257Y-96029166D01*
X76856594Y-96062956D01*
X76870285Y-96086082D01*
X76877205Y-96092955D01*
X76886679Y-96102502D01*
X76901764Y-96127007D01*
X76912748Y-96148147D01*
X76932355Y-96184664D01*
X76951872Y-96215407D01*
X76960041Y-96225864D01*
X76975502Y-96247589D01*
X76980375Y-96261436D01*
X76987529Y-96279299D01*
X77000709Y-96297073D01*
X77018344Y-96320786D01*
X77039689Y-96354933D01*
X77049224Y-96371885D01*
X77066762Y-96402895D01*
X77080463Y-96424487D01*
X77084949Y-96429917D01*
X77094406Y-96442757D01*
X77110237Y-96469138D01*
X77120674Y-96487949D01*
X77141427Y-96523432D01*
X77161668Y-96553411D01*
X77169190Y-96562762D01*
X77184710Y-96585423D01*
X77189524Y-96600590D01*
X77197000Y-96620134D01*
X77209858Y-96636936D01*
X77226697Y-96659311D01*
X77247435Y-96693350D01*
X77259240Y-96715367D01*
X77277567Y-96748709D01*
X77293606Y-96773103D01*
X77300801Y-96780855D01*
X77312981Y-96795843D01*
X77328690Y-96823771D01*
X77334519Y-96836047D01*
X77348921Y-96864426D01*
X77360518Y-96881165D01*
X77363593Y-96883074D01*
X77372426Y-96892700D01*
X77386906Y-96917512D01*
X77398673Y-96941171D01*
X77415060Y-96973114D01*
X77428618Y-96994216D01*
X77434481Y-96999268D01*
X77443962Y-97008823D01*
X77458932Y-97033308D01*
X77469362Y-97053564D01*
X77488917Y-97089600D01*
X77508748Y-97119500D01*
X77516876Y-97129090D01*
X77533521Y-97156598D01*
X77538106Y-97178822D01*
X77534200Y-97206442D01*
X77524735Y-97235994D01*
X77513091Y-97258833D01*
X77503832Y-97266514D01*
X77495672Y-97276265D01*
X77481872Y-97301592D01*
X77468389Y-97330420D01*
X77452348Y-97364249D01*
X77439169Y-97387416D01*
X77432736Y-97394327D01*
X77424530Y-97404109D01*
X77410841Y-97429508D01*
X77397633Y-97458234D01*
X77381837Y-97492110D01*
X77368788Y-97515280D01*
X77362382Y-97522141D01*
X77353745Y-97531863D01*
X77341309Y-97556224D01*
X77336738Y-97567078D01*
X77321564Y-97599683D01*
X77306405Y-97624368D01*
X77303255Y-97628080D01*
X77289898Y-97647170D01*
X77271924Y-97679315D01*
X77259133Y-97705146D01*
X77242512Y-97737959D01*
X77228946Y-97760103D01*
X77222750Y-97766148D01*
X77214545Y-97775987D01*
X77201145Y-97801522D01*
X77188497Y-97830055D01*
X77173267Y-97864014D01*
X77160667Y-97887191D01*
X77154514Y-97893961D01*
X77146036Y-97903633D01*
X77131820Y-97928668D01*
X77119011Y-97954963D01*
X77102726Y-97989001D01*
X77089747Y-98013574D01*
X77084261Y-98021775D01*
X77075395Y-98034619D01*
X77058641Y-98062885D01*
X77036888Y-98101407D01*
X77013027Y-98145018D01*
X76989946Y-98188552D01*
X76978419Y-98211012D01*
X76959333Y-98244981D01*
X76940230Y-98273388D01*
X76936649Y-98277823D01*
X76934276Y-98280271D01*
X76930929Y-98282537D01*
X76925740Y-98284628D01*
X76917840Y-98286551D01*
X76906360Y-98288314D01*
X76890433Y-98289922D01*
X76869190Y-98291384D01*
X76841763Y-98292706D01*
X76807283Y-98293895D01*
X76764883Y-98294957D01*
X76713693Y-98295901D01*
X76652845Y-98296732D01*
X76581472Y-98297458D01*
X76498704Y-98298086D01*
X76403674Y-98298623D01*
X76295512Y-98299075D01*
X76173352Y-98299449D01*
X76036323Y-98299753D01*
X75883559Y-98299994D01*
X75714190Y-98300178D01*
X75527348Y-98300312D01*
X75322166Y-98300403D01*
X75097774Y-98300459D01*
X74853304Y-98300485D01*
X74587888Y-98300490D01*
X74300658Y-98300480D01*
X74104897Y-98300469D01*
X73791260Y-98300428D01*
X73500126Y-98300341D01*
X73230755Y-98300205D01*
X72982412Y-98300016D01*
X72754358Y-98299770D01*
X72545857Y-98299464D01*
X72356171Y-98299093D01*
X72184563Y-98298654D01*
X72030295Y-98298142D01*
X71892631Y-98297555D01*
X71770833Y-98296888D01*
X71664164Y-98296137D01*
X71571887Y-98295299D01*
X71493264Y-98294370D01*
X71427559Y-98293346D01*
X71374033Y-98292223D01*
X71331950Y-98290997D01*
X71300572Y-98289665D01*
X71279162Y-98288223D01*
X71266983Y-98286667D01*
X71263981Y-98285775D01*
X71238956Y-98266402D01*
X71213826Y-98237126D01*
X71209548Y-98230754D01*
X71188949Y-98200053D01*
X71170631Y-98175477D01*
X71167636Y-98171931D01*
X71153219Y-98150962D01*
X71134739Y-98118227D01*
X71125172Y-98099310D01*
X71108812Y-98068641D01*
X71095406Y-98048955D01*
X71090290Y-98045013D01*
X71081051Y-98035378D01*
X71066297Y-98010544D01*
X71054483Y-97986916D01*
X71038095Y-97954973D01*
X71024537Y-97933871D01*
X71018675Y-97928819D01*
X71009121Y-97919280D01*
X70994221Y-97894923D01*
X70984766Y-97876532D01*
X70968666Y-97846513D01*
X70955507Y-97827603D01*
X70950858Y-97824245D01*
X70941618Y-97814610D01*
X70926864Y-97789776D01*
X70915050Y-97766148D01*
X70898802Y-97734219D01*
X70885585Y-97713118D01*
X70880032Y-97708051D01*
X70870727Y-97698626D01*
X70855510Y-97674533D01*
X70845333Y-97655764D01*
X70828571Y-97625908D01*
X70815239Y-97606979D01*
X70810635Y-97603476D01*
X70801836Y-97593851D01*
X70787380Y-97569041D01*
X70775617Y-97545379D01*
X70759057Y-97513417D01*
X70745076Y-97492315D01*
X70738832Y-97487282D01*
X70728808Y-97477682D01*
X70713833Y-97453187D01*
X70704681Y-97434995D01*
X70689010Y-97404915D01*
X70676218Y-97386012D01*
X70671749Y-97382708D01*
X70662645Y-97373076D01*
X70647983Y-97348249D01*
X70636184Y-97324611D01*
X70619563Y-97292642D01*
X70605432Y-97271540D01*
X70599052Y-97266514D01*
X70585138Y-97256420D01*
X70576836Y-97231526D01*
X70576570Y-97224082D01*
X70826998Y-97224082D01*
X70836012Y-97247708D01*
X70847180Y-97268794D01*
X70867877Y-97303711D01*
X70888106Y-97333165D01*
X70894716Y-97341261D01*
X70910152Y-97362728D01*
X70915064Y-97376184D01*
X70922087Y-97392366D01*
X70939419Y-97416664D01*
X70944024Y-97422175D01*
X70968471Y-97456225D01*
X70990373Y-97495472D01*
X70992723Y-97500605D01*
X71006756Y-97528243D01*
X71018315Y-97543988D01*
X71021045Y-97545379D01*
X71030691Y-97554867D01*
X71045895Y-97579103D01*
X71055727Y-97597667D01*
X71072030Y-97627589D01*
X71084951Y-97646510D01*
X71089341Y-97649954D01*
X71098233Y-97659469D01*
X71113010Y-97683901D01*
X71124075Y-97705146D01*
X71142388Y-97738287D01*
X71159369Y-97762542D01*
X71166802Y-97769630D01*
X71180710Y-97784441D01*
X71182296Y-97790463D01*
X71188202Y-97805132D01*
X71203537Y-97833226D01*
X71224730Y-97868912D01*
X71248209Y-97906354D01*
X71270401Y-97939717D01*
X71287734Y-97963167D01*
X71288794Y-97964427D01*
X71304012Y-97986276D01*
X71322433Y-98017820D01*
X71326928Y-98026292D01*
X71348711Y-98063146D01*
X71372788Y-98096854D01*
X71376296Y-98101068D01*
X71394185Y-98124114D01*
X71402889Y-98139736D01*
X71403050Y-98140873D01*
X71408326Y-98143808D01*
X71415460Y-98137077D01*
X71541290Y-98137077D01*
X71546310Y-98140456D01*
X71557675Y-98143503D01*
X71576218Y-98146236D01*
X71602774Y-98148672D01*
X71638177Y-98150828D01*
X71683262Y-98152721D01*
X71738861Y-98154368D01*
X71805810Y-98155785D01*
X71884943Y-98156989D01*
X71977093Y-98157998D01*
X72083095Y-98158829D01*
X72203784Y-98159497D01*
X72339992Y-98160022D01*
X72492555Y-98160418D01*
X72662307Y-98160703D01*
X72850082Y-98160895D01*
X73056713Y-98161009D01*
X73283036Y-98161063D01*
X73529883Y-98161074D01*
X73798091Y-98161059D01*
X74088491Y-98161035D01*
X74165576Y-98161029D01*
X74410915Y-98160975D01*
X74650147Y-98160850D01*
X74882231Y-98160655D01*
X75106125Y-98160396D01*
X75320788Y-98160075D01*
X75525177Y-98159696D01*
X75718253Y-98159262D01*
X75898972Y-98158777D01*
X76066294Y-98158245D01*
X76219177Y-98157668D01*
X76356579Y-98157050D01*
X76477459Y-98156394D01*
X76580775Y-98155705D01*
X76665487Y-98154985D01*
X76730551Y-98154237D01*
X76774927Y-98153467D01*
X76797573Y-98152676D01*
X76800396Y-98152315D01*
X76811389Y-98137678D01*
X76827472Y-98108837D01*
X76840145Y-98082776D01*
X76856368Y-98049923D01*
X76869483Y-98027776D01*
X76875337Y-98021775D01*
X76883432Y-98012025D01*
X76897186Y-97986701D01*
X76910658Y-97957868D01*
X76926800Y-97924028D01*
X76940226Y-97900861D01*
X76946929Y-97893961D01*
X76956097Y-97884397D01*
X76970868Y-97859851D01*
X76981640Y-97838769D01*
X76999166Y-97804799D01*
X77014630Y-97778878D01*
X77020813Y-97770755D01*
X77033107Y-97752743D01*
X77049070Y-97722682D01*
X77055133Y-97709753D01*
X77069795Y-97680964D01*
X77081811Y-97663742D01*
X77085283Y-97661573D01*
X77094139Y-97651816D01*
X77108004Y-97626697D01*
X77118700Y-97603476D01*
X77134165Y-97571325D01*
X77147449Y-97550227D01*
X77153410Y-97545379D01*
X77162837Y-97535504D01*
X77175939Y-97510372D01*
X77183177Y-97492880D01*
X77198187Y-97458451D01*
X77212961Y-97432085D01*
X77218268Y-97425340D01*
X77234931Y-97402915D01*
X77253807Y-97369659D01*
X77270599Y-97334226D01*
X77281009Y-97305270D01*
X77282479Y-97296025D01*
X77280701Y-97293127D01*
X77274509Y-97290556D01*
X77262617Y-97288292D01*
X77243740Y-97286316D01*
X77216592Y-97284609D01*
X77179887Y-97283153D01*
X77132339Y-97281928D01*
X77072663Y-97280914D01*
X76999573Y-97280093D01*
X76911782Y-97279446D01*
X76808006Y-97278953D01*
X76686959Y-97278596D01*
X76547354Y-97278354D01*
X76387906Y-97278210D01*
X76207330Y-97278144D01*
X76079871Y-97278133D01*
X75914839Y-97278081D01*
X75756500Y-97277927D01*
X75606384Y-97277680D01*
X75466019Y-97277347D01*
X75336934Y-97276934D01*
X75220659Y-97276449D01*
X75118723Y-97275899D01*
X75032654Y-97275291D01*
X74963983Y-97274632D01*
X74914237Y-97273928D01*
X74884946Y-97273188D01*
X74877264Y-97272559D01*
X74881658Y-97256002D01*
X74892380Y-97228068D01*
X74905741Y-97197304D01*
X74918053Y-97172253D01*
X74925114Y-97161706D01*
X74934299Y-97148369D01*
X74948439Y-97120624D01*
X74958600Y-97098033D01*
X74969643Y-97074043D01*
X75214226Y-97074043D01*
X75225515Y-97075204D01*
X75258059Y-97076300D01*
X75309874Y-97077312D01*
X75378978Y-97078221D01*
X75463385Y-97079011D01*
X75561113Y-97079662D01*
X75670177Y-97080156D01*
X75788595Y-97080476D01*
X75914383Y-97080602D01*
X75928819Y-97080603D01*
X76066605Y-97080437D01*
X76193481Y-97079953D01*
X76307858Y-97079174D01*
X76408151Y-97078125D01*
X76492770Y-97076827D01*
X76560130Y-97075306D01*
X76608641Y-97073583D01*
X76636718Y-97071682D01*
X76643412Y-97070121D01*
X76633855Y-97058703D01*
X76611459Y-97046400D01*
X76583050Y-97033098D01*
X76545094Y-97013449D01*
X76521409Y-97000449D01*
X76476343Y-96975201D01*
X76428683Y-96948691D01*
X76409365Y-96938013D01*
X76367242Y-96914231D01*
X76324682Y-96889338D01*
X76310600Y-96880834D01*
X76249122Y-96844075D01*
X76194744Y-96813936D01*
X76136218Y-96784136D01*
X76100666Y-96764895D01*
X76072772Y-96746750D01*
X76062174Y-96737508D01*
X76046190Y-96723121D01*
X76039200Y-96720402D01*
X76018865Y-96714448D01*
X75982987Y-96697924D01*
X75935566Y-96672837D01*
X75880599Y-96641193D01*
X75876532Y-96638760D01*
X75831278Y-96612509D01*
X75786054Y-96587707D01*
X75751624Y-96570203D01*
X75722488Y-96554596D01*
X75704753Y-96541470D01*
X75702241Y-96537239D01*
X75692389Y-96527586D01*
X75667836Y-96515434D01*
X75658668Y-96511933D01*
X75622083Y-96495774D01*
X75590294Y-96476919D01*
X75587385Y-96474741D01*
X75556988Y-96456513D01*
X75534370Y-96458391D01*
X75515046Y-96481608D01*
X75507428Y-96496729D01*
X75492969Y-96525488D01*
X75481513Y-96543993D01*
X75479300Y-96546344D01*
X75470570Y-96559670D01*
X75456730Y-96587391D01*
X75446614Y-96610018D01*
X75431277Y-96643336D01*
X75418453Y-96666928D01*
X75413207Y-96673691D01*
X75404582Y-96686954D01*
X75390930Y-96715345D01*
X75377780Y-96746427D01*
X75362694Y-96780320D01*
X75349887Y-96802489D01*
X75342818Y-96808029D01*
X75334725Y-96815008D01*
X75322665Y-96838380D01*
X75313715Y-96860961D01*
X75299310Y-96896696D01*
X75285458Y-96924172D01*
X75279232Y-96932982D01*
X75268621Y-96949414D01*
X75253340Y-96978993D01*
X75236937Y-97014020D01*
X75222962Y-97046794D01*
X75214962Y-97069616D01*
X75214226Y-97074043D01*
X74969643Y-97074043D01*
X74973937Y-97064715D01*
X74986761Y-97041122D01*
X74992007Y-97034359D01*
X75000629Y-97021098D01*
X75014283Y-96992703D01*
X75027483Y-96961505D01*
X75042794Y-96926595D01*
X75055929Y-96902417D01*
X75063174Y-96894693D01*
X75071933Y-96884815D01*
X75085571Y-96859186D01*
X75098032Y-96830786D01*
X75113025Y-96796780D01*
X75125522Y-96773601D01*
X75131682Y-96766880D01*
X75139737Y-96756981D01*
X75152351Y-96731475D01*
X75162286Y-96707380D01*
X75177517Y-96673271D01*
X75192199Y-96649192D01*
X75199702Y-96642230D01*
X75213188Y-96629102D01*
X75214226Y-96624063D01*
X75219079Y-96606871D01*
X75231073Y-96577563D01*
X75246360Y-96544444D01*
X75261095Y-96515824D01*
X75271430Y-96500008D01*
X75271843Y-96499634D01*
X75280695Y-96485479D01*
X75293763Y-96457943D01*
X75307402Y-96425516D01*
X75317970Y-96396686D01*
X75321421Y-96384133D01*
X75319508Y-96379460D01*
X75310341Y-96375686D01*
X75291730Y-96372703D01*
X75261483Y-96370403D01*
X75217408Y-96368678D01*
X75157315Y-96367422D01*
X75079013Y-96366525D01*
X74980309Y-96365881D01*
X74946980Y-96365723D01*
X74854486Y-96365599D01*
X74768588Y-96366029D01*
X74692273Y-96366955D01*
X74628526Y-96368322D01*
X74580335Y-96370070D01*
X74550685Y-96372144D01*
X74543206Y-96373457D01*
X74522920Y-96387330D01*
X74517063Y-96400581D01*
X74511373Y-96416235D01*
X74506390Y-96418298D01*
X74496109Y-96428013D01*
X74480924Y-96453034D01*
X74469460Y-96476395D01*
X74453581Y-96508417D01*
X74440421Y-96529518D01*
X74434767Y-96534492D01*
X74426200Y-96544338D01*
X74412549Y-96569891D01*
X74399842Y-96598399D01*
X74384624Y-96632357D01*
X74372054Y-96655533D01*
X74365932Y-96662305D01*
X74357080Y-96671817D01*
X74342320Y-96696241D01*
X74331243Y-96717497D01*
X74314508Y-96749661D01*
X74301163Y-96772289D01*
X74296294Y-96778499D01*
X74287336Y-96791450D01*
X74272411Y-96818639D01*
X74260500Y-96842406D01*
X74240796Y-96879616D01*
X74221258Y-96911018D01*
X74212054Y-96923028D01*
X74196525Y-96945658D01*
X74191720Y-96960791D01*
X74184171Y-96980294D01*
X74171386Y-96996709D01*
X74154730Y-97018893D01*
X74134439Y-97052940D01*
X74122939Y-97075140D01*
X74105990Y-97108109D01*
X74092241Y-97131601D01*
X74086664Y-97138700D01*
X74077693Y-97151799D01*
X74063329Y-97179288D01*
X74052404Y-97202607D01*
X74037010Y-97235830D01*
X74025189Y-97259455D01*
X74020921Y-97266514D01*
X74008435Y-97268064D01*
X73975450Y-97269805D01*
X73924707Y-97271655D01*
X73858943Y-97273534D01*
X73780899Y-97275361D01*
X73693312Y-97277055D01*
X73626795Y-97278133D01*
X73507327Y-97280236D01*
X73410295Y-97282655D01*
X73334900Y-97285430D01*
X73280340Y-97288596D01*
X73245816Y-97292194D01*
X73230526Y-97296261D01*
X73229777Y-97297009D01*
X73215209Y-97308312D01*
X73186022Y-97324113D01*
X73157593Y-97337065D01*
X73122498Y-97352732D01*
X73096956Y-97365711D01*
X73087877Y-97371923D01*
X73074768Y-97380305D01*
X73046748Y-97393964D01*
X73018161Y-97406438D01*
X72980459Y-97423141D01*
X72949913Y-97438416D01*
X72936825Y-97446384D01*
X72915936Y-97458700D01*
X72883263Y-97474473D01*
X72867108Y-97481473D01*
X72832343Y-97497121D01*
X72804848Y-97511515D01*
X72797392Y-97516331D01*
X72776508Y-97528507D01*
X72743842Y-97544194D01*
X72727676Y-97551189D01*
X72692911Y-97566838D01*
X72665416Y-97581231D01*
X72657959Y-97586047D01*
X72637075Y-97598223D01*
X72604410Y-97613910D01*
X72588243Y-97620905D01*
X72553460Y-97636700D01*
X72525961Y-97651446D01*
X72518527Y-97656451D01*
X72497896Y-97667755D01*
X72464112Y-97681678D01*
X72440834Y-97689817D01*
X72406653Y-97702749D01*
X72383034Y-97715087D01*
X72376591Y-97721367D01*
X72364244Y-97731450D01*
X72336499Y-97745048D01*
X72309794Y-97755429D01*
X72274053Y-97769710D01*
X72247784Y-97783332D01*
X72238834Y-97790725D01*
X72224032Y-97801600D01*
X72194456Y-97815752D01*
X72168365Y-97825833D01*
X72133818Y-97839464D01*
X72109721Y-97851749D01*
X72102566Y-97858039D01*
X72090649Y-97867155D01*
X72063023Y-97880732D01*
X72029945Y-97894173D01*
X71994229Y-97908801D01*
X71969252Y-97921459D01*
X71960796Y-97928819D01*
X71950787Y-97937084D01*
X71924652Y-97950029D01*
X71891079Y-97963678D01*
X71855203Y-97978327D01*
X71830039Y-97990958D01*
X71821363Y-97998340D01*
X71811401Y-98006658D01*
X71785479Y-98019688D01*
X71754766Y-98032415D01*
X71716098Y-98048552D01*
X71684681Y-98064044D01*
X71670525Y-98073105D01*
X71649515Y-98086017D01*
X71616186Y-98101555D01*
X71597689Y-98108908D01*
X71582160Y-98114628D01*
X71567971Y-98119915D01*
X71555955Y-98124787D01*
X71546946Y-98129260D01*
X71541780Y-98133351D01*
X71541290Y-98137077D01*
X71415460Y-98137077D01*
X71421809Y-98131086D01*
X71440046Y-98107152D01*
X71459582Y-98076449D01*
X71474046Y-98049547D01*
X71491800Y-98016240D01*
X71507448Y-97991988D01*
X71514331Y-97984560D01*
X71526517Y-97969572D01*
X71542230Y-97941643D01*
X71548060Y-97929368D01*
X71562316Y-97901002D01*
X71573563Y-97884260D01*
X71576458Y-97882342D01*
X71585447Y-97872962D01*
X71600807Y-97848878D01*
X71612456Y-97827925D01*
X71633071Y-97792243D01*
X71653207Y-97762504D01*
X71661596Y-97752398D01*
X71677319Y-97730473D01*
X71679536Y-97723538D01*
X71937557Y-97723538D01*
X71946813Y-97721062D01*
X71970456Y-97710809D01*
X72002294Y-97695800D01*
X72036138Y-97679058D01*
X72065797Y-97663605D01*
X72085081Y-97652465D01*
X72088609Y-97649786D01*
X72100711Y-97642612D01*
X72129452Y-97627426D01*
X72170592Y-97606425D01*
X72219891Y-97581800D01*
X72222232Y-97580643D01*
X72271889Y-97555656D01*
X72313606Y-97533823D01*
X72343114Y-97517437D01*
X72356145Y-97508791D01*
X72356262Y-97508640D01*
X72370076Y-97498982D01*
X72397118Y-97485501D01*
X72407841Y-97480850D01*
X72449052Y-97460821D01*
X72489979Y-97436846D01*
X72494372Y-97433921D01*
X72524250Y-97416389D01*
X72548764Y-97406651D01*
X72553891Y-97405947D01*
X72575957Y-97398494D01*
X72594766Y-97385066D01*
X72619441Y-97367929D01*
X72654670Y-97349678D01*
X72668613Y-97343717D01*
X72706382Y-97326333D01*
X72739381Y-97307359D01*
X72747589Y-97301494D01*
X72779897Y-97282536D01*
X72807987Y-97272549D01*
X72840744Y-97259992D01*
X72862633Y-97245450D01*
X72886579Y-97228844D01*
X72921364Y-97210234D01*
X72936825Y-97203210D01*
X72973276Y-97185665D01*
X73003902Y-97167603D01*
X73012351Y-97161342D01*
X73037098Y-97145648D01*
X73073047Y-97128361D01*
X73090782Y-97121246D01*
X73122240Y-97108008D01*
X73142226Y-97096677D01*
X73145974Y-97092223D01*
X73151478Y-97087511D01*
X73471317Y-97087511D01*
X73475085Y-97093658D01*
X73488349Y-97098094D01*
X73514051Y-97101063D01*
X73555134Y-97102809D01*
X73614540Y-97103576D01*
X73665942Y-97103664D01*
X73731452Y-97103116D01*
X73789145Y-97101712D01*
X73834877Y-97099627D01*
X73864501Y-97097034D01*
X73873530Y-97094950D01*
X73886016Y-97080172D01*
X73903285Y-97052112D01*
X73912854Y-97034126D01*
X73929639Y-97002872D01*
X73943163Y-96981247D01*
X73947712Y-96976029D01*
X73957602Y-96962973D01*
X73973051Y-96936438D01*
X73981492Y-96920355D01*
X74001765Y-96885031D01*
X74022750Y-96855359D01*
X74029530Y-96847733D01*
X74046484Y-96825679D01*
X74052287Y-96809739D01*
X74059651Y-96790517D01*
X74074456Y-96770705D01*
X74093235Y-96745752D01*
X74114550Y-96710793D01*
X74122494Y-96695893D01*
X74139090Y-96665054D01*
X74152265Y-96643878D01*
X74156384Y-96639066D01*
X74166114Y-96626216D01*
X74182116Y-96599809D01*
X74192586Y-96580969D01*
X74211902Y-96547392D01*
X74229233Y-96520980D01*
X74235620Y-96513000D01*
X74250060Y-96491888D01*
X74265503Y-96461271D01*
X74266981Y-96457808D01*
X74280420Y-96431996D01*
X74292500Y-96418758D01*
X74294346Y-96418298D01*
X74305680Y-96408620D01*
X74311280Y-96395059D01*
X74313386Y-96386433D01*
X74312682Y-96379937D01*
X74306330Y-96375230D01*
X74291491Y-96371971D01*
X74265327Y-96369820D01*
X74225000Y-96368434D01*
X74167671Y-96367473D01*
X74090501Y-96366595D01*
X74072774Y-96366404D01*
X74004874Y-96365940D01*
X73955807Y-96367539D01*
X73921164Y-96373114D01*
X73896540Y-96384578D01*
X73877528Y-96403844D01*
X73859721Y-96432828D01*
X73842254Y-96466509D01*
X73823975Y-96499337D01*
X73807192Y-96524671D01*
X73801972Y-96530839D01*
X73787855Y-96550738D01*
X73771157Y-96581873D01*
X73766225Y-96592570D01*
X73752036Y-96620813D01*
X73740406Y-96637311D01*
X73737364Y-96639066D01*
X73727956Y-96648603D01*
X73713150Y-96672951D01*
X73703705Y-96691354D01*
X73687605Y-96721372D01*
X73674446Y-96740283D01*
X73669796Y-96743641D01*
X73660557Y-96753276D01*
X73645803Y-96778110D01*
X73633989Y-96801738D01*
X73617475Y-96833695D01*
X73603608Y-96854797D01*
X73597467Y-96859835D01*
X73588114Y-96869603D01*
X73573916Y-96894747D01*
X73563164Y-96917932D01*
X73547998Y-96950052D01*
X73535450Y-96971151D01*
X73530139Y-96976029D01*
X73519962Y-96985522D01*
X73504994Y-97008949D01*
X73489232Y-97038731D01*
X73476676Y-97067290D01*
X73471325Y-97087048D01*
X73471317Y-97087511D01*
X73151478Y-97087511D01*
X73155892Y-97083732D01*
X73181252Y-97071295D01*
X73201166Y-97063361D01*
X73263333Y-97029397D01*
X73314912Y-96976661D01*
X73355181Y-96908597D01*
X73371906Y-96876000D01*
X73385546Y-96854076D01*
X73391688Y-96848216D01*
X73400697Y-96838659D01*
X73415381Y-96814132D01*
X73426170Y-96793023D01*
X73445728Y-96756450D01*
X73465414Y-96725685D01*
X73473685Y-96715306D01*
X73489476Y-96693724D01*
X73494556Y-96679734D01*
X73501818Y-96662025D01*
X73515427Y-96644162D01*
X73532706Y-96620485D01*
X73553105Y-96585683D01*
X73562941Y-96566445D01*
X73579418Y-96535480D01*
X73593009Y-96515454D01*
X73598402Y-96511253D01*
X73608060Y-96501647D01*
X73622122Y-96477421D01*
X73628413Y-96464257D01*
X73648634Y-96426258D01*
X73671844Y-96391716D01*
X73676641Y-96385826D01*
X73694817Y-96360903D01*
X73703554Y-96341475D01*
X73703691Y-96339867D01*
X73711152Y-96320917D01*
X73724039Y-96304234D01*
X73740999Y-96281819D01*
X73761869Y-96247874D01*
X73773421Y-96226578D01*
X73793794Y-96190287D01*
X73813761Y-96160012D01*
X73822804Y-96148922D01*
X73838527Y-96126997D01*
X73843138Y-96112575D01*
X73850502Y-96093353D01*
X73865307Y-96073541D01*
X73884086Y-96048589D01*
X73905401Y-96013629D01*
X73913345Y-95998729D01*
X73930001Y-95967884D01*
X73943321Y-95946707D01*
X73947534Y-95941903D01*
X73958880Y-95928021D01*
X73969620Y-95909949D01*
X73976173Y-95880437D01*
X73964366Y-95847664D01*
X73934521Y-95809725D01*
X73918282Y-95787117D01*
X73912854Y-95771230D01*
X73905244Y-95751954D01*
X73891624Y-95734763D01*
X73874070Y-95711811D01*
X73853583Y-95677622D01*
X73844110Y-95659237D01*
X73827920Y-95628586D01*
X73814922Y-95608898D01*
X73810128Y-95604940D01*
X73800911Y-95595528D01*
X73785443Y-95571336D01*
X73773518Y-95549748D01*
X73752906Y-95513490D01*
X73732733Y-95482848D01*
X73724155Y-95472031D01*
X73708555Y-95449435D01*
X73703705Y-95434268D01*
X73696093Y-95415056D01*
X73682164Y-95397489D01*
X73663645Y-95374309D01*
X73641809Y-95340697D01*
X73632781Y-95324932D01*
X73611976Y-95289765D01*
X73591694Y-95260066D01*
X73584606Y-95251327D01*
X73569153Y-95229570D01*
X73564272Y-95215690D01*
X73556964Y-95198653D01*
X73539379Y-95175923D01*
X73539253Y-95175789D01*
X73514234Y-95148934D01*
X73493034Y-95176502D01*
X73477601Y-95201000D01*
X73471575Y-95218595D01*
X73464770Y-95232111D01*
X73460977Y-95233119D01*
X73450503Y-95242730D01*
X73435241Y-95267250D01*
X73426060Y-95285407D01*
X73410317Y-95315494D01*
X73397350Y-95334396D01*
X73392759Y-95337694D01*
X73383519Y-95347363D01*
X73368922Y-95372275D01*
X73357383Y-95395791D01*
X73341236Y-95427787D01*
X73327772Y-95448888D01*
X73321908Y-95453888D01*
X73312897Y-95463641D01*
X73298436Y-95488970D01*
X73284722Y-95517677D01*
X73268399Y-95551488D01*
X73254750Y-95574661D01*
X73247880Y-95581584D01*
X73238123Y-95591094D01*
X73222912Y-95615122D01*
X73214366Y-95631084D01*
X73197898Y-95661429D01*
X73184714Y-95682021D01*
X73180832Y-95686276D01*
X73170989Y-95699302D01*
X73155494Y-95725915D01*
X73146465Y-95743102D01*
X73126204Y-95778949D01*
X73105498Y-95809430D01*
X73098426Y-95817914D01*
X73082028Y-95839807D01*
X73076258Y-95854757D01*
X73069104Y-95872620D01*
X73055924Y-95890394D01*
X73038288Y-95914107D01*
X73016943Y-95948254D01*
X73007408Y-95965206D01*
X72989777Y-95996228D01*
X72975852Y-96017820D01*
X72971206Y-96023238D01*
X72961714Y-96036238D01*
X72946414Y-96062939D01*
X72936825Y-96081335D01*
X72920040Y-96112589D01*
X72906516Y-96134214D01*
X72901967Y-96139432D01*
X72892057Y-96152501D01*
X72876629Y-96179003D01*
X72868433Y-96194625D01*
X72852134Y-96223599D01*
X72839007Y-96241426D01*
X72834919Y-96244125D01*
X72826091Y-96253940D01*
X72811755Y-96279309D01*
X72798077Y-96308031D01*
X72781740Y-96341822D01*
X72768049Y-96364947D01*
X72761129Y-96371820D01*
X72751621Y-96381354D01*
X72736484Y-96405815D01*
X72725586Y-96426666D01*
X72705990Y-96462613D01*
X72686480Y-96492335D01*
X72678293Y-96502193D01*
X72662512Y-96523899D01*
X72657959Y-96538111D01*
X72650695Y-96557736D01*
X72637509Y-96575874D01*
X72620227Y-96599276D01*
X72599077Y-96633693D01*
X72588147Y-96653591D01*
X72570604Y-96684338D01*
X72556417Y-96704375D01*
X72550823Y-96708783D01*
X72541974Y-96718540D01*
X72528113Y-96743658D01*
X72517419Y-96766880D01*
X72502097Y-96799016D01*
X72489167Y-96820115D01*
X72483517Y-96824977D01*
X72473882Y-96834568D01*
X72459157Y-96859041D01*
X72450030Y-96877264D01*
X72434122Y-96907368D01*
X72420753Y-96926268D01*
X72415879Y-96929551D01*
X72406093Y-96939199D01*
X72390970Y-96964062D01*
X72379094Y-96987648D01*
X72362835Y-97019578D01*
X72349591Y-97040680D01*
X72344014Y-97045745D01*
X72334940Y-97055337D01*
X72321228Y-97079534D01*
X72314940Y-97092772D01*
X72299173Y-97123387D01*
X72284805Y-97144326D01*
X72280809Y-97147964D01*
X72269112Y-97162370D01*
X72252428Y-97191023D01*
X72239411Y-97217131D01*
X72222848Y-97249958D01*
X72209300Y-97272103D01*
X72203096Y-97278133D01*
X72194050Y-97287678D01*
X72179366Y-97312139D01*
X72168972Y-97332430D01*
X72149417Y-97368465D01*
X72129586Y-97398365D01*
X72121458Y-97407956D01*
X72105205Y-97429671D01*
X72100228Y-97444423D01*
X72092996Y-97464089D01*
X72079894Y-97482251D01*
X72062259Y-97505964D01*
X72040914Y-97540112D01*
X72031378Y-97557064D01*
X72013747Y-97588085D01*
X71999822Y-97609678D01*
X71995176Y-97615096D01*
X71986194Y-97627599D01*
X71971621Y-97652811D01*
X71955778Y-97682600D01*
X71942984Y-97708837D01*
X71937561Y-97723392D01*
X71937557Y-97723538D01*
X71679536Y-97723538D01*
X71681930Y-97716052D01*
X71689301Y-97697192D01*
X71706004Y-97674973D01*
X71725531Y-97648296D01*
X71746154Y-97611783D01*
X71753025Y-97597256D01*
X71768073Y-97567167D01*
X71780780Y-97548446D01*
X71785284Y-97545379D01*
X71795245Y-97535766D01*
X71809489Y-97511523D01*
X71815787Y-97498383D01*
X71836008Y-97460384D01*
X71859218Y-97425842D01*
X71864015Y-97419952D01*
X71882191Y-97395029D01*
X71890929Y-97375601D01*
X71891065Y-97373993D01*
X71898598Y-97355086D01*
X71911413Y-97338789D01*
X71928396Y-97316320D01*
X71948711Y-97282442D01*
X71958706Y-97263263D01*
X71975243Y-97232467D01*
X71988617Y-97212568D01*
X71993726Y-97208417D01*
X72002623Y-97198788D01*
X72017364Y-97173856D01*
X72030674Y-97147457D01*
X72050237Y-97110020D01*
X72069645Y-97078950D01*
X72079894Y-97066122D01*
X72095717Y-97044571D01*
X72100228Y-97030507D01*
X72107592Y-97011285D01*
X72122397Y-96991473D01*
X72141177Y-96966521D01*
X72162492Y-96931562D01*
X72170436Y-96916661D01*
X72187031Y-96885823D01*
X72200206Y-96864646D01*
X72204325Y-96859835D01*
X72214055Y-96846985D01*
X72230057Y-96820577D01*
X72240528Y-96801738D01*
X72259830Y-96768176D01*
X72277132Y-96741793D01*
X72283505Y-96733826D01*
X72298914Y-96712884D01*
X72316121Y-96683392D01*
X72317079Y-96681538D01*
X72331882Y-96655416D01*
X72343333Y-96639854D01*
X72344296Y-96639066D01*
X72354033Y-96626059D01*
X72369491Y-96599344D01*
X72379094Y-96580969D01*
X72395878Y-96549716D01*
X72409403Y-96528091D01*
X72413952Y-96522872D01*
X72423862Y-96509804D01*
X72439290Y-96483302D01*
X72447485Y-96467680D01*
X72463785Y-96438705D01*
X72476911Y-96420879D01*
X72481000Y-96418180D01*
X72489828Y-96408365D01*
X72504163Y-96382995D01*
X72517842Y-96354273D01*
X72534143Y-96320487D01*
X72547745Y-96297362D01*
X72554568Y-96290485D01*
X72563915Y-96280933D01*
X72578797Y-96256455D01*
X72589216Y-96236188D01*
X72608770Y-96200153D01*
X72628602Y-96170252D01*
X72636730Y-96160662D01*
X72652983Y-96138946D01*
X72657959Y-96124194D01*
X72665323Y-96104972D01*
X72680128Y-96085161D01*
X72698908Y-96060208D01*
X72720223Y-96025249D01*
X72728167Y-96010348D01*
X72744762Y-95979510D01*
X72757937Y-95958334D01*
X72762056Y-95953522D01*
X72771786Y-95940672D01*
X72787788Y-95914264D01*
X72798259Y-95895425D01*
X72815711Y-95864401D01*
X72829228Y-95842787D01*
X72833594Y-95837328D01*
X72842731Y-95824258D01*
X72857606Y-95797882D01*
X72865237Y-95783208D01*
X72881614Y-95753640D01*
X72894904Y-95734356D01*
X72898751Y-95730921D01*
X72908798Y-95719137D01*
X72924871Y-95693171D01*
X72936582Y-95671752D01*
X72953808Y-95641024D01*
X72967320Y-95620987D01*
X72972359Y-95616560D01*
X72980691Y-95606945D01*
X72994832Y-95582160D01*
X73006541Y-95558463D01*
X73022829Y-95526530D01*
X73036144Y-95505428D01*
X73041785Y-95500366D01*
X73050756Y-95490759D01*
X73065432Y-95465992D01*
X73077400Y-95442269D01*
X73093839Y-95410372D01*
X73107199Y-95389270D01*
X73112822Y-95384172D01*
X73121831Y-95374616D01*
X73136516Y-95350088D01*
X73147305Y-95328980D01*
X73166862Y-95292406D01*
X73186548Y-95261641D01*
X73194819Y-95251262D01*
X73210611Y-95229680D01*
X73215690Y-95215690D01*
X73222952Y-95197981D01*
X73236562Y-95180118D01*
X73253840Y-95156441D01*
X73274240Y-95121639D01*
X73284076Y-95102401D01*
X73300511Y-95071441D01*
X73314002Y-95051415D01*
X73319315Y-95047209D01*
X73328555Y-95037574D01*
X73343309Y-95012740D01*
X73355123Y-94989112D01*
X73371467Y-94957173D01*
X73384921Y-94936071D01*
X73390688Y-94931015D01*
X73400003Y-94921433D01*
X73414514Y-94896986D01*
X73423560Y-94878855D01*
X73428131Y-94868751D01*
X73432095Y-94858151D01*
X73435497Y-94845416D01*
X73438377Y-94828910D01*
X73440781Y-94806996D01*
X73442751Y-94778036D01*
X73444330Y-94740394D01*
X73445562Y-94692433D01*
X73446489Y-94632515D01*
X73447155Y-94559003D01*
X73447603Y-94470261D01*
X73447876Y-94364652D01*
X73447991Y-94263614D01*
X73634003Y-94263614D01*
X73634023Y-94400432D01*
X73634137Y-94515908D01*
X73634410Y-94611941D01*
X73634910Y-94690429D01*
X73635704Y-94753268D01*
X73636858Y-94802357D01*
X73638441Y-94839593D01*
X73640519Y-94866873D01*
X73643158Y-94886096D01*
X73646427Y-94899159D01*
X73650393Y-94907960D01*
X73655121Y-94914396D01*
X73657076Y-94916556D01*
X73677129Y-94942743D01*
X73698897Y-94977738D01*
X73704727Y-94988464D01*
X73721031Y-95016576D01*
X73733994Y-95033433D01*
X73737597Y-95035590D01*
X73747608Y-95044835D01*
X73763810Y-95068375D01*
X73773607Y-95084972D01*
X73794536Y-95119366D01*
X73814771Y-95148103D01*
X73821320Y-95155909D01*
X73840734Y-95182966D01*
X73855263Y-95211101D01*
X73867813Y-95234547D01*
X73878887Y-95244726D01*
X73879169Y-95244739D01*
X73889981Y-95254164D01*
X73905673Y-95277956D01*
X73912854Y-95291216D01*
X73928830Y-95319205D01*
X73941616Y-95335866D01*
X73945044Y-95337875D01*
X73954389Y-95347535D01*
X73969571Y-95372255D01*
X73981952Y-95395972D01*
X73999056Y-95427754D01*
X74013256Y-95448791D01*
X74019479Y-95453888D01*
X74029752Y-95463299D01*
X74045116Y-95487059D01*
X74052287Y-95500366D01*
X74068263Y-95528354D01*
X74081049Y-95545016D01*
X74084476Y-95547024D01*
X74093822Y-95556684D01*
X74109004Y-95581404D01*
X74121385Y-95605121D01*
X74138489Y-95636903D01*
X74152688Y-95657940D01*
X74158912Y-95663037D01*
X74169234Y-95672439D01*
X74184540Y-95696114D01*
X74191173Y-95708443D01*
X74207236Y-95737046D01*
X74220195Y-95755202D01*
X74223362Y-95757825D01*
X74233648Y-95769572D01*
X74249999Y-95795210D01*
X74260661Y-95814089D01*
X74281316Y-95847709D01*
X74301772Y-95873914D01*
X74310044Y-95881560D01*
X74327024Y-95900367D01*
X74331152Y-95912914D01*
X74338540Y-95931996D01*
X74356478Y-95956386D01*
X74358014Y-95958070D01*
X74381272Y-95988115D01*
X74403971Y-96024797D01*
X74407397Y-96031290D01*
X74424969Y-96061831D01*
X74441199Y-96083796D01*
X74444925Y-96087343D01*
X74461336Y-96106413D01*
X74474280Y-96128011D01*
X74497849Y-96153117D01*
X74528989Y-96162954D01*
X74549814Y-96164319D01*
X74590080Y-96165440D01*
X74645988Y-96166309D01*
X74713743Y-96166920D01*
X74789545Y-96167264D01*
X74869598Y-96167335D01*
X74950104Y-96167126D01*
X75027267Y-96166629D01*
X75097288Y-96165837D01*
X75156371Y-96164743D01*
X75177246Y-96164184D01*
X75208166Y-96162089D01*
X75221066Y-96156198D01*
X75221156Y-96143329D01*
X75219672Y-96138285D01*
X75205330Y-96110960D01*
X75189841Y-96091808D01*
X75173205Y-96070187D01*
X75167735Y-96055192D01*
X75160663Y-96037218D01*
X75143386Y-96012446D01*
X75140685Y-96009233D01*
X75118079Y-95977585D01*
X75096362Y-95939065D01*
X75092457Y-95930802D01*
X75077806Y-95902410D01*
X75065605Y-95885691D01*
X75062225Y-95883806D01*
X75052304Y-95874311D01*
X75036922Y-95850059D01*
X75027072Y-95831518D01*
X75010680Y-95801587D01*
X74997545Y-95782666D01*
X74992999Y-95779231D01*
X74984069Y-95769626D01*
X74969420Y-95744861D01*
X74957457Y-95721134D01*
X74940979Y-95689233D01*
X74927524Y-95668131D01*
X74921814Y-95663037D01*
X74912464Y-95653557D01*
X74897451Y-95629337D01*
X74887639Y-95610750D01*
X74871279Y-95580821D01*
X74858220Y-95561901D01*
X74853730Y-95558463D01*
X74844702Y-95548872D01*
X74831017Y-95524677D01*
X74824729Y-95511436D01*
X74809055Y-95480831D01*
X74794910Y-95459891D01*
X74791011Y-95456244D01*
X74778857Y-95441894D01*
X74761306Y-95413998D01*
X74749693Y-95392886D01*
X74732427Y-95362154D01*
X74718817Y-95342117D01*
X74713695Y-95337694D01*
X74705036Y-95328112D01*
X74691574Y-95303938D01*
X74685297Y-95290668D01*
X74669620Y-95260062D01*
X74655469Y-95239123D01*
X74651568Y-95235476D01*
X74639634Y-95220975D01*
X74622782Y-95192795D01*
X74612097Y-95172118D01*
X74595511Y-95141185D01*
X74581928Y-95121157D01*
X74576581Y-95116926D01*
X74567052Y-95107315D01*
X74553404Y-95083212D01*
X74548258Y-95072152D01*
X74527585Y-95033536D01*
X74502865Y-94997698D01*
X74499559Y-94993721D01*
X74480717Y-94968828D01*
X74470970Y-94950121D01*
X74470599Y-94947730D01*
X74463322Y-94930819D01*
X74448416Y-94911602D01*
X74429447Y-94886478D01*
X74408131Y-94851634D01*
X74400869Y-94838060D01*
X74380610Y-94802510D01*
X74359867Y-94772302D01*
X74353321Y-94764518D01*
X74336923Y-94742626D01*
X74331152Y-94727676D01*
X74323998Y-94709813D01*
X74310818Y-94692039D01*
X74293183Y-94668326D01*
X74271838Y-94634179D01*
X74262303Y-94617227D01*
X74244765Y-94586216D01*
X74231064Y-94564625D01*
X74226578Y-94559195D01*
X74216918Y-94546353D01*
X74200893Y-94520288D01*
X74191618Y-94504002D01*
X74174285Y-94475310D01*
X74160820Y-94457497D01*
X74156708Y-94454620D01*
X74148084Y-94444999D01*
X74133746Y-94420198D01*
X74122003Y-94396523D01*
X74105616Y-94364579D01*
X74092058Y-94343478D01*
X74086195Y-94338426D01*
X74076714Y-94328871D01*
X74061744Y-94304386D01*
X74051314Y-94284130D01*
X74031759Y-94248094D01*
X74011928Y-94218194D01*
X74003800Y-94208603D01*
X73987547Y-94186888D01*
X73982570Y-94172136D01*
X73975203Y-94153093D01*
X73959483Y-94132116D01*
X73939914Y-94106356D01*
X73918149Y-94071048D01*
X73910752Y-94057304D01*
X73892537Y-94025766D01*
X73875787Y-94003209D01*
X73869932Y-93997981D01*
X73856177Y-93980786D01*
X73854757Y-93973534D01*
X73847434Y-93955068D01*
X73829700Y-93931112D01*
X73828613Y-93929915D01*
X73807739Y-93902209D01*
X73784899Y-93864735D01*
X73775511Y-93846883D01*
X73758758Y-93816168D01*
X73744931Y-93796375D01*
X73739513Y-93792314D01*
X73729718Y-93782705D01*
X73715575Y-93758471D01*
X73709281Y-93745318D01*
X73689060Y-93707319D01*
X73665850Y-93672777D01*
X73661053Y-93666887D01*
X73634017Y-93635453D01*
X73634003Y-94263614D01*
X73447991Y-94263614D01*
X73448017Y-94240537D01*
X73448070Y-94096281D01*
X73448078Y-93949303D01*
X73447954Y-93808798D01*
X73447593Y-93675247D01*
X73447016Y-93550441D01*
X73446242Y-93436170D01*
X73445292Y-93334223D01*
X73444184Y-93246392D01*
X73442939Y-93174466D01*
X73441575Y-93120235D01*
X73440114Y-93085489D01*
X73438574Y-93072020D01*
X73438422Y-93071912D01*
X73426881Y-93081150D01*
X73412512Y-93103415D01*
X73412279Y-93103865D01*
X73393044Y-93135421D01*
X73375457Y-93158343D01*
X73359995Y-93180068D01*
X73355123Y-93193915D01*
X73347969Y-93211778D01*
X73334789Y-93229552D01*
X73317122Y-93253227D01*
X73295660Y-93287325D01*
X73285986Y-93304365D01*
X73264966Y-93339807D01*
X73244344Y-93369743D01*
X73236604Y-93379112D01*
X73220803Y-93400398D01*
X73215676Y-93413970D01*
X73208653Y-93430152D01*
X73191321Y-93454450D01*
X73186717Y-93459960D01*
X73162270Y-93494011D01*
X73140367Y-93533258D01*
X73138017Y-93538391D01*
X73123984Y-93566028D01*
X73112425Y-93581774D01*
X73109695Y-93583165D01*
X73100230Y-93592712D01*
X73085151Y-93617217D01*
X73074168Y-93638357D01*
X73057386Y-93670173D01*
X73043554Y-93691975D01*
X73038184Y-93697526D01*
X73027796Y-93709501D01*
X73012365Y-93734900D01*
X73005994Y-93746909D01*
X72990024Y-93774494D01*
X72977027Y-93790604D01*
X72973667Y-93792314D01*
X72964473Y-93802072D01*
X72949884Y-93827409D01*
X72936140Y-93856103D01*
X72919818Y-93889915D01*
X72906168Y-93913088D01*
X72899298Y-93920010D01*
X72889401Y-93929486D01*
X72874264Y-93953274D01*
X72867108Y-93966605D01*
X72851123Y-93994550D01*
X72838304Y-94011121D01*
X72834851Y-94013083D01*
X72825710Y-94022749D01*
X72811180Y-94047656D01*
X72799652Y-94071180D01*
X72783424Y-94103185D01*
X72769763Y-94124286D01*
X72763722Y-94129277D01*
X72753782Y-94138890D01*
X72739549Y-94163134D01*
X72733238Y-94176303D01*
X72717377Y-94206928D01*
X72702783Y-94227867D01*
X72698690Y-94231495D01*
X72686355Y-94246057D01*
X72669427Y-94274353D01*
X72658998Y-94294853D01*
X72642670Y-94325845D01*
X72629180Y-94345869D01*
X72623829Y-94350045D01*
X72614171Y-94359651D01*
X72600109Y-94383878D01*
X72593819Y-94397042D01*
X72573598Y-94435041D01*
X72550388Y-94469583D01*
X72545591Y-94475472D01*
X72527479Y-94499721D01*
X72518696Y-94517746D01*
X72518541Y-94519240D01*
X72511401Y-94536520D01*
X72498193Y-94554164D01*
X72480526Y-94577839D01*
X72459064Y-94611936D01*
X72449390Y-94628976D01*
X72428369Y-94664419D01*
X72407748Y-94694354D01*
X72400007Y-94703723D01*
X72384206Y-94725009D01*
X72379080Y-94738581D01*
X72372067Y-94754984D01*
X72354914Y-94778926D01*
X72352030Y-94782349D01*
X72329424Y-94813997D01*
X72307707Y-94852517D01*
X72303802Y-94860780D01*
X72289198Y-94889167D01*
X72277112Y-94905888D01*
X72273791Y-94907776D01*
X72264262Y-94917364D01*
X72249319Y-94941963D01*
X72238623Y-94962969D01*
X72221209Y-94995891D01*
X72205542Y-95019626D01*
X72198930Y-95026327D01*
X72186230Y-95041330D01*
X72170217Y-95069287D01*
X72164382Y-95081519D01*
X72150126Y-95109884D01*
X72138879Y-95126627D01*
X72135984Y-95128545D01*
X72126994Y-95137924D01*
X72111635Y-95162009D01*
X72099986Y-95182962D01*
X72079371Y-95218644D01*
X72059235Y-95248383D01*
X72050846Y-95258488D01*
X72035233Y-95278892D01*
X72030512Y-95291216D01*
X72023098Y-95307712D01*
X72010178Y-95323516D01*
X71993196Y-95345984D01*
X71972880Y-95379863D01*
X71962885Y-95399042D01*
X71946348Y-95429838D01*
X71932974Y-95449737D01*
X71927865Y-95453888D01*
X71918878Y-95463495D01*
X71904191Y-95488263D01*
X71892222Y-95511985D01*
X71875580Y-95543904D01*
X71861728Y-95565006D01*
X71855657Y-95570082D01*
X71845878Y-95579627D01*
X71830833Y-95603996D01*
X71821363Y-95622369D01*
X71805262Y-95652388D01*
X71792104Y-95671298D01*
X71787454Y-95674657D01*
X71778215Y-95684292D01*
X71763461Y-95709126D01*
X71751646Y-95732754D01*
X71735302Y-95764693D01*
X71721849Y-95785794D01*
X71716082Y-95790850D01*
X71706771Y-95800434D01*
X71692256Y-95824889D01*
X71683150Y-95843138D01*
X71667416Y-95873265D01*
X71654480Y-95892251D01*
X71649917Y-95895606D01*
X71640473Y-95905269D01*
X71625224Y-95929994D01*
X71612832Y-95953703D01*
X71595870Y-95985469D01*
X71582014Y-96006506D01*
X71576106Y-96011619D01*
X71566727Y-96021155D01*
X71551941Y-96045501D01*
X71542497Y-96063906D01*
X71526397Y-96093925D01*
X71513238Y-96112835D01*
X71508589Y-96116194D01*
X71499349Y-96125829D01*
X71484595Y-96150663D01*
X71472781Y-96174291D01*
X71456394Y-96206234D01*
X71442835Y-96227336D01*
X71436973Y-96232388D01*
X71427492Y-96241943D01*
X71412522Y-96266428D01*
X71402092Y-96286684D01*
X71382537Y-96322719D01*
X71362706Y-96352620D01*
X71354578Y-96362210D01*
X71338341Y-96383632D01*
X71333334Y-96397964D01*
X71326365Y-96416112D01*
X71309386Y-96440999D01*
X71307190Y-96443669D01*
X71288276Y-96469144D01*
X71263004Y-96506942D01*
X71236593Y-96549238D01*
X71234583Y-96552589D01*
X71209777Y-96592713D01*
X71187185Y-96626894D01*
X71171212Y-96648500D01*
X71169781Y-96650117D01*
X71154030Y-96672072D01*
X71134688Y-96705525D01*
X71125172Y-96724203D01*
X71108812Y-96754871D01*
X71095406Y-96774558D01*
X71090290Y-96778499D01*
X71081051Y-96788134D01*
X71066297Y-96812968D01*
X71054483Y-96836596D01*
X71038138Y-96868535D01*
X71024685Y-96889637D01*
X71018918Y-96894693D01*
X71009608Y-96904276D01*
X70995092Y-96928732D01*
X70985986Y-96946980D01*
X70970253Y-96977067D01*
X70957309Y-96995969D01*
X70952733Y-96999268D01*
X70942969Y-97008697D01*
X70927149Y-97032930D01*
X70915201Y-97054460D01*
X70896098Y-97088739D01*
X70878997Y-97115676D01*
X70871936Y-97124718D01*
X70857424Y-97145057D01*
X70840839Y-97175042D01*
X70838754Y-97179350D01*
X70828221Y-97204573D01*
X70826998Y-97224082D01*
X70576570Y-97224082D01*
X70575708Y-97199917D01*
X70581285Y-97174511D01*
X70592896Y-97150080D01*
X70602975Y-97138791D01*
X70603637Y-97138700D01*
X70613798Y-97129303D01*
X70629007Y-97105637D01*
X70635638Y-97093295D01*
X70651701Y-97064691D01*
X70664660Y-97046536D01*
X70667827Y-97043912D01*
X70677641Y-97031996D01*
X70693028Y-97005753D01*
X70703811Y-96984743D01*
X70720448Y-96953807D01*
X70734147Y-96933779D01*
X70739588Y-96929551D01*
X70748951Y-96919913D01*
X70763789Y-96895073D01*
X70775617Y-96871454D01*
X70792004Y-96839511D01*
X70805563Y-96818409D01*
X70811425Y-96813357D01*
X70820979Y-96803818D01*
X70835878Y-96779461D01*
X70845333Y-96761070D01*
X70861259Y-96731070D01*
X70873996Y-96712157D01*
X70878343Y-96708783D01*
X70887560Y-96699371D01*
X70903028Y-96675178D01*
X70914954Y-96653591D01*
X70935565Y-96617333D01*
X70955738Y-96586691D01*
X70964316Y-96575874D01*
X70979850Y-96554180D01*
X70984766Y-96540302D01*
X70991952Y-96522476D01*
X71005216Y-96504729D01*
X71022498Y-96481327D01*
X71043648Y-96446910D01*
X71054579Y-96427012D01*
X71071991Y-96396280D01*
X71085862Y-96376243D01*
X71091189Y-96371820D01*
X71100218Y-96362293D01*
X71114779Y-96337966D01*
X71124199Y-96319533D01*
X71140374Y-96289506D01*
X71153714Y-96270597D01*
X71158493Y-96267246D01*
X71167994Y-96257627D01*
X71183029Y-96232832D01*
X71195058Y-96209149D01*
X71211536Y-96177248D01*
X71224991Y-96156146D01*
X71230702Y-96151052D01*
X71239877Y-96141512D01*
X71254765Y-96117023D01*
X71265721Y-96095860D01*
X71282503Y-96064044D01*
X71296335Y-96042242D01*
X71301705Y-96036691D01*
X71311934Y-96024750D01*
X71327444Y-95999101D01*
X71335220Y-95984404D01*
X71351383Y-95954410D01*
X71364051Y-95934209D01*
X71367476Y-95930283D01*
X71377657Y-95917554D01*
X71394454Y-95892057D01*
X71403065Y-95877996D01*
X71421227Y-95849082D01*
X71435088Y-95829537D01*
X71438653Y-95825709D01*
X71448122Y-95812654D01*
X71463275Y-95786179D01*
X71471456Y-95770517D01*
X71487766Y-95741568D01*
X71500925Y-95723798D01*
X71505038Y-95721134D01*
X71514179Y-95711468D01*
X71528709Y-95686561D01*
X71540237Y-95663037D01*
X71556267Y-95631054D01*
X71569443Y-95609952D01*
X71575047Y-95604940D01*
X71584518Y-95595518D01*
X71600141Y-95571302D01*
X71612062Y-95549748D01*
X71631295Y-95515321D01*
X71648668Y-95488113D01*
X71655886Y-95478931D01*
X71671418Y-95457983D01*
X71688681Y-95428484D01*
X71689632Y-95426644D01*
X71704302Y-95400534D01*
X71715448Y-95384968D01*
X71716371Y-95384172D01*
X71726072Y-95371324D01*
X71742062Y-95344928D01*
X71752513Y-95326139D01*
X71773266Y-95290656D01*
X71793507Y-95260678D01*
X71801029Y-95251327D01*
X71816465Y-95229860D01*
X71821377Y-95216404D01*
X71828390Y-95200001D01*
X71845543Y-95176060D01*
X71848427Y-95172636D01*
X71871033Y-95140988D01*
X71892749Y-95102469D01*
X71896655Y-95094205D01*
X71911306Y-95065814D01*
X71923507Y-95049094D01*
X71926887Y-95047209D01*
X71936807Y-95037715D01*
X71952190Y-95013463D01*
X71962040Y-94994922D01*
X71978431Y-94964990D01*
X71991567Y-94946070D01*
X71996113Y-94942635D01*
X72005043Y-94933029D01*
X72019691Y-94908264D01*
X72031654Y-94884538D01*
X72048175Y-94852632D01*
X72061733Y-94831530D01*
X72067536Y-94826441D01*
X72076539Y-94816777D01*
X72090976Y-94791878D01*
X72102488Y-94768344D01*
X72118586Y-94736353D01*
X72131931Y-94715252D01*
X72137687Y-94710247D01*
X72147668Y-94700854D01*
X72162770Y-94677199D01*
X72169398Y-94664841D01*
X72185461Y-94636237D01*
X72198420Y-94618082D01*
X72201587Y-94615458D01*
X72211401Y-94603542D01*
X72226788Y-94577299D01*
X72237571Y-94556290D01*
X72254249Y-94525348D01*
X72268048Y-94505321D01*
X72273570Y-94501098D01*
X72283363Y-94491488D01*
X72297508Y-94467252D01*
X72303815Y-94454071D01*
X72319677Y-94423446D01*
X72334270Y-94402508D01*
X72338363Y-94398879D01*
X72350698Y-94384317D01*
X72367627Y-94356021D01*
X72378055Y-94335521D01*
X72394202Y-94304549D01*
X72407253Y-94284524D01*
X72412245Y-94280329D01*
X72421109Y-94270725D01*
X72435713Y-94245964D01*
X72447668Y-94222232D01*
X72464266Y-94190318D01*
X72478013Y-94169216D01*
X72483989Y-94164135D01*
X72493525Y-94154546D01*
X72508186Y-94130078D01*
X72517306Y-94111848D01*
X72533039Y-94081761D01*
X72545984Y-94062859D01*
X72550559Y-94059560D01*
X72560331Y-94050135D01*
X72576170Y-94025910D01*
X72588147Y-94004368D01*
X72608758Y-93968111D01*
X72628931Y-93937469D01*
X72637509Y-93926651D01*
X72653026Y-93905247D01*
X72657973Y-93891793D01*
X72664986Y-93875390D01*
X72682139Y-93851448D01*
X72685023Y-93848025D01*
X72707629Y-93816377D01*
X72729346Y-93777858D01*
X72733252Y-93769594D01*
X72747903Y-93741203D01*
X72760103Y-93724483D01*
X72763483Y-93722598D01*
X72773404Y-93713104D01*
X72788786Y-93688852D01*
X72798637Y-93670311D01*
X72814953Y-93640387D01*
X72827909Y-93621466D01*
X72832324Y-93618023D01*
X72840992Y-93608401D01*
X72855360Y-93583598D01*
X72867108Y-93559926D01*
X72883535Y-93527978D01*
X72897189Y-93506877D01*
X72903138Y-93501829D01*
X72912744Y-93492279D01*
X72927913Y-93467764D01*
X72938904Y-93446637D01*
X72956463Y-93413796D01*
X72971948Y-93390070D01*
X72978375Y-93383279D01*
X72990561Y-93368292D01*
X73006274Y-93340363D01*
X73012103Y-93328087D01*
X73026490Y-93299710D01*
X73038049Y-93282970D01*
X73041104Y-93281061D01*
X73050299Y-93271585D01*
X73065211Y-93247374D01*
X73075013Y-93228774D01*
X73091614Y-93198820D01*
X73105255Y-93179902D01*
X73110166Y-93176486D01*
X73119959Y-93166877D01*
X73134104Y-93142641D01*
X73140412Y-93129460D01*
X73156088Y-93098854D01*
X73170239Y-93077915D01*
X73174141Y-93074268D01*
X73186074Y-93059767D01*
X73202926Y-93031587D01*
X73213611Y-93010910D01*
X73230284Y-92979968D01*
X73244078Y-92959941D01*
X73249599Y-92955718D01*
X73256069Y-92949369D01*
X73499551Y-92949369D01*
X73500441Y-92952813D01*
X73511107Y-92982084D01*
X73514658Y-92993481D01*
X73524302Y-93010683D01*
X73530533Y-93013815D01*
X73541214Y-93023276D01*
X73557005Y-93047307D01*
X73565597Y-93063197D01*
X73582125Y-93093550D01*
X73595454Y-93114141D01*
X73599420Y-93118389D01*
X73609595Y-93131408D01*
X73625398Y-93157813D01*
X73633891Y-93173582D01*
X73650696Y-93202484D01*
X73664448Y-93220262D01*
X73668883Y-93222964D01*
X73678789Y-93232701D01*
X73689775Y-93256195D01*
X73690021Y-93256894D01*
X73706272Y-93289625D01*
X73724007Y-93312982D01*
X73742159Y-93336558D01*
X73763029Y-93371186D01*
X73772449Y-93389436D01*
X73788850Y-93420109D01*
X73802357Y-93439795D01*
X73807551Y-93443732D01*
X73817209Y-93453338D01*
X73831272Y-93477565D01*
X73837562Y-93490729D01*
X73857783Y-93528728D01*
X73880993Y-93563270D01*
X73885790Y-93569160D01*
X73903966Y-93594083D01*
X73912704Y-93613511D01*
X73912840Y-93615119D01*
X73920347Y-93634042D01*
X73933188Y-93650477D01*
X73950832Y-93673073D01*
X73972185Y-93706390D01*
X73981704Y-93723099D01*
X73999296Y-93753951D01*
X74013012Y-93775390D01*
X74017429Y-93780695D01*
X74027089Y-93793536D01*
X74043113Y-93819601D01*
X74052388Y-93835887D01*
X74069722Y-93864579D01*
X74083186Y-93882392D01*
X74087298Y-93885270D01*
X74095922Y-93894891D01*
X74110260Y-93919691D01*
X74122003Y-93943367D01*
X74138391Y-93975310D01*
X74151949Y-93996412D01*
X74157811Y-94001463D01*
X74167292Y-94011019D01*
X74182262Y-94035504D01*
X74192692Y-94055760D01*
X74212247Y-94091795D01*
X74232079Y-94121696D01*
X74240206Y-94131286D01*
X74256443Y-94152707D01*
X74261450Y-94167040D01*
X74268528Y-94184744D01*
X74285979Y-94209899D01*
X74290410Y-94215221D01*
X74314857Y-94249272D01*
X74336759Y-94288519D01*
X74339109Y-94293652D01*
X74353273Y-94321301D01*
X74365146Y-94337042D01*
X74368011Y-94338426D01*
X74378218Y-94347856D01*
X74393708Y-94371780D01*
X74401979Y-94387080D01*
X74420212Y-94419791D01*
X74436962Y-94444997D01*
X74442034Y-94450968D01*
X74456151Y-94470866D01*
X74472850Y-94502001D01*
X74477782Y-94512698D01*
X74492019Y-94540946D01*
X74503765Y-94557443D01*
X74506864Y-94559195D01*
X74516509Y-94568682D01*
X74531714Y-94592918D01*
X74541546Y-94611482D01*
X74557863Y-94641406D01*
X74570818Y-94660327D01*
X74575233Y-94663769D01*
X74583901Y-94673391D01*
X74598270Y-94698194D01*
X74610018Y-94721866D01*
X74626444Y-94753814D01*
X74640098Y-94774916D01*
X74646047Y-94779963D01*
X74655838Y-94789454D01*
X74671137Y-94813699D01*
X74680979Y-94832250D01*
X74697338Y-94862179D01*
X74710397Y-94881100D01*
X74714887Y-94884538D01*
X74723916Y-94894128D01*
X74737601Y-94918323D01*
X74743888Y-94931564D01*
X74759565Y-94962170D01*
X74773716Y-94983109D01*
X74777617Y-94986756D01*
X74789551Y-95001257D01*
X74806402Y-95029437D01*
X74817088Y-95050114D01*
X74833554Y-95081034D01*
X74846846Y-95101062D01*
X74851955Y-95105306D01*
X74861291Y-95114725D01*
X74876823Y-95138933D01*
X74888732Y-95160498D01*
X74908276Y-95195282D01*
X74926311Y-95223148D01*
X74933899Y-95232659D01*
X74949581Y-95254971D01*
X74965371Y-95285942D01*
X74966179Y-95287851D01*
X74979189Y-95313142D01*
X74990461Y-95325754D01*
X74991849Y-95326075D01*
X75002049Y-95335694D01*
X75016436Y-95359950D01*
X75022740Y-95373071D01*
X75042961Y-95411070D01*
X75066171Y-95445612D01*
X75070968Y-95451502D01*
X75089080Y-95475751D01*
X75097863Y-95493775D01*
X75098018Y-95495270D01*
X75105190Y-95512512D01*
X75118483Y-95530128D01*
X75135764Y-95553530D01*
X75156915Y-95587948D01*
X75167845Y-95607845D01*
X75185437Y-95638598D01*
X75199740Y-95658635D01*
X75205432Y-95663037D01*
X75214931Y-95672625D01*
X75229567Y-95697091D01*
X75238685Y-95715324D01*
X75254431Y-95745412D01*
X75267405Y-95764314D01*
X75272002Y-95767612D01*
X75281368Y-95777227D01*
X75296311Y-95802015D01*
X75308324Y-95825709D01*
X75324803Y-95857610D01*
X75338258Y-95878712D01*
X75343968Y-95883806D01*
X75353142Y-95893346D01*
X75368025Y-95917837D01*
X75378977Y-95938998D01*
X75396537Y-95971840D01*
X75412021Y-95995565D01*
X75418448Y-96002356D01*
X75430634Y-96017344D01*
X75446347Y-96045273D01*
X75452177Y-96057548D01*
X75466433Y-96085914D01*
X75477680Y-96102656D01*
X75480575Y-96104574D01*
X75489785Y-96113865D01*
X75505340Y-96137579D01*
X75515501Y-96155342D01*
X75536823Y-96186711D01*
X75567249Y-96217218D01*
X75609778Y-96249059D01*
X75667410Y-96284427D01*
X75743144Y-96325515D01*
X75760338Y-96334413D01*
X75805301Y-96358060D01*
X75843644Y-96379182D01*
X75869736Y-96394634D01*
X75876532Y-96399334D01*
X75896926Y-96412816D01*
X75928863Y-96430969D01*
X75946248Y-96440093D01*
X75985282Y-96460567D01*
X76032669Y-96486239D01*
X76068252Y-96506004D01*
X76140397Y-96546609D01*
X76197603Y-96578678D01*
X76245149Y-96605135D01*
X76288311Y-96628904D01*
X76332368Y-96652908D01*
X76377694Y-96677426D01*
X76424896Y-96703179D01*
X76465423Y-96725800D01*
X76494296Y-96742478D01*
X76505507Y-96749543D01*
X76525480Y-96761819D01*
X76556352Y-96778463D01*
X76567886Y-96784290D01*
X76597335Y-96799709D01*
X76616854Y-96811459D01*
X76620173Y-96814182D01*
X76633111Y-96822677D01*
X76660274Y-96837290D01*
X76684080Y-96849151D01*
X76719623Y-96867656D01*
X76747901Y-96884687D01*
X76758242Y-96892499D01*
X76779085Y-96906489D01*
X76810709Y-96922149D01*
X76819243Y-96925714D01*
X76847093Y-96938692D01*
X76862856Y-96949595D01*
X76864181Y-96952164D01*
X76874001Y-96960813D01*
X76899494Y-96974660D01*
X76928087Y-96987648D01*
X76962020Y-97003268D01*
X76985194Y-97016375D01*
X76991994Y-97022964D01*
X77001769Y-97031668D01*
X77027037Y-97045553D01*
X77052805Y-97057424D01*
X77088409Y-97074293D01*
X77115598Y-97089987D01*
X77125426Y-97097914D01*
X77142603Y-97110341D01*
X77173141Y-97125965D01*
X77192385Y-97134187D01*
X77223747Y-97148318D01*
X77243745Y-97160504D01*
X77247577Y-97165405D01*
X77257081Y-97175004D01*
X77279702Y-97188123D01*
X77306691Y-97200410D01*
X77329301Y-97207513D01*
X77333105Y-97207962D01*
X77338225Y-97199745D01*
X77336009Y-97190037D01*
X77329784Y-97169310D01*
X77328957Y-97163180D01*
X77321933Y-97149062D01*
X77308506Y-97132177D01*
X77291225Y-97108775D01*
X77270074Y-97074357D01*
X77259144Y-97054460D01*
X77241906Y-97023747D01*
X77228455Y-97003709D01*
X77223483Y-96999268D01*
X77215275Y-96989656D01*
X77201218Y-96964878D01*
X77189524Y-96941171D01*
X77173136Y-96909227D01*
X77159578Y-96888125D01*
X77153716Y-96883074D01*
X77144162Y-96873534D01*
X77129263Y-96849178D01*
X77119807Y-96830786D01*
X77103707Y-96800768D01*
X77090548Y-96781857D01*
X77085899Y-96778499D01*
X77076659Y-96768864D01*
X77061905Y-96744030D01*
X77050091Y-96720402D01*
X77033832Y-96688473D01*
X77020588Y-96667371D01*
X77015011Y-96662305D01*
X77005938Y-96652713D01*
X76992226Y-96628516D01*
X76985937Y-96615279D01*
X76970261Y-96584673D01*
X76956109Y-96563734D01*
X76952208Y-96560087D01*
X76940274Y-96545586D01*
X76923423Y-96517406D01*
X76912737Y-96496729D01*
X76896149Y-96465796D01*
X76882559Y-96445768D01*
X76877205Y-96441537D01*
X76868322Y-96431786D01*
X76853951Y-96406464D01*
X76840257Y-96377748D01*
X76823935Y-96343936D01*
X76810285Y-96320763D01*
X76803415Y-96313841D01*
X76793607Y-96304348D01*
X76778365Y-96280396D01*
X76770115Y-96265069D01*
X76751882Y-96232358D01*
X76735132Y-96207152D01*
X76730060Y-96201182D01*
X76715943Y-96181283D01*
X76699244Y-96150148D01*
X76694312Y-96139451D01*
X76679949Y-96111193D01*
X76667898Y-96094699D01*
X76664651Y-96092955D01*
X76654444Y-96083524D01*
X76638954Y-96059600D01*
X76630682Y-96044301D01*
X76612449Y-96011589D01*
X76595699Y-95986384D01*
X76590627Y-95980413D01*
X76576510Y-95960515D01*
X76559812Y-95929380D01*
X76554880Y-95918683D01*
X76540691Y-95890440D01*
X76529061Y-95873941D01*
X76526019Y-95872186D01*
X76516681Y-95862635D01*
X76501805Y-95838157D01*
X76491387Y-95817890D01*
X76471833Y-95781854D01*
X76452001Y-95751954D01*
X76443873Y-95742364D01*
X76427620Y-95720648D01*
X76422644Y-95705896D01*
X76415411Y-95686230D01*
X76402310Y-95668068D01*
X76384674Y-95644356D01*
X76363329Y-95610208D01*
X76353794Y-95593256D01*
X76336257Y-95562246D01*
X76322556Y-95540654D01*
X76318069Y-95535224D01*
X76308619Y-95522383D01*
X76292799Y-95495992D01*
X76282344Y-95477127D01*
X76263042Y-95443565D01*
X76245740Y-95417182D01*
X76239367Y-95409214D01*
X76223958Y-95388273D01*
X76206750Y-95358781D01*
X76205793Y-95356927D01*
X76191122Y-95330818D01*
X76179976Y-95315252D01*
X76179053Y-95314455D01*
X76169352Y-95301608D01*
X76153362Y-95275212D01*
X76142912Y-95256423D01*
X76122159Y-95220940D01*
X76101918Y-95190962D01*
X76094396Y-95181611D01*
X76078876Y-95158949D01*
X76074062Y-95143783D01*
X76066514Y-95124280D01*
X76053728Y-95107865D01*
X76036745Y-95085396D01*
X76016430Y-95051518D01*
X76006435Y-95032339D01*
X75989716Y-95001523D01*
X75975901Y-94981626D01*
X75970437Y-94977493D01*
X75960643Y-94967884D01*
X75946499Y-94943650D01*
X75940205Y-94930497D01*
X75919984Y-94892498D01*
X75896774Y-94857955D01*
X75891977Y-94852066D01*
X75873801Y-94827142D01*
X75865063Y-94807714D01*
X75864927Y-94806107D01*
X75857465Y-94787156D01*
X75844579Y-94770474D01*
X75827303Y-94747919D01*
X75806157Y-94714210D01*
X75795439Y-94694948D01*
X75778122Y-94664504D01*
X75764584Y-94644754D01*
X75759662Y-94640530D01*
X75751330Y-94630916D01*
X75737189Y-94606131D01*
X75725480Y-94582433D01*
X75709192Y-94550500D01*
X75695877Y-94529399D01*
X75690236Y-94524336D01*
X75681265Y-94514730D01*
X75666589Y-94489963D01*
X75654621Y-94466239D01*
X75638143Y-94434338D01*
X75624687Y-94413236D01*
X75618977Y-94408142D01*
X75609801Y-94398603D01*
X75594914Y-94374114D01*
X75583957Y-94352950D01*
X75567176Y-94321135D01*
X75553343Y-94299332D01*
X75547973Y-94293781D01*
X75537745Y-94281840D01*
X75522235Y-94256192D01*
X75514459Y-94241494D01*
X75498140Y-94211483D01*
X75485101Y-94191282D01*
X75481473Y-94187374D01*
X75471700Y-94174366D01*
X75456219Y-94147648D01*
X75446614Y-94129277D01*
X75429924Y-94098035D01*
X75416627Y-94076410D01*
X75412234Y-94071180D01*
X75402497Y-94058331D01*
X75386484Y-94031933D01*
X75376031Y-94013148D01*
X75355279Y-93977665D01*
X75335038Y-93947686D01*
X75327516Y-93938336D01*
X75312063Y-93916578D01*
X75307182Y-93902699D01*
X75299912Y-93885001D01*
X75286268Y-93867127D01*
X75268249Y-93843477D01*
X75246570Y-93809385D01*
X75236886Y-93792379D01*
X75215989Y-93756938D01*
X75195662Y-93726976D01*
X75188083Y-93717567D01*
X75172630Y-93695810D01*
X75167749Y-93681930D01*
X75160595Y-93664067D01*
X75147415Y-93646293D01*
X75129779Y-93622581D01*
X75108434Y-93588433D01*
X75098899Y-93571481D01*
X75081268Y-93540459D01*
X75067343Y-93518867D01*
X75062697Y-93513449D01*
X75053206Y-93500449D01*
X75037905Y-93473748D01*
X75028316Y-93455352D01*
X75011531Y-93424098D01*
X74998007Y-93402473D01*
X74993458Y-93397255D01*
X74983503Y-93384158D01*
X74968122Y-93357733D01*
X74960471Y-93343135D01*
X74944094Y-93313567D01*
X74930804Y-93294283D01*
X74926957Y-93290847D01*
X74917143Y-93278931D01*
X74901756Y-93252688D01*
X74890973Y-93231678D01*
X74874336Y-93200742D01*
X74860637Y-93180715D01*
X74855196Y-93176486D01*
X74845833Y-93166848D01*
X74830995Y-93142008D01*
X74819167Y-93118389D01*
X74803063Y-93086477D01*
X74790197Y-93065375D01*
X74784965Y-93060292D01*
X74775833Y-93050969D01*
X74761272Y-93027578D01*
X74755433Y-93016720D01*
X74746398Y-92998263D01*
X74738684Y-92982703D01*
X74730353Y-92969795D01*
X74719468Y-92959293D01*
X74704094Y-92950950D01*
X74682294Y-92944521D01*
X74652132Y-92939760D01*
X74611670Y-92936420D01*
X74558973Y-92934256D01*
X74492103Y-92933023D01*
X74409126Y-92932473D01*
X74308103Y-92932361D01*
X74187098Y-92932441D01*
X74092197Y-92932479D01*
X73958692Y-92932514D01*
X73846597Y-92932660D01*
X73754084Y-92932981D01*
X73679326Y-92933540D01*
X73620493Y-92934398D01*
X73575757Y-92935620D01*
X73543290Y-92937267D01*
X73521265Y-92939402D01*
X73507852Y-92942090D01*
X73501224Y-92945391D01*
X73499551Y-92949369D01*
X73256069Y-92949369D01*
X73259392Y-92946108D01*
X73273537Y-92921873D01*
X73279838Y-92908705D01*
X73298574Y-92872750D01*
X73318762Y-92841877D01*
X73323463Y-92836084D01*
X73345481Y-92809596D01*
X73360289Y-92790178D01*
X73364512Y-92786022D01*
X73371999Y-92782428D01*
X73384462Y-92779334D01*
X73403618Y-92776674D01*
X73431182Y-92774383D01*
X73468867Y-92772397D01*
X73518390Y-92770652D01*
X73581465Y-92769082D01*
X73659806Y-92767623D01*
X73755130Y-92766211D01*
X73869151Y-92764781D01*
X74003583Y-92763268D01*
X74102403Y-92762213D01*
X74250416Y-92760671D01*
X74376905Y-92759427D01*
X74483585Y-92758516D01*
X74572169Y-92757969D01*
X74644371Y-92757822D01*
X74701906Y-92758108D01*
G37*
%TO.C,Q9*%
D12*
X72850000Y-80760000D02*
X72850000Y-77160000D01*
X68400000Y-78960000D02*
G75*
G02*
X69901193Y-76603600I2600000J0D01*
G01*
X69901193Y-81316400D02*
G75*
G02*
X68400000Y-78960000I1098807J2356400D01*
G01*
X72122795Y-76635816D02*
G75*
G02*
X72850000Y-77160000I-1122795J-2324184D01*
G01*
X72850000Y-80760000D02*
G75*
G02*
X72122795Y-81284184I-1850000J1800000D01*
G01*
%TO.C,R21*%
X75049736Y-79840000D02*
X76503864Y-79840000D01*
X75049736Y-81660000D02*
X76503864Y-81660000D01*
%TO.C,R20*%
X75049736Y-75840000D02*
X76503864Y-75840000D01*
X75049736Y-77660000D02*
X76503864Y-77660000D01*
%TO.C,J6*%
X50890000Y-4690000D02*
X50890000Y-6500000D01*
X50890000Y-8310000D02*
X50890000Y-6500000D01*
X52290000Y-3690000D02*
X52290000Y-4690000D01*
X52290000Y-4690000D02*
X50890000Y-4690000D01*
X52290000Y-8310000D02*
X50890000Y-8310000D01*
X52290000Y-9310000D02*
X52290000Y-8310000D01*
X62110000Y-3690000D02*
X52290000Y-3690000D01*
X62110000Y-6500000D02*
X62110000Y-3690000D01*
X62110000Y-6500000D02*
X62110000Y-9310000D01*
X62110000Y-9310000D02*
X52290000Y-9310000D01*
X62350000Y-3450000D02*
X59500000Y-3450000D01*
X62350000Y-6300000D02*
X62350000Y-3450000D01*
%TO.C,Q7*%
X72850000Y-65260000D02*
X72850000Y-61660000D01*
X68400000Y-63460000D02*
G75*
G02*
X69901193Y-61103600I2600000J0D01*
G01*
X69901193Y-65816400D02*
G75*
G02*
X68400000Y-63460000I1098807J2356400D01*
G01*
X72122795Y-61135816D02*
G75*
G02*
X72850000Y-61660000I-1122795J-2324184D01*
G01*
X72850000Y-65260000D02*
G75*
G02*
X72122795Y-65784184I-1850000J1800000D01*
G01*
%TO.C,J3*%
X51640000Y-112300000D02*
X51640000Y-114710000D01*
X51640000Y-114710000D02*
X54050000Y-114710000D01*
X51940000Y-109290000D02*
X51940000Y-114410000D01*
X51940000Y-114410000D02*
X68560000Y-114410000D01*
X68560000Y-114410000D02*
X69560000Y-113410000D01*
X69560000Y-109290000D02*
X51940000Y-109290000D01*
X69560000Y-113410000D02*
X69560000Y-109290000D01*
%TO.C,R23*%
X75199736Y-87590000D02*
X76653864Y-87590000D01*
X75199736Y-89410000D02*
X76653864Y-89410000D01*
%TO.C,J7*%
X80690000Y-87290000D02*
X81690000Y-87290000D01*
X80690000Y-97110000D02*
X80690000Y-87290000D01*
X81690000Y-85890000D02*
X83500000Y-85890000D01*
X81690000Y-87290000D02*
X81690000Y-85890000D01*
X83500000Y-97110000D02*
X80690000Y-97110000D01*
X83500000Y-97110000D02*
X86310000Y-97110000D01*
X83700000Y-97350000D02*
X86550000Y-97350000D01*
X85310000Y-85890000D02*
X83500000Y-85890000D01*
X85310000Y-87290000D02*
X85310000Y-85890000D01*
X86310000Y-87290000D02*
X85310000Y-87290000D01*
X86310000Y-97110000D02*
X86310000Y-87290000D01*
X86550000Y-97350000D02*
X86550000Y-94500000D01*
%TO.C,R16*%
X75049736Y-68090000D02*
X76503864Y-68090000D01*
X75049736Y-69910000D02*
X76503864Y-69910000D01*
%TO.C,R18*%
X75049736Y-64590000D02*
X76503864Y-64590000D01*
X75049736Y-66410000D02*
X76503864Y-66410000D01*
%TO.C,Q8*%
X72850000Y-57760000D02*
X72850000Y-54160000D01*
X68400000Y-55960000D02*
G75*
G02*
X69901193Y-53603600I2600000J0D01*
G01*
X69901193Y-58316400D02*
G75*
G02*
X68400000Y-55960000I1098807J2356400D01*
G01*
X72122795Y-53635816D02*
G75*
G02*
X72850000Y-54160000I-1122795J-2324184D01*
G01*
X72850000Y-57760000D02*
G75*
G02*
X72122795Y-58284184I-1850000J1800000D01*
G01*
%TO.C,J9*%
X80690000Y-71790000D02*
X81690000Y-71790000D01*
X80690000Y-81610000D02*
X80690000Y-71790000D01*
X81690000Y-70390000D02*
X83500000Y-70390000D01*
X81690000Y-71790000D02*
X81690000Y-70390000D01*
X83500000Y-81610000D02*
X80690000Y-81610000D01*
X83500000Y-81610000D02*
X86310000Y-81610000D01*
X83700000Y-81850000D02*
X86550000Y-81850000D01*
X85310000Y-70390000D02*
X83500000Y-70390000D01*
X85310000Y-71790000D02*
X85310000Y-70390000D01*
X86310000Y-71790000D02*
X85310000Y-71790000D01*
X86310000Y-81610000D02*
X86310000Y-71790000D01*
X86550000Y-81850000D02*
X86550000Y-79000000D01*
%TO.C,J5*%
X10140000Y-5190000D02*
X10140000Y-7000000D01*
X10140000Y-8810000D02*
X10140000Y-7000000D01*
X11540000Y-4190000D02*
X11540000Y-5190000D01*
X11540000Y-5190000D02*
X10140000Y-5190000D01*
X11540000Y-8810000D02*
X10140000Y-8810000D01*
X11540000Y-9810000D02*
X11540000Y-8810000D01*
X21360000Y-4190000D02*
X11540000Y-4190000D01*
X21360000Y-7000000D02*
X21360000Y-4190000D01*
X21360000Y-7000000D02*
X21360000Y-9810000D01*
X21360000Y-9810000D02*
X11540000Y-9810000D01*
X21600000Y-3950000D02*
X18750000Y-3950000D01*
X21600000Y-6800000D02*
X21600000Y-3950000D01*
%TD*%
%LPC*%
D16*
%TO.C,R15*%
X74226800Y-61750000D03*
X77326800Y-61750000D03*
%TD*%
D17*
%TO.C,Q10*%
X71000000Y-89080000D03*
D18*
X71000000Y-86540000D03*
X71000000Y-84000000D03*
%TD*%
D19*
%TO.C,J1*%
X12500000Y-112500000D03*
D20*
X15000000Y-112500000D03*
X17500000Y-112500000D03*
X20000000Y-112500000D03*
X22500000Y-112500000D03*
X25000000Y-112500000D03*
%TD*%
D21*
%TO.C,TB1*%
X7580000Y-44520000D03*
D22*
X10120000Y-44520000D03*
X7580000Y-47060000D03*
X10120000Y-47060000D03*
X7580000Y-49600000D03*
X10120000Y-49600000D03*
X7580000Y-52140000D03*
X10120000Y-52140000D03*
X7580000Y-54680000D03*
X10120000Y-54680000D03*
X7580000Y-57220000D03*
X10120000Y-57220000D03*
X7580000Y-59760000D03*
X10120000Y-59760000D03*
X7580000Y-62300000D03*
X10120000Y-62300000D03*
X7580000Y-64840000D03*
X10120000Y-64840000D03*
X7580000Y-67380000D03*
X10120000Y-67380000D03*
X7580000Y-69920000D03*
X10120000Y-69920000D03*
X7580000Y-72460000D03*
X10120000Y-72460000D03*
X7580000Y-75000000D03*
X10120000Y-75000000D03*
X7580000Y-77540000D03*
X10120000Y-77540000D03*
X7580000Y-80080000D03*
X10120000Y-80080000D03*
X7580000Y-82620000D03*
X10120000Y-82620000D03*
X7580000Y-85160000D03*
X10120000Y-85160000D03*
X7580000Y-87700000D03*
X10120000Y-87700000D03*
X7580000Y-90240000D03*
X10120000Y-90240000D03*
X7580000Y-92780000D03*
X10120000Y-92780000D03*
X7580000Y-95320000D03*
X10120000Y-95320000D03*
X7580000Y-97860000D03*
X10120000Y-97860000D03*
X7580000Y-100400000D03*
X10120000Y-100400000D03*
X7580000Y-102940000D03*
X10120000Y-102940000D03*
X7580000Y-105480000D03*
X10120000Y-105480000D03*
D21*
X58380000Y-44520000D03*
D22*
X60920000Y-44520000D03*
X58380000Y-47060000D03*
X60920000Y-47060000D03*
X58380000Y-49600000D03*
X60920000Y-49600000D03*
X58380000Y-52140000D03*
X60920000Y-52140000D03*
X58380000Y-54680000D03*
X60920000Y-54680000D03*
X58380000Y-57220000D03*
X60920000Y-57220000D03*
X58380000Y-59760000D03*
X60920000Y-59760000D03*
X58380000Y-62300000D03*
X60920000Y-62300000D03*
X58380000Y-64840000D03*
X60920000Y-64840000D03*
X58380000Y-67380000D03*
X60920000Y-67380000D03*
X58380000Y-69920000D03*
X60920000Y-69920000D03*
X58380000Y-72460000D03*
X60920000Y-72460000D03*
X58380000Y-75000000D03*
X60920000Y-75000000D03*
X58380000Y-77540000D03*
X60920000Y-77540000D03*
X58380000Y-80080000D03*
X60920000Y-80080000D03*
X58380000Y-82620000D03*
X60920000Y-82620000D03*
X58380000Y-85160000D03*
X60920000Y-85160000D03*
X58380000Y-87700000D03*
X60920000Y-87700000D03*
X58380000Y-90240000D03*
X60920000Y-90240000D03*
X58380000Y-92780000D03*
X60920000Y-92780000D03*
X58380000Y-95320000D03*
X60920000Y-95320000D03*
X58380000Y-97860000D03*
X60920000Y-97860000D03*
X58380000Y-100400000D03*
X60920000Y-100400000D03*
X58380000Y-102940000D03*
X60920000Y-102940000D03*
X58380000Y-105480000D03*
X60920000Y-105480000D03*
%TD*%
D16*
%TO.C,R14*%
X74226800Y-54250000D03*
X77326800Y-54250000D03*
%TD*%
D23*
%TO.C,H2*%
X4500000Y-112000000D03*
%TD*%
D16*
%TO.C,R17*%
X74226800Y-58000000D03*
X77326800Y-58000000D03*
%TD*%
D24*
%TO.C,J8*%
X75000000Y-111750000D03*
D25*
X75000000Y-106250000D03*
%TD*%
D17*
%TO.C,Q6*%
X71000000Y-73500000D03*
D18*
X71000000Y-70960000D03*
X71000000Y-68420000D03*
%TD*%
D26*
%TO.C,J4*%
X44000000Y-6000000D03*
D20*
X41500000Y-6000000D03*
X39000000Y-6000000D03*
X36500000Y-6000000D03*
X34000000Y-6000000D03*
X31500000Y-6000000D03*
X29000000Y-6000000D03*
X26500000Y-6000000D03*
%TD*%
D16*
%TO.C,R22*%
X74376800Y-84500000D03*
X77476800Y-84500000D03*
%TD*%
D24*
%TO.C,J10*%
X83500000Y-62750000D03*
D25*
X83500000Y-57250000D03*
%TD*%
D27*
%TO.C,A1*%
X85500000Y-45560000D03*
D28*
X85500000Y-43020000D03*
X85500000Y-40480000D03*
X85500000Y-37940000D03*
X85500000Y-35400000D03*
X85500000Y-32860000D03*
X85500000Y-30320000D03*
X85500000Y-27780000D03*
X85500000Y-25240000D03*
X85500000Y-22700000D03*
X85500000Y-20160000D03*
X85500000Y-17620000D03*
X85500000Y-15080000D03*
X85500000Y-12540000D03*
X85500000Y-10000000D03*
X70260000Y-10000000D03*
X70260000Y-12540000D03*
X70260000Y-15080000D03*
X70260000Y-17620000D03*
X70260000Y-20160000D03*
X70260000Y-22700000D03*
X70260000Y-25240000D03*
X70260000Y-27780000D03*
X70260000Y-30320000D03*
X70260000Y-32860000D03*
X70260000Y-35400000D03*
X70260000Y-37940000D03*
X70260000Y-40480000D03*
X70260000Y-43020000D03*
X70260000Y-45560000D03*
%TD*%
D16*
%TO.C,R19*%
X74226800Y-72750000D03*
X77326800Y-72750000D03*
%TD*%
D19*
%TO.C,J2*%
X33500000Y-112500000D03*
D20*
X36000000Y-112500000D03*
X38500000Y-112500000D03*
X41000000Y-112500000D03*
X43500000Y-112500000D03*
X46000000Y-112500000D03*
%TD*%
D17*
%TO.C,Q9*%
X71000000Y-81500000D03*
D18*
X71000000Y-78960000D03*
X71000000Y-76420000D03*
%TD*%
D16*
%TO.C,R21*%
X74226800Y-80750000D03*
X77326800Y-80750000D03*
%TD*%
%TO.C,R20*%
X74226800Y-76750000D03*
X77326800Y-76750000D03*
%TD*%
D29*
%TO.C,J6*%
X59750000Y-6500000D03*
D30*
X54250000Y-6500000D03*
%TD*%
D23*
%TO.C,H3*%
X84500000Y-112000000D03*
%TD*%
D17*
%TO.C,Q7*%
X71000000Y-66000000D03*
D18*
X71000000Y-63460000D03*
X71000000Y-60920000D03*
%TD*%
D19*
%TO.C,J3*%
X54500000Y-112500000D03*
D20*
X57000000Y-112500000D03*
X59500000Y-112500000D03*
X62000000Y-112500000D03*
X64500000Y-112500000D03*
X67000000Y-112500000D03*
%TD*%
D16*
%TO.C,R23*%
X74376800Y-88500000D03*
X77476800Y-88500000D03*
%TD*%
D24*
%TO.C,J7*%
X83500000Y-94750000D03*
D25*
X83500000Y-89250000D03*
%TD*%
D16*
%TO.C,R16*%
X74226800Y-69000000D03*
X77326800Y-69000000D03*
%TD*%
D23*
%TO.C,H1*%
X4500000Y-6500000D03*
%TD*%
D16*
%TO.C,R18*%
X74226800Y-65500000D03*
X77326800Y-65500000D03*
%TD*%
D17*
%TO.C,Q8*%
X71000000Y-58500000D03*
D18*
X71000000Y-55960000D03*
X71000000Y-53420000D03*
%TD*%
D24*
%TO.C,J9*%
X83500000Y-79250000D03*
D25*
X83500000Y-73750000D03*
%TD*%
D29*
%TO.C,J5*%
X19000000Y-7000000D03*
D30*
X13500000Y-7000000D03*
%TD*%
D27*
%TO.C,U3*%
X22415000Y-106910000D03*
X24955000Y-106910000D03*
D28*
X33210000Y-106935400D03*
X35750000Y-106910000D03*
D27*
X22288000Y-88114000D03*
X24828000Y-88114000D03*
D28*
X33210000Y-88012400D03*
X35750000Y-87987000D03*
%TD*%
D31*
%TO.C,U9*%
X35058700Y-23588300D03*
X35058700Y-21048300D03*
X35058700Y-18508300D03*
X35058700Y-15968300D03*
X35058700Y-13428300D03*
X35058700Y-10888300D03*
%TD*%
D32*
%TO.C,R7*%
X64000000Y-22880000D03*
X64000000Y-30500000D03*
%TD*%
%TO.C,R2*%
X51500000Y-52120000D03*
X51500000Y-44500000D03*
%TD*%
%TO.C,R4*%
X46690000Y-63500000D03*
X54310000Y-63500000D03*
%TD*%
%TO.C,R5*%
X47190000Y-57500000D03*
X54810000Y-57500000D03*
%TD*%
D31*
%TO.C,U11*%
X35000000Y-40088300D03*
X35000000Y-37548300D03*
X35000000Y-35008300D03*
X35000000Y-32468300D03*
X35000000Y-29928300D03*
X35000000Y-27388300D03*
%TD*%
D32*
%TO.C,R3*%
X44000000Y-20310000D03*
X44000000Y-12690000D03*
%TD*%
D27*
%TO.C,U2*%
X22415000Y-85173000D03*
X24955000Y-85173000D03*
D28*
X33210000Y-85198400D03*
X35750000Y-85173000D03*
D27*
X22288000Y-66377000D03*
X24828000Y-66377000D03*
D28*
X33210000Y-66275400D03*
X35750000Y-66250000D03*
%TD*%
D32*
%TO.C,R6*%
X57500000Y-30620000D03*
X57500000Y-23000000D03*
%TD*%
%TO.C,R1*%
X47000000Y-52120000D03*
X47000000Y-44500000D03*
%TD*%
D27*
%TO.C,U1*%
X22388000Y-63160000D03*
X24928000Y-63160000D03*
D28*
X33183000Y-63185400D03*
X35723000Y-63160000D03*
D27*
X22261000Y-44364000D03*
X24801000Y-44364000D03*
D28*
X33183000Y-44262400D03*
X35723000Y-44237000D03*
%TD*%
%LPD*%
M02*
