M48
; DRILL file KiCad 10.0.3 date 2026-06-30T17:04:36
; FORMAT={-:-/ absolute / metric / decimal}
; #@! TF.CreationDate,2026-06-30T17:04:36+09:00
; #@! TF.GenerationSoftware,Kicad,Pcbnew,10.0.3
; #@! TF.FileFunction,MixedPlating,1,2
FMAT,2
METRIC
; #@! TA.AperFunction,Plated,PTH,ViaDrill
T1C0.300
; #@! TA.AperFunction,Plated,PTH,ComponentDrill
T2C0.800
; #@! TA.AperFunction,Plated,PTH,ComponentDrill
T3C0.850
; #@! TA.AperFunction,Plated,PTH,ComponentDrill
T4C1.000
; #@! TA.AperFunction,Plated,PTH,ComponentDrill
T5C1.200
; #@! TA.AperFunction,Plated,PTH,ComponentDrill
T6C1.400
; #@! TA.AperFunction,NonPlated,NPTH,ComponentDrill
T7C4.300
%
G90
G05
T1
X4.5Y-19.0
X4.5Y-31.0
X10.5Y-19.0
X10.5Y-31.0
X12.75Y-71.695
X17.5Y-19.0
X17.5Y-31.0
X18.5Y-51.0
X20.5Y-38.0
X20.683Y-69.967
X24.5Y-51.0
X25.5Y-19.0
X25.5Y-31.0
X26.5Y-38.0
X28.024Y-83.638
X29.5Y-52.0
X33.5Y-96.0
X35.5Y-52.0
X35.5Y-79.0
X39.5Y-96.0
X41.0Y-48.721
X41.5Y-79.0
X42.5Y-72.0
X43.374Y-33.33
X43.5Y-79.033
X46.5Y-27.0
X46.5Y-38.0
X48.5Y-13.75
X48.5Y-72.0
X48.5Y-84.0
X48.5Y-97.0
X52.5Y-27.0
X52.5Y-38.0
X54.5Y-84.0
X54.5Y-97.0
X55.25Y-22.19
X58.5Y-14.0
X59.5Y-36.0
X61.384Y-83.89
X64.5Y-14.0
X65.5Y-36.0
X65.5Y-53.0
X66.176Y-107.742
X66.5Y-68.75
X73.5Y-59.5
X73.5Y-67.0
X73.5Y-74.5
X73.5Y-82.25
X74.0Y-91.0
T2
X22.261Y-44.364
X22.288Y-66.377
X22.288Y-88.114
X22.388Y-63.16
X22.415Y-85.173
X22.415Y-106.91
X24.801Y-44.364
X24.828Y-66.377
X24.828Y-88.114
X24.928Y-63.16
X24.955Y-85.173
X24.955Y-106.91
X33.183Y-44.262
X33.183Y-63.185
X33.21Y-66.275
X33.21Y-85.198
X33.21Y-88.012
X33.21Y-106.935
X35.723Y-44.237
X35.723Y-63.16
X35.75Y-66.25
X35.75Y-85.173
X35.75Y-87.987
X35.75Y-106.91
X44.0Y-12.69
X44.0Y-20.31
X46.69Y-63.5
X47.0Y-44.5
X47.0Y-52.12
X47.19Y-57.5
X51.5Y-44.5
X51.5Y-52.12
X54.31Y-63.5
X54.81Y-57.5
X57.5Y-23.0
X57.5Y-30.62
X64.0Y-22.88
X64.0Y-30.5
X71.0Y-53.42
X71.0Y-55.96
X71.0Y-58.5
X71.0Y-60.92
X71.0Y-63.46
X71.0Y-66.0
X71.0Y-68.42
X71.0Y-70.96
X71.0Y-73.5
X71.0Y-76.42
X71.0Y-78.96
X71.0Y-81.5
X71.0Y-84.0
X71.0Y-86.54
X71.0Y-89.08
T3
X12.5Y-112.5
X15.0Y-112.5
X17.5Y-112.5
X20.0Y-112.5
X22.5Y-112.5
X25.0Y-112.5
X26.5Y-6.0
X29.0Y-6.0
X31.5Y-6.0
X33.5Y-112.5
X34.0Y-6.0
X36.0Y-112.5
X36.5Y-6.0
X38.5Y-112.5
X39.0Y-6.0
X41.0Y-112.5
X41.5Y-6.0
X43.5Y-112.5
X44.0Y-6.0
X46.0Y-112.5
X54.5Y-112.5
X57.0Y-112.5
X59.5Y-112.5
X62.0Y-112.5
X64.5Y-112.5
X67.0Y-112.5
T4
X7.58Y-44.52
X7.58Y-47.06
X7.58Y-49.6
X7.58Y-52.14
X7.58Y-54.68
X7.58Y-57.22
X7.58Y-59.76
X7.58Y-62.3
X7.58Y-64.84
X7.58Y-67.38
X7.58Y-69.92
X7.58Y-72.46
X7.58Y-75.0
X7.58Y-77.54
X7.58Y-80.08
X7.58Y-82.62
X7.58Y-85.16
X7.58Y-87.7
X7.58Y-90.24
X7.58Y-92.78
X7.58Y-95.32
X7.58Y-97.86
X7.58Y-100.4
X7.58Y-102.94
X7.58Y-105.48
X10.12Y-44.52
X10.12Y-47.06
X10.12Y-49.6
X10.12Y-52.14
X10.12Y-54.68
X10.12Y-57.22
X10.12Y-59.76
X10.12Y-62.3
X10.12Y-64.84
X10.12Y-67.38
X10.12Y-69.92
X10.12Y-72.46
X10.12Y-75.0
X10.12Y-77.54
X10.12Y-80.08
X10.12Y-82.62
X10.12Y-85.16
X10.12Y-87.7
X10.12Y-90.24
X10.12Y-92.78
X10.12Y-95.32
X10.12Y-97.86
X10.12Y-100.4
X10.12Y-102.94
X10.12Y-105.48
X58.38Y-44.52
X58.38Y-47.06
X58.38Y-49.6
X58.38Y-52.14
X58.38Y-54.68
X58.38Y-57.22
X58.38Y-59.76
X58.38Y-62.3
X58.38Y-64.84
X58.38Y-67.38
X58.38Y-69.92
X58.38Y-72.46
X58.38Y-75.0
X58.38Y-77.54
X58.38Y-80.08
X58.38Y-82.62
X58.38Y-85.16
X58.38Y-87.7
X58.38Y-90.24
X58.38Y-92.78
X58.38Y-95.32
X58.38Y-97.86
X58.38Y-100.4
X58.38Y-102.94
X58.38Y-105.48
X60.92Y-44.52
X60.92Y-47.06
X60.92Y-49.6
X60.92Y-52.14
X60.92Y-54.68
X60.92Y-57.22
X60.92Y-59.76
X60.92Y-62.3
X60.92Y-64.84
X60.92Y-67.38
X60.92Y-69.92
X60.92Y-72.46
X60.92Y-75.0
X60.92Y-77.54
X60.92Y-80.08
X60.92Y-82.62
X60.92Y-85.16
X60.92Y-87.7
X60.92Y-90.24
X60.92Y-92.78
X60.92Y-95.32
X60.92Y-97.86
X60.92Y-100.4
X60.92Y-102.94
X60.92Y-105.48
X70.26Y-10.0
X70.26Y-12.54
X70.26Y-15.08
X70.26Y-17.62
X70.26Y-20.16
X70.26Y-22.7
X70.26Y-25.24
X70.26Y-27.78
X70.26Y-30.32
X70.26Y-32.86
X70.26Y-35.4
X70.26Y-37.94
X70.26Y-40.48
X70.26Y-43.02
X70.26Y-45.56
X85.5Y-10.0
X85.5Y-12.54
X85.5Y-15.08
X85.5Y-17.62
X85.5Y-20.16
X85.5Y-22.7
X85.5Y-25.24
X85.5Y-27.78
X85.5Y-30.32
X85.5Y-32.86
X85.5Y-35.4
X85.5Y-37.94
X85.5Y-40.48
X85.5Y-43.02
X85.5Y-45.56
T5
X35.0Y-27.388
X35.0Y-29.928
X35.0Y-32.468
X35.0Y-35.008
X35.0Y-37.548
X35.0Y-40.088
X35.059Y-10.888
X35.059Y-13.428
X35.059Y-15.968
X35.059Y-18.508
X35.059Y-21.048
X35.059Y-23.588
T6
X13.5Y-7.0
X19.0Y-7.0
X54.25Y-6.5
X59.75Y-6.5
X75.0Y-106.25
X75.0Y-111.75
X83.5Y-57.25
X83.5Y-62.75
X83.5Y-73.75
X83.5Y-79.25
X83.5Y-89.25
X83.5Y-94.75
T7
X4.5Y-6.5
X4.5Y-112.0
X84.5Y-112.0
M30
