%TF.GenerationSoftware,KiCad,Pcbnew,10.0.3*%
%TF.CreationDate,2026-06-30T17:04:24+09:00*%
%TF.ProjectId,measurement_part,6d656173-7572-4656-9d65-6e745f706172,rev?*%
%TF.SameCoordinates,Original*%
%TF.FileFunction,Soldermask,Bot*%
%TF.FilePolarity,Negative*%
%FSLAX46Y46*%
G04 Gerber Fmt 4.6, Leading zero omitted, Abs format (unit mm)*
G04 Created by KiCad (PCBNEW 10.0.3) date 2026-06-30 17:04:24*
%MOMM*%
%LPD*%
G01*
G04 APERTURE LIST*
G04 Aperture macros list*
%AMRoundRect*
0 Rectangle with rounded corners*
0 $1 Rounding radius*
0 $2 $3 $4 $5 $6 $7 $8 $9 X,Y pos of 4 corners*
0 Add a 4 corners polygon primitive as box body*
4,1,4,$2,$3,$4,$5,$6,$7,$8,$9,$2,$3,0*
0 Add four circle primitives for the rounded corners*
1,1,$1+$1,$2,$3*
1,1,$1+$1,$4,$5*
1,1,$1+$1,$6,$7*
1,1,$1+$1,$8,$9*
0 Add four rect primitives between the rounded corners*
20,1,$1+$1,$2,$3,$4,$5,0*
20,1,$1+$1,$4,$5,$6,$7,0*
20,1,$1+$1,$6,$7,$8,$9,0*
20,1,$1+$1,$8,$9,$2,$3,0*%
G04 Aperture macros list end*
%ADD10R,1.500000X1.500000*%
%ADD11C,1.500000*%
%ADD12RoundRect,0.250000X-0.600000X-0.675000X0.600000X-0.675000X0.600000X0.675000X-0.600000X0.675000X0*%
%ADD13O,1.700000X1.850000*%
%ADD14RoundRect,0.102000X-0.754000X-0.754000X0.754000X-0.754000X0.754000X0.754000X-0.754000X0.754000X0*%
%ADD15C,1.712000*%
%ADD16C,4.300000*%
%ADD17RoundRect,0.250001X1.099999X1.399999X-1.099999X1.399999X-1.099999X-1.399999X1.099999X-1.399999X0*%
%ADD18O,2.700000X3.300000*%
%ADD19RoundRect,0.250000X0.600000X0.675000X-0.600000X0.675000X-0.600000X-0.675000X0.600000X-0.675000X0*%
%ADD20R,1.600000X1.600000*%
%ADD21O,1.600000X1.600000*%
%ADD22RoundRect,0.250001X-1.399999X1.099999X-1.399999X-1.099999X1.399999X-1.099999X1.399999X1.099999X0*%
%ADD23O,3.300000X2.700000*%
%ADD24C,1.524000*%
%ADD25C,1.600000*%
G04 APERTURE END LIST*
D10*
%TO.C,Q10*%
X71000000Y-89080000D03*
D11*
X71000000Y-86540000D03*
X71000000Y-84000000D03*
%TD*%
D12*
%TO.C,J1*%
X12500000Y-112500000D03*
D13*
X15000000Y-112500000D03*
X17500000Y-112500000D03*
X20000000Y-112500000D03*
X22500000Y-112500000D03*
X25000000Y-112500000D03*
%TD*%
D14*
%TO.C,TB1*%
X7580000Y-44520000D03*
D15*
X10120000Y-44520000D03*
X7580000Y-47060000D03*
X10120000Y-47060000D03*
X7580000Y-49600000D03*
X10120000Y-49600000D03*
X7580000Y-52140000D03*
X10120000Y-52140000D03*
X7580000Y-54680000D03*
X10120000Y-54680000D03*
X7580000Y-57220000D03*
X10120000Y-57220000D03*
X7580000Y-59760000D03*
X10120000Y-59760000D03*
X7580000Y-62300000D03*
X10120000Y-62300000D03*
X7580000Y-64840000D03*
X10120000Y-64840000D03*
X7580000Y-67380000D03*
X10120000Y-67380000D03*
X7580000Y-69920000D03*
X10120000Y-69920000D03*
X7580000Y-72460000D03*
X10120000Y-72460000D03*
X7580000Y-75000000D03*
X10120000Y-75000000D03*
X7580000Y-77540000D03*
X10120000Y-77540000D03*
X7580000Y-80080000D03*
X10120000Y-80080000D03*
X7580000Y-82620000D03*
X10120000Y-82620000D03*
X7580000Y-85160000D03*
X10120000Y-85160000D03*
X7580000Y-87700000D03*
X10120000Y-87700000D03*
X7580000Y-90240000D03*
X10120000Y-90240000D03*
X7580000Y-92780000D03*
X10120000Y-92780000D03*
X7580000Y-95320000D03*
X10120000Y-95320000D03*
X7580000Y-97860000D03*
X10120000Y-97860000D03*
X7580000Y-100400000D03*
X10120000Y-100400000D03*
X7580000Y-102940000D03*
X10120000Y-102940000D03*
X7580000Y-105480000D03*
X10120000Y-105480000D03*
D14*
X58380000Y-44520000D03*
D15*
X60920000Y-44520000D03*
X58380000Y-47060000D03*
X60920000Y-47060000D03*
X58380000Y-49600000D03*
X60920000Y-49600000D03*
X58380000Y-52140000D03*
X60920000Y-52140000D03*
X58380000Y-54680000D03*
X60920000Y-54680000D03*
X58380000Y-57220000D03*
X60920000Y-57220000D03*
X58380000Y-59760000D03*
X60920000Y-59760000D03*
X58380000Y-62300000D03*
X60920000Y-62300000D03*
X58380000Y-64840000D03*
X60920000Y-64840000D03*
X58380000Y-67380000D03*
X60920000Y-67380000D03*
X58380000Y-69920000D03*
X60920000Y-69920000D03*
X58380000Y-72460000D03*
X60920000Y-72460000D03*
X58380000Y-75000000D03*
X60920000Y-75000000D03*
X58380000Y-77540000D03*
X60920000Y-77540000D03*
X58380000Y-80080000D03*
X60920000Y-80080000D03*
X58380000Y-82620000D03*
X60920000Y-82620000D03*
X58380000Y-85160000D03*
X60920000Y-85160000D03*
X58380000Y-87700000D03*
X60920000Y-87700000D03*
X58380000Y-90240000D03*
X60920000Y-90240000D03*
X58380000Y-92780000D03*
X60920000Y-92780000D03*
X58380000Y-95320000D03*
X60920000Y-95320000D03*
X58380000Y-97860000D03*
X60920000Y-97860000D03*
X58380000Y-100400000D03*
X60920000Y-100400000D03*
X58380000Y-102940000D03*
X60920000Y-102940000D03*
X58380000Y-105480000D03*
X60920000Y-105480000D03*
%TD*%
D16*
%TO.C,H2*%
X4500000Y-112000000D03*
%TD*%
D17*
%TO.C,J8*%
X75000000Y-111750000D03*
D18*
X75000000Y-106250000D03*
%TD*%
D10*
%TO.C,Q6*%
X71000000Y-73500000D03*
D11*
X71000000Y-70960000D03*
X71000000Y-68420000D03*
%TD*%
D19*
%TO.C,J4*%
X44000000Y-6000000D03*
D13*
X41500000Y-6000000D03*
X39000000Y-6000000D03*
X36500000Y-6000000D03*
X34000000Y-6000000D03*
X31500000Y-6000000D03*
X29000000Y-6000000D03*
X26500000Y-6000000D03*
%TD*%
D17*
%TO.C,J10*%
X83500000Y-62750000D03*
D18*
X83500000Y-57250000D03*
%TD*%
D20*
%TO.C,A1*%
X85500000Y-45560000D03*
D21*
X85500000Y-43020000D03*
X85500000Y-40480000D03*
X85500000Y-37940000D03*
X85500000Y-35400000D03*
X85500000Y-32860000D03*
X85500000Y-30320000D03*
X85500000Y-27780000D03*
X85500000Y-25240000D03*
X85500000Y-22700000D03*
X85500000Y-20160000D03*
X85500000Y-17620000D03*
X85500000Y-15080000D03*
X85500000Y-12540000D03*
X85500000Y-10000000D03*
X70260000Y-10000000D03*
X70260000Y-12540000D03*
X70260000Y-15080000D03*
X70260000Y-17620000D03*
X70260000Y-20160000D03*
X70260000Y-22700000D03*
X70260000Y-25240000D03*
X70260000Y-27780000D03*
X70260000Y-30320000D03*
X70260000Y-32860000D03*
X70260000Y-35400000D03*
X70260000Y-37940000D03*
X70260000Y-40480000D03*
X70260000Y-43020000D03*
X70260000Y-45560000D03*
%TD*%
D12*
%TO.C,J2*%
X33500000Y-112500000D03*
D13*
X36000000Y-112500000D03*
X38500000Y-112500000D03*
X41000000Y-112500000D03*
X43500000Y-112500000D03*
X46000000Y-112500000D03*
%TD*%
D10*
%TO.C,Q9*%
X71000000Y-81500000D03*
D11*
X71000000Y-78960000D03*
X71000000Y-76420000D03*
%TD*%
D22*
%TO.C,J6*%
X59750000Y-6500000D03*
D23*
X54250000Y-6500000D03*
%TD*%
D16*
%TO.C,H3*%
X84500000Y-112000000D03*
%TD*%
D10*
%TO.C,Q7*%
X71000000Y-66000000D03*
D11*
X71000000Y-63460000D03*
X71000000Y-60920000D03*
%TD*%
D12*
%TO.C,J3*%
X54500000Y-112500000D03*
D13*
X57000000Y-112500000D03*
X59500000Y-112500000D03*
X62000000Y-112500000D03*
X64500000Y-112500000D03*
X67000000Y-112500000D03*
%TD*%
D17*
%TO.C,J7*%
X83500000Y-94750000D03*
D18*
X83500000Y-89250000D03*
%TD*%
D16*
%TO.C,H1*%
X4500000Y-6500000D03*
%TD*%
D10*
%TO.C,Q8*%
X71000000Y-58500000D03*
D11*
X71000000Y-55960000D03*
X71000000Y-53420000D03*
%TD*%
D17*
%TO.C,J9*%
X83500000Y-79250000D03*
D18*
X83500000Y-73750000D03*
%TD*%
D22*
%TO.C,J5*%
X19000000Y-7000000D03*
D23*
X13500000Y-7000000D03*
%TD*%
D24*
%TO.C,U9*%
X35058700Y-23588300D03*
X35058700Y-21048300D03*
X35058700Y-18508300D03*
X35058700Y-15968300D03*
X35058700Y-13428300D03*
X35058700Y-10888300D03*
%TD*%
D25*
%TO.C,R7*%
X64000000Y-22880000D03*
X64000000Y-30500000D03*
%TD*%
%TO.C,R2*%
X51500000Y-52120000D03*
X51500000Y-44500000D03*
%TD*%
%TO.C,R4*%
X46690000Y-63500000D03*
X54310000Y-63500000D03*
%TD*%
%TO.C,R5*%
X47190000Y-57500000D03*
X54810000Y-57500000D03*
%TD*%
D24*
%TO.C,U11*%
X35000000Y-40088300D03*
X35000000Y-37548300D03*
X35000000Y-35008300D03*
X35000000Y-32468300D03*
X35000000Y-29928300D03*
X35000000Y-27388300D03*
%TD*%
D25*
%TO.C,R3*%
X44000000Y-20310000D03*
X44000000Y-12690000D03*
%TD*%
%TO.C,R6*%
X57500000Y-30620000D03*
X57500000Y-23000000D03*
%TD*%
%TO.C,R1*%
X47000000Y-52120000D03*
X47000000Y-44500000D03*
%TD*%
M02*
